SplineFontDB: 3.0
FontName: Kunika
FullName: Kunika Regular
FamilyName: Kunika
Weight: Regular
Copyright: Copyright (c) 2018, Leo Kuroshita.
Version: 1
ItalicAngle: 0
UnderlinePosition: -150
UnderlineWidth: 50
Ascent: 800
Descent: 200
InvalidEm: 0
sfntRevision: 0x00010000
LayerCount: 2
Layer: 0 1 "+gMyXYgAA" 1
Layer: 1 1 "+Uk2XYgAA" 0
XUID: [1021 353 -2134623326 662194]
StyleMap: 0x0040
FSType: 0
OS2Version: 4
OS2_WeightWidthSlopeOnly: 0
OS2_UseTypoMetrics: 0
CreationTime: 1540270241
ModificationTime: 1540436451
PfmFamily: 81
TTFWeight: 400
TTFWidth: 5
LineGap: 0
VLineGap: 0
Panose: 0 0 0 0 0 0 0 0 0 0
OS2TypoAscent: 799
OS2TypoAOffset: 0
OS2TypoDescent: -289
OS2TypoDOffset: 0
OS2TypoLinegap: 0
OS2WinAscent: 771
OS2WinAOffset: 0
OS2WinDescent: 289
OS2WinDOffset: 0
HheadAscent: 799
HheadAOffset: 0
HheadDescent: -289
HheadDOffset: 0
OS2SubXSize: 650
OS2SubYSize: 699
OS2SubXOff: 0
OS2SubYOff: 140
OS2SupXSize: 650
OS2SupYSize: 699
OS2SupXOff: 0
OS2SupYOff: 479
OS2StrikeYSize: 49
OS2StrikeYPos: 258
OS2CapHeight: 579
OS2XHeight: 434
OS2Vendor: 'XXXX'
OS2CodePages: 00000003.00000000
OS2UnicodeRanges: 80000027.5000004a.00000000.00000000
Lookup: 3 0 0 "'aalt' +MFkweTBmMG51cE9TW1cweDBuMKIwrzC7MLkA in +MOkwxjDzZYdbVwAA lookup 0" { "'aalt' +MFkweTBmMG51cE9TW1cweDBuMKIwrzC7MLkA in +MOkwxjDzZYdbVwAA lookup 0 +MLUw1jDGMPww1jDr"  } ['aalt' ('DFLT' <'dflt' > 'latn' <'dflt' > ) ]
Lookup: 1 0 0 "'aalt' +MFkweTBmMG51cE9TW1cweDBuMKIwrzC7MLkA in +MOkwxjDzZYdbVwAA lookup 1" { "'aalt' +MFkweTBmMG51cE9TW1cweDBuMKIwrzC7MLkA in +MOkwxjDzZYdbVwAA lookup 1 +MLUw1jDGMPww1jDr"  } ['aalt' ('DFLT' <'dflt' > 'latn' <'dflt' > ) ]
Lookup: 4 0 0 "'dlig' +TvthD09/dSgwblQIW1cA in +MOkwxjDzZYdbVwAA lookup 2" { "'dlig' +TvthD09/dSgwblQIW1cA in +MOkwxjDzZYdbVwAA lookup 2 +MLUw1jDGMPww1jDr"  } ['dlig' ('DFLT' <'dflt' > 'latn' <'dflt' > ) ]
Lookup: 258 8 0 "Pair Kernings" { "AV-1" [150,15,0] } ['kern' ('DFLT' <'dflt' > 'latn' <'dflt' > ) ]
MarkAttachClasses: 1
DEI: 91125
ShortTable: maxp 16
  1
  0
  225

StartChar: .notdef
Encoding: 65536 -1 0
Width: 487
Flags: W
LayerCount: 2
Fore
SplineSet
30 700 m 1,0,-1
 457 700 l 1,1,-1
 457 0 l 1,2,-1
 30 0 l 1,3,-1
 30 700 l 1,0,-1
58 680 m 1,4,-1
 243 371 l 1,5,-1
 429 680 l 1,6,-1
 58 680 l 1,4,-1
231 350 m 1,7,-1
 51 650 l 1,8,-1
 51 49 l 1,9,-1
 231 350 l 1,7,-1
244 329 m 1,10,-1
 59 21 l 1,11,-1
 429 21 l 1,12,-1
 244 329 l 1,10,-1
256 350 m 1,13,-1
 437 47 l 1,14,-1
 437 652 l 1,15,-1
 256 350 l 1,13,-1
EndSplineSet
Validated: 1
EndChar

StartChar: exclam
Encoding: 33 33 6
Width: 195
GlyphClass: 2
Flags: W
LayerCount: 2
Fore
SplineSet
97 83 m 128,-1,1
 114 83 114 83 126.5 71 c 128,-1,2
 139 59 139 59 139 41.5 c 128,-1,3
 139 24 139 24 126.5 12 c 128,-1,4
 114 0 114 0 97 0 c 128,-1,5
 80 0 80 0 68 12 c 128,-1,6
 56 24 56 24 56 41.5 c 128,-1,7
 56 59 56 59 68 71 c 128,-1,0
 80 83 80 83 97 83 c 128,-1,1
30 579 m 1,8,-1
 164 579 l 1,9,-1
 139 145 l 1,10,-1
 56 145 l 1,11,-1
 30 579 l 1,8,-1
EndSplineSet
Validated: 1
EndChar

StartChar: quotedbl
Encoding: 34 34 7
Width: 288
GlyphClass: 2
Flags: W
LayerCount: 2
Fore
SplineSet
175 483 m 1,0,-1
 258 483 l 1,1,-1
 242 317 l 1,2,-1
 190 317 l 1,3,-1
 175 483 l 1,0,-1
46 317 m 1,4,-1
 30 483 l 1,5,-1
 113 483 l 1,6,-1
 98 317 l 1,7,-1
 46 317 l 1,4,-1
EndSplineSet
Validated: 1
EndChar

StartChar: numbersign
Encoding: 35 35 8
Width: 711
GlyphClass: 2
Flags: W
LayerCount: 2
Fore
SplineSet
681 351 m 1,0,-1
 572 351 l 1,1,-1
 531 186 l 1,2,-1
 609 186 l 1,3,-1
 609 103 l 1,4,-1
 510 103 l 1,5,-1
 484 0 l 1,6,-1
 392 0 l 1,7,-1
 417 103 l 1,8,-1
 221 103 l 1,9,-1
 195 0 l 1,10,-1
 102 0 l 1,11,-1
 128 103 l 1,12,-1
 30 103 l 1,13,-1
 30 186 l 1,14,-1
 149 186 l 1,15,-1
 190 351 l 1,16,-1
 102 351 l 1,17,-1
 102 434 l 1,18,-1
 211 434 l 1,19,-1
 247 579 l 1,20,-1
 340 579 l 1,21,-1
 304 434 l 1,22,-1
 500 434 l 1,23,-1
 536 579 l 1,24,-1
 629 579 l 1,25,-1
 593 434 l 1,26,-1
 681 434 l 1,27,-1
 681 351 l 1,0,-1
438 186 m 1,28,-1
 479 351 l 1,29,-1
 283 351 l 1,30,-1
 242 186 l 1,31,-1
 438 186 l 1,28,-1
EndSplineSet
Validated: 1
EndChar

StartChar: dollar
Encoding: 36 36 9
Width: 400
GlyphClass: 2
Flags: W
LayerCount: 2
Fore
SplineSet
319 289 m 0,0,1
 369 241 369 241 369 172.5 c 128,-1,2
 369 104 369 104 319 55 c 0,3,4
 287 24 287 24 241 13 c 1,5,-1
 241 -65 l 1,6,-1
 158 -65 l 1,7,-1
 158 13 l 1,8,9
 112 24 112 24 80 55 c 0,10,11
 39 95 39 95 31 152 c 1,12,-1
 116 152 l 1,13,14
 122 130 122 130 138 114 c 0,15,16
 164 90 164 90 199.5 90 c 128,-1,17
 235 90 235 90 260.5 114 c 128,-1,18
 286 138 286 138 286 172 c 128,-1,19
 286 206 286 206 260.5 230.5 c 128,-1,20
 235 255 235 255 200 255 c 2,21,-1
 199 255 l 2,22,23
 187 255 187 255 173 257 c 0,24,25
 168 258 168 258 167 258 c 0,26,27
 164 258 164 258 157 260 c 0,28,29
 152 261 152 261 152 262 c 0,30,31
 148 263 148 263 141 265 c 0,32,33
 139 266 139 266 137 266 c 0,34,35
 133 268 133 268 126 271 c 2,36,37
 126 271 126 271 125 271.5 c 128,-1,38
 124 272 124 272 124 273 c 0,39,40
 118 275 118 275 113 278 c 0,41,42
 111 279 111 279 111 280 c 0,43,44
 105 283 105 283 100 287 c 0,45,46
 99 287 99 287 99 287 c 129,-1,47
 99 287 99 287 99 288 c 0,48,49
 93 292 93 292 88 296 c 0,50,51
 81 302 81 302 80 303 c 0,52,53
 30 352 30 352 30 420.5 c 128,-1,54
 30 489 30 489 80 537 c 0,55,56
 112 569 112 569 158 580 c 1,57,-1
 158 658 l 1,58,-1
 241 658 l 1,59,-1
 241 580 l 1,60,61
 287 569 287 569 319 537 c 0,62,63
 360 497 360 497 368 441 c 1,64,-1
 283 441 l 1,65,66
 277 463 277 463 261 478 c 0,67,68
 235 503 235 503 199.5 503 c 128,-1,69
 164 503 164 503 138.5 478.5 c 128,-1,70
 113 454 113 454 113 420 c 128,-1,71
 113 386 113 386 138.5 362 c 128,-1,72
 164 338 164 338 200 338 c 0,73,74
 208 338 208 338 217 337 c 2,75,76
 217 337 217 337 218 337 c 128,-1,77
 219 337 219 337 219 337 c 2,78,79
 226 336 226 336 233 334 c 0,80,81
 234 334 234 334 235 334 c 128,-1,82
 236 334 236 334 237 334 c 0,83,84
 244 332 244 332 249 331 c 0,85,86
 250 330 250 330 252 330 c 0,87,88
 253 329 253 329 253 329 c 2,89,90
 259 327 259 327 264 325 c 0,91,92
 266 325 266 325 269 323 c 0,93,94
 274 321 274 321 278 319 c 0,95,96
 281 317 281 317 283 316 c 0,97,98
 288 314 288 314 292 311 c 0,99,100
 294 309 294 309 297 308 c 0,101,102
 300 305 300 305 305 302 c 0,103,104
 305 301 305 301 306.5 300 c 128,-1,105
 308 299 308 299 309 299 c 1,106,107
 309 298 309 298 310 297.5 c 128,-1,108
 311 297 311 297 312 296 c 2,109,-1
 311 296 l 1,110,111
 318 291 318 291 319 289 c 0,0,1
EndSplineSet
Validated: 1
EndChar

StartChar: percent
Encoding: 37 37 10
Width: 764
GlyphClass: 2
Flags: W
LayerCount: 2
Fore
SplineSet
571.5 173 m 128,-1,1
 614 173 614 173 644.5 142.5 c 128,-1,2
 675 112 675 112 675 69.5 c 128,-1,3
 675 27 675 27 644.5 -3.5 c 128,-1,4
 614 -34 614 -34 571.5 -34 c 128,-1,5
 529 -34 529 -34 498.5 -3.5 c 128,-1,6
 468 27 468 27 468 69.5 c 128,-1,7
 468 112 468 112 498.5 142.5 c 128,-1,0
 529 173 529 173 571.5 173 c 128,-1,1
586 55 m 128,-1,9
 592 61 592 61 592 69.5 c 128,-1,10
 592 78 592 78 586 84 c 128,-1,11
 580 90 580 90 571.5 90 c 128,-1,12
 563 90 563 90 557 84 c 128,-1,13
 551 78 551 78 551 69.5 c 128,-1,14
 551 61 551 61 557 55 c 128,-1,15
 563 49 563 49 571.5 49 c 128,-1,8
 580 49 580 49 586 55 c 128,-1,9
199.5 338 m 128,-1,17
 157 338 157 338 126.5 368.5 c 128,-1,18
 96 399 96 399 96 441.5 c 128,-1,19
 96 484 96 484 126.5 514.5 c 128,-1,20
 157 545 157 545 199.5 545 c 128,-1,21
 242 545 242 545 272.5 514.5 c 128,-1,22
 303 484 303 484 303 441.5 c 128,-1,23
 303 399 303 399 272.5 368.5 c 128,-1,16
 242 338 242 338 199.5 338 c 128,-1,17
185 456 m 128,-1,25
 179 450 179 450 179 441.5 c 128,-1,26
 179 433 179 433 185 427 c 128,-1,27
 191 421 191 421 199.5 421 c 128,-1,28
 208 421 208 421 214 427 c 128,-1,29
 220 433 220 433 220 441.5 c 128,-1,30
 220 450 220 450 214 456 c 128,-1,31
 208 462 208 462 199.5 462 c 128,-1,24
 191 462 191 462 185 456 c 128,-1,25
616 545 m 1,32,-1
 734 545 l 1,33,-1
 149 -29 l 1,34,-1
 30 -29 l 1,35,-1
 616 545 l 1,32,-1
EndSplineSet
Validated: 1
EndChar

StartChar: ampersand
Encoding: 38 38 11
Width: 572
GlyphClass: 2
Flags: W
LayerCount: 2
Fore
SplineSet
542 330 m 1,0,-1
 542 213 l 1,1,-1
 463 133 l 1,2,-1
 542 73 l 1,3,-1
 542 -31 l 1,4,-1
 403 74 l 1,5,-1
 349 20 l 1,6,-1
 348 21 l 1,7,8
 293 -34 293 -34 216 -34 c 128,-1,9
 139 -34 139 -34 84.5 20.5 c 128,-1,10
 30 75 30 75 30 152.5 c 128,-1,11
 30 230 30 230 85 284 c 0,12,13
 94 294 94 294 109 304 c 1,14,15
 72 346 72 346 72 400 c 0,16,17
 72 460 72 460 114 502.5 c 128,-1,18
 156 545 156 545 216 545 c 128,-1,19
 276 545 276 545 318.5 502.5 c 128,-1,20
 361 460 361 460 361 400 c 128,-1,21
 361 340 361 340 318 298 c 0,22,23
 303 283 303 283 281 271 c 1,24,-1
 396 184 l 1,25,-1
 399 187 l 1,26,-1
 542 330 l 1,0,-1
173 444 m 128,-1,28
 155 426 155 426 155 400.5 c 128,-1,29
 155 375 155 375 173 356 c 0,30,31
 190 339 190 339 215 339 c 2,32,33
 215 339 215 339 216 339 c 0,34,35
 222 339 222 339 230 340 c 0,36,37
 248 344 248 344 260 356 c 0,38,39
 278 375 278 375 278 400.5 c 128,-1,40
 278 426 278 426 260 444 c 128,-1,41
 242 462 242 462 216.5 462 c 128,-1,27
 191 462 191 462 173 444 c 128,-1,28
289 79 m 2,42,-1
 336 125 l 1,43,-1
 176 247 l 1,44,45
 157 240 157 240 143 225 c 0,46,47
 113 195 113 195 113 152.5 c 128,-1,48
 113 110 113 110 143 79.5 c 128,-1,49
 173 49 173 49 216 49 c 128,-1,50
 259 49 259 49 289 79 c 2,42,-1
EndSplineSet
Validated: 1
EndChar

StartChar: quotesingle
Encoding: 39 39 12
Width: 143
GlyphClass: 2
Flags: W
LayerCount: 2
Fore
SplineSet
30 483 m 1,0,-1
 113 483 l 1,1,-1
 98 317 l 1,2,-1
 46 317 l 1,3,-1
 30 483 l 1,0,-1
EndSplineSet
Validated: 1
EndChar

StartChar: parenleft
Encoding: 40 40 13
Width: 246
GlyphClass: 2
Flags: W
LayerCount: 2
Fore
SplineSet
113 289 m 128,-1,1
 113 159 113 159 216 0 c 1,2,-1
 119 0 l 1,3,4
 30 156 30 156 30 289.5 c 128,-1,5
 30 423 30 423 119 579 c 1,6,-1
 216 579 l 1,7,0
 113 419 113 419 113 289 c 128,-1,1
EndSplineSet
Validated: 1
EndChar

StartChar: parenright
Encoding: 41 41 14
Width: 246
GlyphClass: 2
Flags: W
LayerCount: 2
Fore
SplineSet
127 579 m 1,0,1
 216 422 216 422 216 289 c 128,-1,2
 216 156 216 156 127 0 c 1,3,-1
 30 0 l 1,4,5
 133 159 133 159 133 289 c 0,6,7
 133 420 133 420 30 579 c 1,8,-1
 127 579 l 1,0,1
EndSplineSet
Validated: 1
EndChar

StartChar: asterisk
Encoding: 42 42 15
Width: 494
GlyphClass: 2
Flags: W
LayerCount: 2
Fore
SplineSet
464 298 m 1,0,-1
 464 215 l 1,1,-1
 346 215 l 1,2,-1
 430 132 l 1,3,-1
 371 73 l 1,4,-1
 288 156 l 1,5,-1
 288 40 l 1,6,-1
 206 40 l 1,7,-1
 206 156 l 1,8,-1
 122 72 l 1,9,-1
 63 131 l 1,10,-1
 148 215 l 1,11,-1
 30 215 l 1,12,-1
 30 298 l 1,13,-1
 146 298 l 1,14,-1
 63 381 l 1,15,-1
 122 440 l 1,16,-1
 206 356 l 1,17,-1
 206 474 l 1,18,-1
 288 474 l 1,19,-1
 288 356 l 1,20,-1
 371 439 l 1,21,-1
 430 380 l 1,22,-1
 348 298 l 1,23,-1
 464 298 l 1,0,-1
EndSplineSet
Validated: 1
EndChar

StartChar: plus
Encoding: 43 43 16
Width: 492
GlyphClass: 2
Flags: W
LayerCount: 2
Fore
SplineSet
287 297 m 1,0,-1
 461 297 l 1,1,-1
 461 214 l 1,2,-1
 287 214 l 1,3,-1
 287 40 l 1,4,-1
 204 40 l 1,5,-1
 204 214 l 1,6,-1
 30 214 l 1,7,-1
 30 297 l 1,8,-1
 204 297 l 1,9,-1
 204 471 l 1,10,-1
 287 471 l 1,11,-1
 287 297 l 1,0,-1
EndSplineSet
Validated: 1
EndChar

StartChar: comma
Encoding: 44 44 17
Width: 143
GlyphClass: 2
Flags: W
LayerCount: 2
Fore
SplineSet
30 83 m 1,0,-1
 113 83 l 1,1,-1
 82 -83 l 1,2,-1
 30 -83 l 1,3,-1
 30 83 l 1,0,-1
EndSplineSet
Validated: 1
EndChar

StartChar: hyphen
Encoding: 45 45 18
Width: 494
GlyphClass: 2
Flags: W
LayerCount: 2
Fore
SplineSet
464 214 m 1,0,-1
 30 214 l 1,1,-1
 30 297 l 1,2,-1
 464 297 l 1,3,-1
 464 214 l 1,0,-1
EndSplineSet
Validated: 1
EndChar

StartChar: period
Encoding: 46 46 19
Width: 143
GlyphClass: 2
Flags: W
LayerCount: 2
Fore
SplineSet
71.5 83 m 128,-1,1
 89 83 89 83 101 71 c 128,-1,2
 113 59 113 59 113 41.5 c 128,-1,3
 113 24 113 24 101 12 c 128,-1,4
 89 0 89 0 71.5 0 c 128,-1,5
 54 0 54 0 42 12 c 128,-1,6
 30 24 30 24 30 41.5 c 128,-1,7
 30 59 30 59 42 71 c 128,-1,0
 54 83 54 83 71.5 83 c 128,-1,1
EndSplineSet
Validated: 1
EndChar

StartChar: slash
Encoding: 47 47 20
Width: 443
GlyphClass: 2
Flags: W
LayerCount: 2
Fore
SplineSet
319 579 m 1,0,-1
 412 579 l 1,1,-1
 123 0 l 1,2,-1
 30 0 l 1,3,-1
 319 579 l 1,0,-1
EndSplineSet
Validated: 1
EndChar

StartChar: zero
Encoding: 48 48 21
Width: 494
GlyphClass: 2
Flags: W
LayerCount: 2
Fore
SplineSet
247 496 m 128,-1,1
 192 496 192 496 152.5 434.5 c 128,-1,2
 113 373 113 373 113 289 c 128,-1,3
 113 205 113 205 152.5 144 c 128,-1,4
 192 83 192 83 247 83 c 128,-1,5
 302 83 302 83 341.5 144 c 128,-1,6
 381 205 381 205 381 289 c 128,-1,7
 381 373 381 373 341.5 434.5 c 128,-1,0
 302 496 302 496 247 496 c 128,-1,1
30 289 m 0,8,9
 30 409 30 409 93.5 494 c 128,-1,10
 157 579 157 579 247 579 c 128,-1,11
 337 579 337 579 400.5 494 c 128,-1,12
 464 409 464 409 464 289 c 0,13,14
 464 170 464 170 400.5 85 c 128,-1,15
 337 0 337 0 247 0 c 128,-1,16
 157 0 157 0 93.5 85 c 128,-1,17
 30 170 30 170 30 289 c 0,8,9
EndSplineSet
Validated: 1
EndChar

StartChar: one
Encoding: 49 49 22
Width: 205
GlyphClass: 2
Flags: W
LayerCount: 2
Fore
SplineSet
175 579 m 1,0,-1
 175 0 l 1,1,-1
 92 0 l 1,2,-1
 92 496 l 1,3,-1
 30 496 l 1,4,-1
 30 579 l 1,5,-1
 175 579 l 1,0,-1
EndSplineSet
Validated: 1
EndChar

StartChar: two
Encoding: 50 50 23
Width: 405
GlyphClass: 2
Flags: W
LayerCount: 2
Fore
SplineSet
335 295 m 2,0,-1
 188 83 l 1,1,-1
 374 83 l 1,2,-1
 374 0 l 1,3,-1
 30 0 l 1,4,-1
 272 350 l 2,5,6
 292 374 292 374 292 406 c 0,7,8
 292 443 292 443 265.5 469.5 c 128,-1,9
 239 496 239 496 202 496 c 128,-1,10
 165 496 165 496 139 469.5 c 128,-1,11
 113 443 113 443 113 406 c 1,12,-1
 30 406 l 1,13,14
 30 478 30 478 80.5 528 c 128,-1,15
 131 578 131 578 202.5 578 c 128,-1,16
 274 578 274 578 324 528 c 128,-1,17
 374 478 374 478 374 406 c 0,18,19
 374 379 374 379 364 350 c 2,20,-1
 361 342 l 2,21,22
 350 317 350 317 335 295 c 2,0,-1
EndSplineSet
Validated: 1
EndChar

StartChar: three
Encoding: 51 51 24
Width: 405
GlyphClass: 2
Flags: W
LayerCount: 2
Fore
SplineSet
324 294 m 0,0,1
 374 244 374 244 374 172.5 c 128,-1,2
 374 101 374 101 324 50.5 c 128,-1,3
 274 0 274 0 202.5 0 c 128,-1,4
 131 0 131 0 80.5 50.5 c 128,-1,5
 30 101 30 101 30 172 c 1,6,-1
 113 172 l 1,7,8
 113 135 113 135 139 109 c 128,-1,9
 165 83 165 83 202 83 c 128,-1,10
 239 83 239 83 265.5 109 c 128,-1,11
 292 135 292 135 292 172 c 128,-1,12
 292 209 292 209 265.5 235 c 128,-1,13
 239 261 239 261 202 262 c 1,14,-1
 202 345 l 1,15,-1
 203 344 l 1,16,17
 234 345 234 345 256 367 c 128,-1,18
 278 389 278 389 278 420 c 128,-1,19
 278 451 278 451 256 473.5 c 128,-1,20
 234 496 234 496 202.5 496 c 128,-1,21
 171 496 171 496 149 473.5 c 128,-1,22
 127 451 127 451 127 420 c 1,23,-1
 44 420 l 1,24,25
 44 486 44 486 90.5 532.5 c 128,-1,26
 137 579 137 579 202.5 579 c 128,-1,27
 268 579 268 579 314.5 532.5 c 128,-1,28
 361 486 361 486 361 420 c 128,-1,29
 361 354 361 354 314 308 c 0,30,31
 314 307 314 307 312.5 306 c 128,-1,32
 311 305 311 305 311 305 c 1,33,34
 324 295 324 295 324 294 c 0,0,1
EndSplineSet
Validated: 1
EndChar

StartChar: four
Encoding: 52 52 25
Width: 487
GlyphClass: 2
Flags: W
LayerCount: 2
Fore
SplineSet
385.670898438 226 m 1,0,-1
 457.670898438 226 l 1,1,-1
 457.670898438 143 l 1,2,-1
 385.670898438 143 l 1,3,-1
 385.670898438 0 l 1,4,-1
 302.670898438 0 l 1,5,-1
 302.670898438 143 l 1,6,-1
 23.6708984375 143 l 1,7,-1
 385.670898438 577 l 1,8,-1
 385.670898438 226 l 1,0,-1
302.670898438 226 m 1,9,-1
 302.670898438 348 l 1,10,-1
 200.670898438 226 l 1,11,-1
 302.670898438 226 l 1,9,-1
EndSplineSet
EndChar

StartChar: five
Encoding: 53 53 26
Width: 468
GlyphClass: 2
Flags: W
LayerCount: 2
Fore
SplineSet
437 496 m 1,0,-1
 209 496 l 1,1,-1
 180 403 l 1,2,-1
 232 403 l 2,3,4
 315 403 315 403 374 344 c 128,-1,5
 433 285 433 285 433 201.5 c 128,-1,6
 433 118 433 118 374 59 c 128,-1,7
 315 0 315 0 231.5 0 c 128,-1,8
 148 0 148 0 89 59 c 128,-1,9
 30 118 30 118 30 202 c 1,10,-1
 113 202 l 1,11,12
 113 152 113 152 147.5 117.5 c 128,-1,13
 182 83 182 83 231.5 83 c 128,-1,14
 281 83 281 83 315.5 117.5 c 128,-1,15
 350 152 350 152 350 201.5 c 128,-1,16
 350 251 350 251 315.5 285.5 c 128,-1,17
 281 320 281 320 232 320 c 2,18,-1
 68 320 l 1,19,-1
 148 579 l 1,20,-1
 437 579 l 1,21,-1
 437 496 l 1,0,-1
EndSplineSet
Validated: 1
EndChar

StartChar: six
Encoding: 54 54 27
Width: 422
GlyphClass: 2
Flags: W
LayerCount: 2
Fore
SplineSet
377 251 m 0,0,1
 392 218 392 218 392 181 c 128,-1,2
 392 144 392 144 377 110 c 0,3,4
 364 78 364 78 339 53 c 128,-1,5
 314 28 314 28 281 14 c 256,6,7
 248 0 248 0 211 0 c 128,-1,8
 174 0 174 0 140 14 c 0,9,10
 108 28 108 28 83 53 c 128,-1,11
 58 78 58 78 44 110 c 0,12,13
 30 144 30 144 30 181 c 128,-1,14
 30 218 30 218 44 251 c 2,15,-1
 209 579 l 1,16,-1
 302 579 l 1,17,-1
 192 360 l 1,18,19
 210 362 210 362 211 362 c 0,20,21
 248 362 248 362 281 347 c 0,22,23
 314 334 314 334 339 309 c 128,-1,24
 364 284 364 284 377 251 c 0,0,1
301 143 m 0,25,26
 309 161 309 161 309 181 c 128,-1,27
 309 201 309 201 301 219 c 0,28,29
 294 237 294 237 280 250.5 c 128,-1,30
 266 264 266 264 249 271 c 0,31,32
 231 279 231 279 211 279 c 128,-1,33
 191 279 191 279 173 271 c 0,34,35
 155 264 155 264 142 250 c 0,36,37
 131 240 131 240 124 225 c 2,38,-1
 121 219 l 1,39,-1
 120 219 l 1,40,41
 113 201 113 201 113 181 c 128,-1,42
 113 161 113 161 121 143 c 0,43,44
 128 125 128 125 141.5 111.5 c 128,-1,45
 155 98 155 98 173 91 c 0,46,47
 191 83 191 83 211 83 c 128,-1,48
 231 83 231 83 249 91 c 0,49,50
 266 98 266 98 280 111.5 c 128,-1,51
 294 125 294 125 301 143 c 0,25,26
EndSplineSet
Validated: 1
EndChar

StartChar: seven
Encoding: 55 55 28
Width: 494
GlyphClass: 2
Flags: W
LayerCount: 2
Fore
SplineSet
70 0 m 1,0,-1
 327 496 l 1,1,-1
 30 496 l 1,2,-1
 30 579 l 1,3,-1
 464 579 l 1,4,-1
 164 0 l 1,5,-1
 70 0 l 1,0,-1
EndSplineSet
Validated: 1
EndChar

StartChar: eight
Encoding: 56 56 29
Width: 405
GlyphClass: 2
Flags: W
LayerCount: 2
Fore
SplineSet
265.5 109 m 128,-1,1
 292 135 292 135 292 172 c 128,-1,2
 292 209 292 209 265.5 235 c 128,-1,3
 239 261 239 261 202 261 c 128,-1,4
 165 261 165 261 139 235 c 128,-1,5
 113 209 113 209 113 172 c 128,-1,6
 113 135 113 135 139 109 c 128,-1,7
 165 83 165 83 202 83 c 128,-1,0
 239 83 239 83 265.5 109 c 128,-1,1
149 367 m 128,-1,9
 171 345 171 345 202 344 c 1,10,-1
 202 345 l 1,11,-1
 203 344 l 1,12,13
 234 345 234 345 256 367 c 128,-1,14
 278 389 278 389 278 420 c 128,-1,15
 278 451 278 451 256 473.5 c 128,-1,16
 234 496 234 496 202.5 496 c 128,-1,17
 171 496 171 496 149 473.5 c 128,-1,18
 127 451 127 451 127 420 c 128,-1,8
 127 389 127 389 149 367 c 128,-1,9
324 294 m 0,19,20
 374 244 374 244 374 172.5 c 128,-1,21
 374 101 374 101 324 50.5 c 128,-1,22
 274 0 274 0 202.5 0 c 128,-1,23
 131 0 131 0 80.5 50.5 c 128,-1,24
 30 101 30 101 30 172.5 c 128,-1,25
 30 244 30 244 80 294 c 0,26,27
 81 295 81 295 94 305 c 1,28,-1
 92 306 l 1,29,-1
 90 308 l 2,30,31
 44 354 44 354 44 420 c 128,-1,32
 44 486 44 486 90.5 532.5 c 128,-1,33
 137 579 137 579 202.5 579 c 128,-1,34
 268 579 268 579 314.5 532.5 c 128,-1,35
 361 486 361 486 361 420 c 128,-1,36
 361 354 361 354 314 308 c 0,37,38
 314 307 314 307 312 306 c 2,39,-1
 311 305 l 1,40,41
 324 295 324 295 324 294 c 0,19,20
EndSplineSet
Validated: 1
EndChar

StartChar: nine
Encoding: 57 57 30
Width: 422
GlyphClass: 2
Flags: W
LayerCount: 2
Fore
SplineSet
44 327 m 0,0,1
 30 361 30 361 30 397.5 c 128,-1,2
 30 434 30 434 44 468 c 0,3,4
 58 501 58 501 83 526 c 128,-1,5
 108 551 108 551 140 564 c 0,6,7
 174 578 174 578 211 578 c 128,-1,8
 248 578 248 578 281 564 c 0,9,10
 314 551 314 551 339 526 c 128,-1,11
 364 501 364 501 377 468 c 0,12,13
 392 434 392 434 392 397.5 c 128,-1,14
 392 361 392 361 377 327 c 2,15,-1
 212 0 l 1,16,-1
 119 0 l 1,17,-1
 230 219 l 1,18,19
 212 217 212 217 211 217 c 0,20,21
 174 217 174 217 140 231 c 0,22,23
 108 245 108 245 83 270 c 128,-1,24
 58 295 58 295 44 327 c 0,0,1
121 436 m 0,25,26
 113 418 113 418 113 398 c 128,-1,27
 113 378 113 378 121 360 c 0,28,29
 128 342 128 342 141.5 328.5 c 128,-1,30
 155 315 155 315 173 307 c 0,31,32
 191 300 191 300 211 300 c 128,-1,33
 231 300 231 300 249 307 c 0,34,35
 267 315 267 315 280 328 c 0,36,37
 290 339 290 339 298 354 c 2,38,-1
 301 360 l 2,39,40
 309 378 309 378 309 398 c 128,-1,41
 309 418 309 418 301 436 c 0,42,43
 294 453 294 453 280 467 c 128,-1,44
 266 481 266 481 249 488 c 0,45,46
 231 496 231 496 211 496 c 128,-1,47
 191 496 191 496 173 488 c 0,48,49
 155 481 155 481 141.5 467 c 128,-1,50
 128 453 128 453 121 436 c 0,25,26
EndSplineSet
Validated: 1
EndChar

StartChar: colon
Encoding: 58 58 31
Width: 143
GlyphClass: 2
Flags: W
LayerCount: 2
Fore
SplineSet
71 394 m 0,0,1
 54 394 54 394 42 406 c 128,-1,2
 30 418 30 418 30 435.5 c 128,-1,3
 30 453 30 453 42 465 c 128,-1,4
 54 477 54 477 71.5 477 c 128,-1,5
 89 477 89 477 101 465 c 128,-1,6
 113 453 113 453 113 436 c 0,7,8
 113 424 113 424 107.5 414.5 c 128,-1,9
 102 405 102 405 92.5 399.5 c 128,-1,10
 83 394 83 394 71 394 c 0,0,1
71.5 188 m 128,-1,12
 89 188 89 188 101 175.5 c 128,-1,13
 113 163 113 163 113 146 c 128,-1,14
 113 129 113 129 101 117 c 128,-1,15
 89 105 89 105 71.5 105 c 128,-1,16
 54 105 54 105 42 117 c 128,-1,17
 30 129 30 129 30 146 c 128,-1,18
 30 163 30 163 42 175.5 c 128,-1,11
 54 188 54 188 71.5 188 c 128,-1,12
EndSplineSet
Validated: 1
EndChar

StartChar: semicolon
Encoding: 59 59 32
Width: 143
GlyphClass: 2
Flags: W
LayerCount: 2
Fore
SplineSet
30 19 m 1,0,-1
 30 185 l 1,1,-1
 113 185 l 1,2,-1
 82 19 l 1,3,-1
 30 19 l 1,0,-1
71 394 m 128,-1,5
 54 394 54 394 42 406.5 c 128,-1,6
 30 419 30 419 30 436 c 0,7,8
 30 452 30 452 42 464.5 c 128,-1,9
 54 477 54 477 71 477 c 128,-1,10
 88 477 88 477 100.5 465 c 128,-1,11
 113 453 113 453 113 436 c 128,-1,12
 113 419 113 419 100.5 406.5 c 128,-1,4
 88 394 88 394 71 394 c 128,-1,5
EndSplineSet
Validated: 1
EndChar

StartChar: less
Encoding: 60 60 33
Width: 298
GlyphClass: 2
Flags: W
LayerCount: 2
Fore
SplineSet
267 579 m 1,0,-1
 123 289 l 1,1,-1
 267 0 l 1,2,-1
 175 0 l 1,3,-1
 30 289 l 1,4,-1
 175 579 l 1,5,-1
 267 579 l 1,0,-1
EndSplineSet
Validated: 1
EndChar

StartChar: equal
Encoding: 61 61 34
Width: 494
GlyphClass: 2
Flags: W
LayerCount: 2
Fore
SplineSet
464 365 m 1,0,-1
 30 365 l 1,1,-1
 30 448 l 1,2,-1
 464 448 l 1,3,-1
 464 365 l 1,0,-1
464 131 m 1,4,-1
 30 131 l 1,5,-1
 30 214 l 1,6,-1
 464 214 l 1,7,-1
 464 131 l 1,4,-1
EndSplineSet
Validated: 1
EndChar

StartChar: greater
Encoding: 62 62 35
Width: 298
GlyphClass: 2
Flags: W
LayerCount: 2
Fore
SplineSet
123 579 m 1,0,-1
 267 289 l 1,1,-1
 123 0 l 1,2,-1
 30 0 l 1,3,-1
 175 289 l 1,4,-1
 30 579 l 1,5,-1
 123 579 l 1,0,-1
EndSplineSet
Validated: 1
EndChar

StartChar: question
Encoding: 63 63 36
Width: 439
GlyphClass: 2
Flags: W
LayerCount: 2
Fore
SplineSet
219 83 m 128,-1,1
 236 83 236 83 248.5 71 c 128,-1,2
 261 59 261 59 261 41.5 c 128,-1,3
 261 24 261 24 248.5 12 c 128,-1,4
 236 0 236 0 219 0 c 128,-1,5
 202 0 202 0 190 12 c 128,-1,6
 178 24 178 24 178 41.5 c 128,-1,7
 178 59 178 59 190 71 c 128,-1,0
 202 83 202 83 219 83 c 128,-1,1
353 523.5 m 128,-1,9
 408 468 408 468 408 389.5 c 128,-1,10
 408 311 408 311 353 256 c 0,11,12
 314 217 314 217 261 205 c 1,13,-1
 261 145 l 1,14,-1
 178 145 l 1,15,-1
 178 283 l 1,16,-1
 219 283 l 2,17,18
 263 283 263 283 294 314 c 128,-1,19
 325 345 325 345 325 389 c 128,-1,20
 325 433 325 433 294 464.5 c 128,-1,21
 263 496 263 496 219 496 c 128,-1,22
 175 496 175 496 144 465 c 128,-1,23
 113 434 113 434 113 389 c 0,24,25
 113 355 113 355 134 327 c 1,26,-1
 73 269 l 1,27,28
 30 322 30 322 30 389 c 0,29,30
 30 468 30 468 85.5 523.5 c 128,-1,31
 141 579 141 579 219.5 579 c 128,-1,8
 298 579 298 579 353 523.5 c 128,-1,9
EndSplineSet
Validated: 1
EndChar

StartChar: at
Encoding: 64 64 37
Width: 638
GlyphClass: 2
Flags: W
LayerCount: 2
Fore
SplineSet
359 201 m 0,0,1
 379 221 379 221 381 251 c 2,2,-1
 381 252 l 1,3,-1
 382 253 l 2,4,5
 382 254 382 254 382 255 c 0,6,7
 382 287 382 287 359 308 c 0,8,9
 338 331 338 331 306 331 c 128,-1,10
 274 331 274 331 253 308 c 0,11,12
 230 287 230 287 230 255 c 0,13,14
 230 224 230 224 253 201 c 0,15,16
 275 179 275 179 306 179 c 128,-1,17
 337 179 337 179 359 201 c 0,0,1
584 368 m 0,18,19
 607 313 607 313 607 255 c 2,20,-1
 607 -34 l 1,21,-1
 524 -34 l 1,22,-1
 524 255 l 2,23,24
 524 299 524 299 508 335 c 0,25,26
 493 372 493 372 464 401 c 0,27,28
 438 427 438 427 399 445 c 0,29,30
 363 461 363 461 319 461 c 128,-1,31
 275 461 275 461 239 445 c 0,32,33
 200 428 200 428 173 401 c 128,-1,34
 146 374 146 374 129 335 c 0,35,36
 113 299 113 299 113 255 c 0,37,38
 113 213 113 213 129 175 c 0,39,40
 144 139 144 139 173 110 c 128,-1,41
 202 81 202 81 239 66 c 0,42,43
 275 50 275 50 319 50 c 0,44,45
 344 50 344 50 362.5 69.5 c 128,-1,46
 381 89 381 89 381 116 c 1,47,48
 344 96 344 96 306 96 c 0,49,50
 241 96 241 96 194 143 c 128,-1,51
 147 190 147 190 147 255 c 128,-1,52
 147 320 147 320 194 367 c 128,-1,53
 241 414 241 414 306 414 c 128,-1,54
 371 414 371 414 418 367 c 128,-1,55
 465 320 465 320 465 255 c 1,56,-1
 464 254 l 2,57,58
 464 252 464 252 464 251 c 2,59,-1
 464 116 l 2,60,61
 464 55 464 55 421.5 11 c 128,-1,62
 379 -33 379 -33 320 -33 c 128,-1,63
 261 -33 261 -33 206 -10 c 0,64,65
 155 11 155 11 115 51 c 0,66,67
 74 92 74 92 53 143 c 0,68,69
 30 198 30 198 30 255 c 0,70,71
 30 313 30 313 53 368 c 0,72,73
 74 419 74 419 114 459 c 0,74,75
 155 500 155 500 206 521 c 0,76,77
 261 544 261 544 318 544 c 0,78,79
 377 544 377 544 431 521 c 0,80,81
 483 500 483 500 522 459 c 0,82,83
 563 420 563 420 584 368 c 0,18,19
EndSplineSet
Validated: 1
EndChar

StartChar: A
Encoding: 65 65 38
Width: 602
GlyphClass: 2
Flags: W
LayerCount: 2
Fore
SplineSet
210 228 m 1,0,-1
 376 228 l 1,1,-1
 293 393 l 1,2,-1
 210 228 l 1,0,-1
490 0 m 1,3,-1
 417 145 l 1,4,-1
 169 145 l 1,5,-1
 97 0 l 1,6,-1
 4 0 l 1,7,-1
 293 579 l 1,8,-1
 583 0 l 1,9,-1
 490 0 l 1,3,-1
EndSplineSet
Validated: 1
AlternateSubs2: "'aalt' +MFkweTBmMG51cE9TW1cweDBuMKIwrzC7MLkA in +MOkwxjDzZYdbVwAA lookup 0 +MLUw1jDGMPww1jDr" A.alt1 A.alt2
EndChar

StartChar: B
Encoding: 66 66 39
Width: 519
GlyphClass: 2
Flags: W
LayerCount: 2
Fore
SplineSet
431 289 m 1,0,1
 489 240 489 240 489 165 c 0,2,3
 489 97 489 97 439 48.5 c 128,-1,4
 389 0 389 0 319 0 c 2,5,-1
 30 0 l 1,6,-1
 30 579 l 1,7,-1
 319 579 l 2,8,9
 389 579 389 579 439 530.5 c 128,-1,10
 489 482 489 482 489 413 c 0,11,12
 489 339 489 339 431 289 c 1,0,1
319 83 m 2,13,14
 355 83 355 83 380.5 107 c 128,-1,15
 406 131 406 131 406 165.5 c 128,-1,16
 406 200 406 200 380.5 224 c 128,-1,17
 355 248 355 248 319 248 c 2,18,-1
 113 248 l 1,19,-1
 113 83 l 1,20,-1
 319 83 l 2,13,14
319 331 m 2,21,22
 355 331 355 331 380.5 355 c 128,-1,23
 406 379 406 379 406 413 c 128,-1,24
 406 447 406 447 380.5 471.5 c 128,-1,25
 355 496 355 496 319 496 c 2,26,-1
 113 496 l 1,27,-1
 113 331 l 1,28,-1
 319 331 l 2,21,22
EndSplineSet
Validated: 1
EndChar

StartChar: C
Encoding: 67 67 40
Width: 554
GlyphClass: 2
Flags: W
LayerCount: 2
Fore
SplineSet
465 143 m 1,0,-1
 524 85 l 1,1,2
 439 0 439 0 319 0 c 128,-1,3
 199 0 199 0 114.5 84.5 c 128,-1,4
 30 169 30 169 30 289 c 0,5,6
 30 336 30 336 44.5 380.5 c 128,-1,7
 59 425 59 425 86 460.5 c 128,-1,8
 113 496 113 496 148.5 522.5 c 128,-1,9
 184 549 184 549 228 564 c 128,-1,10
 272 579 272 579 319 579 c 0,11,12
 439 579 439 579 524 494 c 1,13,-1
 465 435 l 1,14,15
 405 496 405 496 319.5 496 c 128,-1,16
 234 496 234 496 173.5 435.5 c 128,-1,17
 113 375 113 375 113 289.5 c 128,-1,18
 113 204 113 204 173.5 143.5 c 128,-1,19
 234 83 234 83 319.5 83 c 128,-1,20
 405 83 405 83 465 143 c 1,0,-1
EndSplineSet
Validated: 1
EndChar

StartChar: D
Encoding: 68 68 41
Width: 568
GlyphClass: 2
Flags: W
LayerCount: 2
Fore
SplineSet
248 579 m 0,0,1
 368 579 368 579 452.5 494 c 128,-1,2
 537 409 537 409 537 289 c 128,-1,3
 537 169 537 169 452.5 84.5 c 128,-1,4
 368 0 368 0 248 0 c 2,5,6
 248 0 248 0 247 0 c 128,-1,7
 246 0 246 0 246 0 c 1,8,-1
 30 0 l 1,9,-1
 30 579 l 1,10,-1
 246 579 l 2,11,12
 247 579 247 579 248 579 c 0,0,1
248 83 m 2,13,14
 333 83 333 83 393.5 143.5 c 128,-1,15
 454 204 454 204 454 289.5 c 128,-1,16
 454 375 454 375 393.5 435.5 c 128,-1,17
 333 496 333 496 248 496 c 2,18,19
 248 496 248 496 247 496 c 128,-1,20
 246 496 246 496 246 496 c 1,21,-1
 112 496 l 1,22,-1
 112 83 l 1,23,-1
 246 83 l 1,24,25
 246 83 246 83 247 83 c 128,-1,26
 248 83 248 83 248 83 c 2,13,14
EndSplineSet
Validated: 1
EndChar

StartChar: E
Encoding: 69 69 42
Width: 422
GlyphClass: 2
Flags: W
LayerCount: 2
Fore
SplineSet
392 496 m 1,0,-1
 113 496 l 1,1,-1
 113 331 l 1,2,-1
 392 331 l 1,3,-1
 392 248 l 1,4,-1
 113 248 l 1,5,-1
 113 83 l 1,6,-1
 392 83 l 1,7,-1
 392 0 l 1,8,-1
 30 0 l 1,9,-1
 30 579 l 1,10,-1
 392 579 l 1,11,-1
 392 496 l 1,0,-1
EndSplineSet
Validated: 1
EndChar

StartChar: F
Encoding: 70 70 43
Width: 422
GlyphClass: 2
Flags: W
LayerCount: 2
Fore
SplineSet
113 248 m 1,0,-1
 113 0 l 1,1,-1
 30 0 l 1,2,-1
 30 579 l 1,3,-1
 392 579 l 1,4,-1
 392 496 l 1,5,-1
 113 496 l 1,6,-1
 113 331 l 1,7,-1
 392 331 l 1,8,-1
 392 248 l 1,9,-1
 113 248 l 1,0,-1
EndSplineSet
Validated: 1
EndChar

StartChar: G
Encoding: 71 71 44
Width: 639
GlyphClass: 2
Flags: W
LayerCount: 2
Fore
SplineSet
526 289 m 1,0,-1
 609 289 l 1,1,2
 609 169 609 169 524 84.5 c 128,-1,3
 439 0 439 0 319 0 c 128,-1,4
 199 0 199 0 114.5 84.5 c 128,-1,5
 30 169 30 169 30 289 c 128,-1,6
 30 409 30 409 114.5 494 c 128,-1,7
 199 579 199 579 319 579 c 128,-1,8
 439 579 439 579 524 494 c 1,9,-1
 465 435 l 1,10,11
 405 496 405 496 319.5 496 c 128,-1,12
 234 496 234 496 173.5 435.5 c 128,-1,13
 113 375 113 375 113 289.5 c 128,-1,14
 113 204 113 204 173.5 143.5 c 128,-1,15
 234 83 234 83 319 83 c 0,16,17
 382 83 382 83 433 117 c 128,-1,18
 484 151 484 151 508 206 c 1,19,-1
 319 206 l 1,20,-1
 319 289 l 1,21,-1
 526 289 l 1,0,-1
EndSplineSet
Validated: 1
EndChar

StartChar: H
Encoding: 72 72 45
Width: 494
GlyphClass: 2
Flags: W
LayerCount: 2
Fore
SplineSet
381 579 m 1,0,-1
 464 579 l 1,1,-1
 464 0 l 1,2,-1
 381 0 l 1,3,-1
 381 248 l 1,4,-1
 113 248 l 1,5,-1
 113 0 l 1,6,-1
 30 0 l 1,7,-1
 30 579 l 1,8,-1
 113 579 l 1,9,-1
 113 331 l 1,10,-1
 381 331 l 1,11,-1
 381 579 l 1,0,-1
EndSplineSet
Validated: 1
EndChar

StartChar: I
Encoding: 73 73 46
Width: 143
GlyphClass: 2
Flags: W
LayerCount: 2
Fore
SplineSet
113 0 m 1,0,-1
 30 0 l 1,1,-1
 30 579 l 1,2,-1
 113 579 l 1,3,-1
 113 0 l 1,0,-1
EndSplineSet
Validated: 1
EndChar

StartChar: J
Encoding: 74 74 47
Width: 439
GlyphClass: 2
Flags: W
LayerCount: 2
Fore
SplineSet
325 579 m 1,0,-1
 408 579 l 1,1,-1
 408 189 l 2,2,3
 408 138 408 138 383 94.5 c 128,-1,4
 358 51 358 51 314 25.5 c 128,-1,5
 270 0 270 0 219 0 c 0,6,7
 141 0 141 0 85.5 55.5 c 128,-1,8
 30 111 30 111 30 189 c 1,9,-1
 113 189 l 1,10,11
 113 145 113 145 144 114 c 128,-1,12
 175 83 175 83 219 83 c 128,-1,13
 263 83 263 83 294 114 c 128,-1,14
 325 145 325 145 325 189 c 2,15,-1
 325 346 l 1,16,-1
 325 345 l 1,17,-1
 325 579 l 1,0,-1
EndSplineSet
Validated: 1
EndChar

StartChar: K
Encoding: 75 75 48
Width: 560
GlyphClass: 2
Flags: W
LayerCount: 2
Fore
SplineSet
529 579 m 1,0,-1
 178 289 l 1,1,-1
 529 0 l 1,2,-1
 399 0 l 1,3,-1
 113 236 l 1,4,-1
 113 0 l 1,5,-1
 30 0 l 1,6,-1
 30 579 l 1,7,-1
 113 579 l 1,8,-1
 113 343 l 1,9,-1
 399 579 l 1,10,-1
 529 579 l 1,0,-1
EndSplineSet
Validated: 1
EndChar

StartChar: L
Encoding: 76 76 49
Width: 422
GlyphClass: 2
Flags: W
LayerCount: 2
Fore
SplineSet
113 579 m 1,0,-1
 113 83 l 1,1,-1
 392 83 l 1,2,-1
 392 0 l 1,3,-1
 30 0 l 1,4,-1
 30 579 l 1,5,-1
 113 579 l 1,0,-1
EndSplineSet
Validated: 1
EndChar

StartChar: M
Encoding: 77 77 50
Width: 721
GlyphClass: 2
Flags: W
LayerCount: 2
Fore
SplineSet
609 469 m 1,0,-1
 690 578 l 1,1,-1
 690 1 l 1,2,-1
 609 1 l 1,3,-1
 609 331 l 1,4,-1
 361 0 l 1,5,-1
 173 250 l 1,6,-1
 113 330 l 1,7,-1
 113 0 l 1,8,-1
 30 0 l 1,9,-1
 30 579 l 1,10,-1
 361 138 l 1,11,-1
 609 469 l 1,0,-1
EndSplineSet
Validated: 1
AlternateSubs2: "'aalt' +MFkweTBmMG51cE9TW1cweDBuMKIwrzC7MLkA in +MOkwxjDzZYdbVwAA lookup 0 +MLUw1jDGMPww1jDr" M.alt1 M.alt2
EndChar

StartChar: N
Encoding: 78 78 51
Width: 521
GlyphClass: 2
Flags: W
LayerCount: 2
Fore
SplineSet
491 579 m 1,0,-1
 491 0 l 1,1,-1
 490 1 l 1,2,-1
 113 378 l 1,3,-1
 113 1 l 1,4,-1
 30 1 l 1,5,-1
 30 581 l 1,6,-1
 409 202 l 1,7,-1
 409 579 l 1,8,-1
 491 579 l 1,0,-1
EndSplineSet
Validated: 1
EndChar

StartChar: O
Encoding: 79 79 52
Width: 639
GlyphClass: 2
Flags: W
LayerCount: 2
Fore
SplineSet
319 496 m 0,0,1
 263 496 263 496 215.5 468 c 128,-1,2
 168 440 168 440 140.5 392.5 c 128,-1,3
 113 345 113 345 113 289 c 0,4,5
 113 204 113 204 173.5 143.5 c 128,-1,6
 234 83 234 83 319.5 83 c 128,-1,7
 405 83 405 83 465.5 143.5 c 128,-1,8
 526 204 526 204 526 289.5 c 128,-1,9
 526 375 526 375 465.5 435.5 c 128,-1,10
 405 496 405 496 319 496 c 0,0,1
30 289 m 128,-1,12
 30 409 30 409 114.5 494 c 128,-1,13
 199 579 199 579 319 579 c 0,14,15
 398 579 398 579 464.5 540 c 128,-1,16
 531 501 531 501 570 434.5 c 128,-1,17
 609 368 609 368 609 289 c 0,18,19
 609 169 609 169 524 84.5 c 128,-1,20
 439 0 439 0 319 0 c 128,-1,21
 199 0 199 0 114.5 84.5 c 128,-1,11
 30 169 30 169 30 289 c 128,-1,12
EndSplineSet
Validated: 1
EndChar

StartChar: P
Encoding: 80 80 53
Width: 515
GlyphClass: 2
Flags: W
LayerCount: 2
Fore
SplineSet
319 579 m 2,0,1
 388 579 388 579 436.5 530.5 c 128,-1,2
 485 482 485 482 485 413.5 c 128,-1,3
 485 345 485 345 436.5 296.5 c 128,-1,4
 388 248 388 248 319 248 c 2,5,-1
 113 248 l 1,6,-1
 113 0 l 1,7,-1
 30 0 l 1,8,-1
 30 579 l 1,9,-1
 319 579 l 2,0,1
319 331 m 2,10,11
 342 331 342 331 361 342 c 128,-1,12
 380 353 380 353 391 372 c 128,-1,13
 402 391 402 391 402 413 c 0,14,15
 402 447 402 447 377.5 471.5 c 128,-1,16
 353 496 353 496 319 496 c 2,17,-1
 113 496 l 1,18,-1
 113 331 l 1,19,-1
 319 331 l 2,10,11
EndSplineSet
Validated: 1
EndChar

StartChar: Q
Encoding: 81 81 54
Width: 639
GlyphClass: 2
Flags: W
LayerCount: 2
Fore
SplineSet
609 289 m 0,0,1
 609 169 609 169 524 85 c 1,2,-1
 609 0 l 1,3,-1
 491 0 l 1,4,-1
 457 35 l 1,5,6
 393 0 393 0 319 0 c 0,7,8
 199 0 199 0 114.5 84.5 c 128,-1,9
 30 169 30 169 30 289 c 128,-1,10
 30 409 30 409 114.5 494 c 128,-1,11
 199 579 199 579 319 579 c 0,12,13
 398 579 398 579 464.5 540 c 128,-1,14
 531 501 531 501 570 434.5 c 128,-1,15
 609 368 609 368 609 289 c 0,0,1
436 173 m 1,16,-1
 465 143 l 1,17,18
 526 204 526 204 526 289.5 c 128,-1,19
 526 375 526 375 465.5 435.5 c 128,-1,20
 405 496 405 496 319.5 496 c 128,-1,21
 234 496 234 496 173.5 435.5 c 128,-1,22
 113 375 113 375 113 289.5 c 128,-1,23
 113 204 113 204 173.5 143.5 c 128,-1,24
 234 83 234 83 319 83 c 0,25,26
 358 83 358 83 394 97 c 1,27,-1
 319 173 l 1,28,-1
 436 173 l 1,16,-1
EndSplineSet
Validated: 1
EndChar

StartChar: R
Encoding: 82 82 55
Width: 515
GlyphClass: 2
Flags: W
LayerCount: 2
Fore
SplineSet
319 248 m 2,0,-1
 231 248 l 1,1,-1
 479 0 l 1,2,-1
 362 0 l 1,3,-1
 114 248 l 1,4,-1
 113 248 l 1,5,-1
 113 0 l 1,6,-1
 30 0 l 1,7,-1
 30 579 l 1,8,-1
 319 579 l 2,9,10
 388 579 388 579 436.5 530.5 c 128,-1,11
 485 482 485 482 485 413.5 c 128,-1,12
 485 345 485 345 436.5 296.5 c 128,-1,13
 388 248 388 248 319 248 c 2,0,-1
113 496 m 1,14,-1
 113 331 l 1,15,-1
 319 331 l 2,16,17
 353 331 353 331 377.5 355 c 128,-1,18
 402 379 402 379 402 413 c 128,-1,19
 402 447 402 447 377.5 471.5 c 128,-1,20
 353 496 353 496 319 496 c 2,21,-1
 113 496 l 1,14,-1
EndSplineSet
Validated: 1
EndChar

StartChar: S
Encoding: 83 83 56
Width: 400
GlyphClass: 2
Flags: W
LayerCount: 2
Fore
SplineSet
319 282 m 0,0,1
 369 234 369 234 369 165.5 c 128,-1,2
 369 97 369 97 319.5 48.5 c 128,-1,3
 270 0 270 0 199.5 0 c 128,-1,4
 129 0 129 0 80 49 c 0,5,6
 39 89 39 89 31 145 c 1,7,-1
 116 145 l 1,8,9
 122 123 122 123 138 107 c 0,10,11
 164 83 164 83 199.5 83 c 128,-1,12
 235 83 235 83 260.5 107 c 128,-1,13
 286 131 286 131 286 165.5 c 128,-1,14
 286 200 286 200 260.5 224 c 128,-1,15
 235 248 235 248 200 248 c 2,16,-1
 199 248 l 2,17,18
 187 248 187 248 173 250 c 0,19,20
 168 251 168 251 167 251 c 0,21,22
 164 252 164 252 157 253 c 0,23,24
 152 255 152 255 152 255 c 2,25,26
 148 256 148 256 141 258 c 0,27,28
 139 259 139 259 137 260 c 0,29,30
 133 261 133 261 126 264 c 0,31,32
 125 265 125 265 124 266 c 0,33,34
 118 268 118 268 113 272 c 0,35,36
 111 272 111 272 111 273 c 0,37,38
 105 276 105 276 100 280 c 0,39,40
 99 280 99 280 99 280 c 129,-1,41
 99 280 99 280 99 281 c 0,42,43
 93 285 93 285 88 289 c 0,44,45
 82 294 82 294 80 296 c 0,46,47
 30 345 30 345 30 413.5 c 128,-1,48
 30 482 30 482 80 530.5 c 128,-1,49
 130 579 130 579 200 579 c 128,-1,50
 270 579 270 579 319 530 c 0,51,52
 360 490 360 490 368 434 c 1,53,-1
 283 434 l 1,54,55
 277 456 277 456 261 471 c 0,56,57
 235 496 235 496 199.5 496 c 128,-1,58
 164 496 164 496 138.5 471.5 c 128,-1,59
 113 447 113 447 113 413 c 128,-1,60
 113 379 113 379 138.5 355 c 128,-1,61
 164 331 164 331 200 331 c 0,62,63
 208 331 208 331 217 330 c 2,64,65
 217 330 217 330 218 330 c 128,-1,66
 219 330 219 330 219 330 c 2,67,68
 226 329 226 329 233 328 c 0,69,70
 234 327 234 327 235 327 c 256,71,72
 236 327 236 327 237 327 c 0,73,74
 244 325 244 325 249 324 c 0,75,76
 250 323 250 323 251.5 322.5 c 128,-1,77
 253 322 253 322 253 322 c 2,78,79
 259 320 259 320 264 318 c 0,80,81
 265 318 265 318 269 316 c 0,82,83
 274 314 274 314 278 312 c 256,84,85
 282 310 282 310 283 309 c 0,86,87
 288 306 288 306 292 304 c 0,88,89
 294 302 294 302 297 301 c 0,90,91
 300 299 300 299 305 295 c 2,92,93
 305 295 305 295 306.5 293.5 c 128,-1,94
 308 292 308 292 309 292 c 1,95,96
 309 291 309 291 310 290.5 c 128,-1,97
 311 290 311 290 312 289 c 2,98,-1
 311 289 l 1,99,100
 318 284 318 284 319 282 c 0,0,1
EndSplineSet
Validated: 1
EndChar

StartChar: T
Encoding: 84 84 57
Width: 494
GlyphClass: 2
Flags: W
LayerCount: 2
Fore
SplineSet
464 579 m 1,0,-1
 464 496 l 1,1,-1
 288 496 l 1,2,-1
 288 0 l 1,3,-1
 206 0 l 1,4,-1
 206 496 l 1,5,-1
 30 496 l 1,6,-1
 30 579 l 1,7,-1
 464 579 l 1,0,-1
EndSplineSet
Validated: 1
EndChar

StartChar: U
Encoding: 85 85 58
Width: 577
GlyphClass: 2
Flags: W
LayerCount: 2
Fore
SplineSet
464 577 m 1,0,-1
 547 577 l 1,1,-1
 547 260 l 1,2,-1
 547 259 l 1,3,-1
 547 258 l 2,4,5
 547 152 547 152 471 76 c 128,-1,6
 395 0 395 0 288.5 0 c 128,-1,7
 182 0 182 0 106 76 c 128,-1,8
 30 152 30 152 30 258 c 2,9,10
 30 258 30 258 30 259 c 2,11,-1
 30 260 l 1,12,-1
 30 577 l 1,13,-1
 113 577 l 1,14,-1
 113 260 l 1,15,-1
 113 259 l 1,16,-1
 113 258 l 2,17,18
 113 186 113 186 164.5 134.5 c 128,-1,19
 216 83 216 83 288 83 c 0,20,21
 336 83 336 83 376.5 106.5 c 128,-1,22
 417 130 417 130 440.5 170.5 c 128,-1,23
 464 211 464 211 464 258 c 0,24,25
 464 259 464 259 464 259.5 c 128,-1,26
 464 260 464 260 464 260 c 1,27,-1
 464 577 l 1,0,-1
EndSplineSet
Validated: 1
EndChar

StartChar: V
Encoding: 86 86 59
Width: 557
GlyphClass: 2
Flags: W
LayerCount: 2
Fore
SplineSet
470 579 m 1,0,-1
 562 579 l 1,1,-1
 278 0 l 1,2,-1
 -6 579 l 1,3,-1
 86 579 l 1,4,-1
 278 188 l 1,5,-1
 470 579 l 1,0,-1
EndSplineSet
Validated: 1
AlternateSubs2: "'aalt' +MFkweTBmMG51cE9TW1cweDBuMKIwrzC7MLkA in +MOkwxjDzZYdbVwAA lookup 0 +MLUw1jDGMPww1jDr" V.alt1 V.alt2
EndChar

StartChar: W
Encoding: 87 87 60
Width: 958
GlyphClass: 2
Flags: W
LayerCount: 2
Fore
SplineSet
955 579 m 1,0,-1
 671 0 l 1,1,-1
 479 390 l 1,2,-1
 287 0 l 1,3,-1
 3 579 l 1,4,-1
 95 579 l 1,5,-1
 287 188 l 1,6,-1
 433 484 l 1,7,-1
 433 485 l 1,8,-1
 479 579 l 1,9,-1
 525 485 l 1,10,-1
 671 188 l 1,11,-1
 863 579 l 1,12,-1
 955 579 l 1,0,-1
EndSplineSet
Validated: 1
EndChar

StartChar: X
Encoding: 88 88 61
Width: 598
GlyphClass: 2
Flags: W
LayerCount: 2
Fore
SplineSet
568 579 m 1,0,-1
 351 289 l 1,1,-1
 568 0 l 1,2,-1
 464 0 l 1,3,-1
 299 220 l 1,4,-1
 134 0 l 1,5,-1
 30 0 l 1,6,-1
 247 289 l 1,7,-1
 30 579 l 1,8,-1
 134 579 l 1,9,-1
 299 358 l 1,10,-1
 464 579 l 1,11,-1
 568 579 l 1,0,-1
EndSplineSet
Validated: 1
EndChar

StartChar: Y
Encoding: 89 89 62
Width: 598
GlyphClass: 2
Flags: W
LayerCount: 2
Fore
SplineSet
568 579 m 1,0,-1
 340 275 l 1,1,-1
 340 0 l 1,2,-1
 257 0 l 1,3,-1
 257 275 l 1,4,-1
 30 579 l 1,5,-1
 134 579 l 1,6,-1
 299 358 l 1,7,-1
 464 579 l 1,8,-1
 568 579 l 1,0,-1
EndSplineSet
Validated: 1
Substitution2: "'aalt' +MFkweTBmMG51cE9TW1cweDBuMKIwrzC7MLkA in +MOkwxjDzZYdbVwAA lookup 1 +MLUw1jDGMPww1jDr" Y.alt1
EndChar

StartChar: Z
Encoding: 90 90 63
Width: 598
GlyphClass: 2
Flags: W
LayerCount: 2
Fore
SplineSet
30 579 m 1,0,-1
 568 579 l 1,1,-1
 196 83 l 1,2,-1
 568 83 l 1,3,-1
 568 0 l 1,4,-1
 30 0 l 1,5,-1
 402 496 l 1,6,-1
 30 496 l 1,7,-1
 30 579 l 1,0,-1
EndSplineSet
Validated: 1
EndChar

StartChar: bracketleft
Encoding: 91 91 64
Width: 247
GlyphClass: 2
Flags: W
LayerCount: 2
Fore
SplineSet
216 537 m 1,0,-1
 113 537 l 1,1,-1
 113 41 l 1,2,-1
 216 41 l 1,3,-1
 216 -41 l 1,4,-1
 30 -41 l 1,5,-1
 30 620 l 1,6,-1
 216 620 l 1,7,-1
 216 537 l 1,0,-1
EndSplineSet
Validated: 1
EndChar

StartChar: backslash
Encoding: 92 92 65
Width: 443
GlyphClass: 2
Flags: W
LayerCount: 2
Fore
SplineSet
123 579 m 1,0,-1
 412 0 l 1,1,-1
 319 0 l 1,2,-1
 30 579 l 1,3,-1
 123 579 l 1,0,-1
EndSplineSet
Validated: 1
EndChar

StartChar: bracketright
Encoding: 93 93 66
Width: 247
GlyphClass: 2
Flags: W
LayerCount: 2
Fore
SplineSet
30 627 m 1,0,-1
 216 627 l 1,1,-1
 216 -35 l 1,2,-1
 30 -35 l 1,3,-1
 30 48 l 1,4,-1
 133 48 l 1,5,-1
 133 544 l 1,6,-1
 30 544 l 1,7,-1
 30 627 l 1,0,-1
EndSplineSet
Validated: 1
EndChar

StartChar: underscore
Encoding: 95 95 67
Width: 639
GlyphClass: 2
Flags: W
LayerCount: 2
Fore
SplineSet
609 -117 m 1,0,-1
 30 -117 l 1,1,-1
 30 -34 l 1,2,-1
 609 -34 l 1,3,-1
 609 -117 l 1,0,-1
EndSplineSet
Validated: 1
EndChar

StartChar: grave
Encoding: 96 96 68
Width: 226
GlyphClass: 2
Flags: W
LayerCount: 2
Fore
SplineSet
103 98 m 1,0,-1
 196 5 l 1,1,-1
 123 5 l 1,2,-1
 30 98 l 1,3,-1
 103 98 l 1,0,-1
EndSplineSet
Validated: 1
EndChar

StartChar: a
Encoding: 97 97 69
Width: 494
GlyphClass: 2
Flags: W
LayerCount: 2
Fore
SplineSet
381 434 m 1,0,-1
 464 434 l 1,1,-1
 464 0 l 1,2,-1
 381 0 l 1,3,-1
 381 47 l 1,4,5
 322 0 322 0 247 0 c 0,6,7
 157 0 157 0 93.5 63.5 c 128,-1,8
 30 127 30 127 30 217 c 128,-1,9
 30 307 30 307 93.5 370.5 c 128,-1,10
 157 434 157 434 247 434 c 0,11,12
 322 434 322 434 381 387 c 1,13,-1
 381 434 l 1,0,-1
247 83 m 0,14,15
 283 83 283 83 314 101 c 128,-1,16
 345 119 345 119 363 150 c 128,-1,17
 381 181 381 181 381 217 c 0,18,19
 381 272 381 272 341.5 311.5 c 128,-1,20
 302 351 302 351 247 351 c 128,-1,21
 192 351 192 351 152.5 311.5 c 128,-1,22
 113 272 113 272 113 217 c 128,-1,23
 113 162 113 162 152.5 122.5 c 128,-1,24
 192 83 192 83 247 83 c 0,14,15
EndSplineSet
Validated: 1
Substitution2: "'aalt' +MFkweTBmMG51cE9TW1cweDBuMKIwrzC7MLkA in +MOkwxjDzZYdbVwAA lookup 1 +MLUw1jDGMPww1jDr" a.alt1
EndChar

StartChar: b
Encoding: 98 98 70
Width: 494
GlyphClass: 2
Flags: W
LayerCount: 2
Fore
SplineSet
247 434 m 0,0,1
 337 434 337 434 400.5 370.5 c 128,-1,2
 464 307 464 307 464 217 c 128,-1,3
 464 127 464 127 400.5 63.5 c 128,-1,4
 337 0 337 0 247 0 c 0,5,6
 172 0 172 0 113 47 c 1,7,-1
 113 0 l 1,8,-1
 30 0 l 1,9,-1
 30 579 l 1,10,-1
 113 579 l 1,11,-1
 113 387 l 1,12,13
 172 434 172 434 247 434 c 0,0,1
247 83 m 128,-1,15
 302 83 302 83 341.5 122.5 c 128,-1,16
 381 162 381 162 381 217 c 128,-1,17
 381 272 381 272 341.5 311.5 c 128,-1,18
 302 351 302 351 247 351 c 128,-1,19
 192 351 192 351 152.5 311.5 c 128,-1,20
 113 272 113 272 113 217 c 128,-1,21
 113 162 113 162 152.5 122.5 c 128,-1,14
 192 83 192 83 247 83 c 128,-1,15
EndSplineSet
Validated: 1
EndChar

StartChar: c
Encoding: 99 99 71
Width: 431
GlyphClass: 2
Flags: W
LayerCount: 2
Fore
SplineSet
247 83 m 128,-1,1
 302 83 302 83 342 122 c 1,2,-1
 400 64 l 1,3,4
 337 0 337 0 247 0 c 128,-1,5
 157 0 157 0 93.5 63.5 c 128,-1,6
 30 127 30 127 30 217 c 128,-1,7
 30 307 30 307 93.5 370.5 c 128,-1,8
 157 434 157 434 247 434 c 128,-1,9
 337 434 337 434 400 370 c 1,10,-1
 342 312 l 1,11,12
 302 351 302 351 247 351 c 128,-1,13
 192 351 192 351 152.5 311.5 c 128,-1,14
 113 272 113 272 113 217 c 128,-1,15
 113 162 113 162 152.5 122.5 c 128,-1,0
 192 83 192 83 247 83 c 128,-1,1
EndSplineSet
Validated: 1
EndChar

StartChar: d
Encoding: 100 100 72
Width: 494
GlyphClass: 2
Flags: W
LayerCount: 2
Fore
SplineSet
381 579 m 1,0,-1
 464 579 l 1,1,-1
 464 0 l 1,2,-1
 381 0 l 1,3,-1
 381 47 l 1,4,5
 322 0 322 0 247 0 c 0,6,7
 157 0 157 0 93.5 63.5 c 128,-1,8
 30 127 30 127 30 217 c 128,-1,9
 30 307 30 307 93.5 370.5 c 128,-1,10
 157 434 157 434 247 434 c 0,11,12
 322 434 322 434 381 387 c 1,13,-1
 381 579 l 1,0,-1
247 83 m 128,-1,15
 302 83 302 83 341.5 122.5 c 128,-1,16
 381 162 381 162 381 217 c 0,17,18
 381 244 381 244 370.5 269 c 128,-1,19
 360 294 360 294 342 312 c 128,-1,20
 324 330 324 330 299 340.5 c 128,-1,21
 274 351 274 351 247 351 c 0,22,23
 192 351 192 351 152.5 311.5 c 128,-1,24
 113 272 113 272 113 217 c 128,-1,25
 113 162 113 162 152.5 122.5 c 128,-1,14
 192 83 192 83 247 83 c 128,-1,15
EndSplineSet
Validated: 1
EndChar

StartChar: e
Encoding: 101 101 73
Width: 494
GlyphClass: 2
Flags: W
LayerCount: 2
Fore
SplineSet
459 173 m 1,0,-1
 121 173 l 1,1,2
 130 147 130 147 148.5 126.5 c 128,-1,3
 167 106 167 106 192.5 94.5 c 128,-1,4
 218 83 218 83 247 83 c 0,5,6
 285 83 285 83 317 103 c 1,7,-1
 376 43 l 1,8,9
 319 0 319 0 247 0 c 0,10,11
 157 0 157 0 93.5 63.5 c 128,-1,12
 30 127 30 127 30 217 c 128,-1,13
 30 307 30 307 93.5 370.5 c 128,-1,14
 157 434 157 434 247 434 c 128,-1,15
 337 434 337 434 400.5 370.5 c 128,-1,16
 464 307 464 307 464 217 c 0,17,18
 464 195 464 195 459 173 c 1,0,-1
119 255 m 1,19,-1
 375 255 l 1,20,21
 369 276 369 276 356.5 293.5 c 128,-1,22
 344 311 344 311 327.5 324 c 128,-1,23
 311 337 311 337 290 344 c 128,-1,24
 269 351 269 351 247 351 c 0,25,26
 202 351 202 351 166.5 324 c 128,-1,27
 131 297 131 297 119 255 c 1,19,-1
EndSplineSet
Validated: 1
Substitution2: "'aalt' +MFkweTBmMG51cE9TW1cweDBuMKIwrzC7MLkA in +MOkwxjDzZYdbVwAA lookup 1 +MLUw1jDGMPww1jDr" e.alt1
EndChar

StartChar: f
Encoding: 102 102 74
Width: 309
GlyphClass: 2
Flags: W
LayerCount: 2
Fore
SplineSet
186 579 m 1,0,-1
 185 579 l 1,1,-1
 185 569 l 1,2,3
 185 569 185 569 185 568 c 2,4,5
 185 568 185 568 185 475 c 1,6,-1
 319 475 l 1,7,-1
 319 393 l 1,8,-1
 185 393 l 1,9,-1
 185 0 l 1,10,-1
 102 0 l 1,11,-1
 102 393 l 1,12,-1
 30 393 l 1,13,-1
 30 475 l 1,14,-1
 102 475 l 1,15,-1
 102 579 l 1,16,-1
 103 579 l 1,17,18
 107 639 107 639 151.5 681 c 128,-1,19
 196 723 196 723 257 723 c 0,20,21
 298 723 298 723 332.5 704 c 128,-1,22
 367 685 367 685 388 652 c 128,-1,23
 409 619 409 619 412 579 c 1,24,-1
 329 579 l 1,25,26
 325 605 325 605 304.5 622.5 c 128,-1,27
 284 640 284 640 257 640 c 0,28,29
 240 640 240 640 224.5 632 c 128,-1,30
 209 624 209 624 199 610 c 128,-1,31
 189 596 189 596 186 579 c 1,0,-1
EndSplineSet
Validated: 1
EndChar

StartChar: g
Encoding: 103 103 75
Width: 494
GlyphClass: 2
Flags: W
LayerCount: 2
Fore
SplineSet
247 83 m 128,-1,1
 302 83 302 83 341.5 122.5 c 128,-1,2
 381 162 381 162 381 217 c 128,-1,3
 381 272 381 272 341.5 311.5 c 128,-1,4
 302 351 302 351 247 351 c 128,-1,5
 192 351 192 351 152.5 311.5 c 128,-1,6
 113 272 113 272 113 217 c 128,-1,7
 113 162 113 162 152.5 122.5 c 128,-1,0
 192 83 192 83 247 83 c 128,-1,1
247 434 m 128,-1,9
 337 434 337 434 400.5 370.5 c 128,-1,10
 464 307 464 307 464 217 c 2,11,-1
 464 -72 l 2,12,13
 464 -162 464 -162 400.5 -225.5 c 128,-1,14
 337 -289 337 -289 247 -289 c 128,-1,15
 157 -289 157 -289 93.5 -225.5 c 128,-1,16
 30 -162 30 -162 30 -72 c 1,17,-1
 113 -72 l 1,18,19
 113 -128 113 -128 152.5 -167 c 128,-1,20
 192 -206 192 -206 247 -206 c 128,-1,21
 302 -206 302 -206 341.5 -167 c 128,-1,22
 381 -128 381 -128 381 -72 c 2,23,-1
 381 47 l 1,24,25
 321 0 321 0 247 0 c 0,26,27
 157 0 157 0 93.5 63.5 c 128,-1,28
 30 127 30 127 30 217 c 128,-1,29
 30 307 30 307 93.5 370.5 c 128,-1,8
 157 434 157 434 247 434 c 128,-1,9
EndSplineSet
Validated: 1
EndChar

StartChar: h
Encoding: 104 104 76
Width: 495
GlyphClass: 2
Flags: W
LayerCount: 2
Fore
SplineSet
247 434 m 0,0,1
 337 434 337 434 400.5 370.5 c 128,-1,2
 464 307 464 307 464 217 c 2,3,-1
 464 0 l 1,4,-1
 381 0 l 1,5,-1
 381 217 l 2,6,7
 381 272 381 272 341.5 311.5 c 128,-1,8
 302 351 302 351 247 351 c 128,-1,9
 192 351 192 351 152.5 311.5 c 128,-1,10
 113 272 113 272 113 217 c 2,11,-1
 113 0 l 1,12,-1
 30 0 l 1,13,-1
 30 579 l 1,14,-1
 113 579 l 1,15,-1
 113 387 l 1,16,17
 172 434 172 434 247 434 c 0,0,1
EndSplineSet
Validated: 1
EndChar

StartChar: i
Encoding: 105 105 77
Width: 143
GlyphClass: 2
Flags: W
LayerCount: 2
Fore
SplineSet
113 0 m 1,0,-1
 30 0 l 1,1,-1
 30 434 l 1,2,-1
 113 434 l 1,3,-1
 113 0 l 1,0,-1
71 496 m 0,4,5
 54 496 54 496 42 508 c 128,-1,6
 30 520 30 520 30 537 c 128,-1,7
 30 554 30 554 42 566.5 c 128,-1,8
 54 579 54 579 71.5 579 c 128,-1,9
 89 579 89 579 101 566.5 c 128,-1,10
 113 554 113 554 113 537 c 0,11,12
 113 526 113 526 107.5 516.5 c 128,-1,13
 102 507 102 507 92.5 501.5 c 128,-1,14
 83 496 83 496 71 496 c 0,4,5
EndSplineSet
Validated: 1
EndChar

StartChar: j
Encoding: 106 106 78
Width: 216
GlyphClass: 2
Flags: W
LayerCount: 2
Fore
SplineSet
102 145 m 2,0,-1
 102 434 l 1,1,-1
 185 434 l 1,2,-1
 185 145 l 2,3,4
 185 62 185 62 142.5 -6.5 c 128,-1,5
 100 -75 100 -75 30 -112 c 1,6,-1
 30 -12 l 1,7,8
 102 50 102 50 102 145 c 2,0,-1
144 496 m 128,-1,10
 127 496 127 496 114.5 508 c 128,-1,11
 102 520 102 520 102 537 c 0,12,13
 102 546 102 546 105.5 553.5 c 128,-1,14
 109 561 109 561 114.5 566.5 c 128,-1,15
 120 572 120 572 127.5 575.5 c 128,-1,16
 135 579 135 579 144 579 c 0,17,18
 155 579 155 579 164.5 573.5 c 128,-1,19
 174 568 174 568 179.5 558 c 128,-1,20
 185 548 185 548 185 537 c 0,21,22
 185 520 185 520 173 508 c 128,-1,9
 161 496 161 496 144 496 c 128,-1,10
EndSplineSet
Validated: 1
Substitution2: "'aalt' +MFkweTBmMG51cE9TW1cweDBuMKIwrzC7MLkA in +MOkwxjDzZYdbVwAA lookup 1 +MLUw1jDGMPww1jDr" j.alt1
EndChar

StartChar: k
Encoding: 107 107 79
Width: 413
GlyphClass: 2
Flags: W
LayerCount: 2
Fore
SplineSet
382 433 m 1,0,-1
 134 216 l 1,1,-1
 381 0 l 1,2,-1
 255 0 l 1,3,-1
 113 125 l 1,4,-1
 113 0 l 1,5,-1
 30 0 l 1,6,-1
 30 578 l 1,7,-1
 113 578 l 1,8,-1
 113 308 l 1,9,-1
 256 433 l 1,10,-1
 382 433 l 1,0,-1
EndSplineSet
Validated: 1
EndChar

StartChar: l
Encoding: 108 108 80
Width: 143
GlyphClass: 2
Flags: W
LayerCount: 2
Fore
SplineSet
113 0 m 1,0,-1
 30 0 l 1,1,-1
 30 579 l 1,2,-1
 113 579 l 1,3,-1
 113 0 l 1,0,-1
EndSplineSet
Validated: 1
Substitution2: "'aalt' +MFkweTBmMG51cE9TW1cweDBuMKIwrzC7MLkA in +MOkwxjDzZYdbVwAA lookup 1 +MLUw1jDGMPww1jDr" l.alt1
EndChar

StartChar: m
Encoding: 109 109 81
Width: 846
GlyphClass: 2
Flags: W
LayerCount: 2
Fore
SplineSet
815 217 m 2,0,1
 815 217 815 217 815 0 c 1,2,-1
 732 0 l 1,3,-1
 732 217 l 2,4,5
 732 253 732 253 714 284 c 128,-1,6
 696 315 696 315 665 333 c 128,-1,7
 634 351 634 351 598 351 c 128,-1,8
 562 351 562 351 531 333 c 128,-1,9
 500 315 500 315 482 284.5 c 128,-1,10
 464 254 464 254 464 218 c 2,11,12
 464 218 464 218 464 217 c 2,13,-1
 464 0 l 1,14,-1
 381 0 l 1,15,-1
 381 217 l 1,16,-1
 381 217 l 1,17,-1
 381 218 l 2,18,19
 381 273 381 273 341.5 312 c 128,-1,20
 302 351 302 351 247 351 c 256,21,22
 192 351 192 351 152.5 311.5 c 128,-1,23
 113 272 113 272 113 217 c 2,24,-1
 113 0 l 1,25,-1
 30 0 l 1,26,-1
 30 217 l 2,27,28
 30 307 30 307 93.5 370.5 c 128,-1,29
 157 434 157 434 247 434 c 0,30,31
 268 434 268 434 289 430 c 128,-1,32
 310 426 310 426 328.5 418 c 128,-1,33
 347 410 347 410 364 399 c 128,-1,34
 381 388 381 388 396 374.5 c 128,-1,35
 411 361 411 361 422 344 c 1,36,37
 453 386 453 386 499 410 c 128,-1,38
 545 434 545 434 598 434 c 0,39,40
 657 434 657 434 707 405 c 128,-1,41
 757 376 757 376 786 326 c 128,-1,42
 815 276 815 276 815 217 c 2,0,1
EndSplineSet
Validated: 1
EndChar

StartChar: n
Encoding: 110 110 82
Width: 495
GlyphClass: 2
Flags: W
LayerCount: 2
Fore
SplineSet
464 217 m 2,0,1
 464 217 464 217 464 0 c 1,2,-1
 381 0 l 1,3,-1
 381 217 l 2,4,5
 381 272 381 272 341.5 311.5 c 128,-1,6
 302 351 302 351 247 351 c 128,-1,7
 192 351 192 351 152.5 311.5 c 128,-1,8
 113 272 113 272 113 217 c 2,9,-1
 113 0 l 1,10,-1
 30 0 l 1,11,-1
 30 217 l 2,12,13
 30 307 30 307 93.5 370.5 c 128,-1,14
 157 434 157 434 247 434 c 0,15,16
 306 434 306 434 356 405 c 128,-1,17
 406 376 406 376 435 326 c 128,-1,18
 464 276 464 276 464 217 c 2,0,1
EndSplineSet
Validated: 1
EndChar

StartChar: o
Encoding: 111 111 83
Width: 494
GlyphClass: 2
Flags: W
LayerCount: 2
Fore
SplineSet
247 434 m 128,-1,1
 337 434 337 434 400.5 370.5 c 128,-1,2
 464 307 464 307 464 217 c 128,-1,3
 464 127 464 127 400.5 63.5 c 128,-1,4
 337 0 337 0 247 0 c 128,-1,5
 157 0 157 0 93.5 63.5 c 128,-1,6
 30 127 30 127 30 217 c 128,-1,7
 30 307 30 307 93.5 370.5 c 128,-1,0
 157 434 157 434 247 434 c 128,-1,1
247 83 m 128,-1,9
 302 83 302 83 341.5 122.5 c 128,-1,10
 381 162 381 162 381 217 c 128,-1,11
 381 272 381 272 341.5 311.5 c 128,-1,12
 302 351 302 351 247 351 c 128,-1,13
 192 351 192 351 152.5 311.5 c 128,-1,14
 113 272 113 272 113 217 c 128,-1,15
 113 162 113 162 152.5 122.5 c 128,-1,8
 192 83 192 83 247 83 c 128,-1,9
EndSplineSet
Validated: 1
EndChar

StartChar: p
Encoding: 112 112 84
Width: 494
GlyphClass: 2
Flags: W
LayerCount: 2
Fore
SplineSet
247 434 m 0,0,1
 306 434 306 434 356 405 c 128,-1,2
 406 376 406 376 435 326 c 128,-1,3
 464 276 464 276 464 217 c 0,4,5
 464 127 464 127 400.5 63.5 c 128,-1,6
 337 0 337 0 247 0 c 0,7,8
 172 0 172 0 113 47 c 1,9,-1
 113 -289 l 1,10,-1
 30 -289 l 1,11,-1
 30 217 l 2,12,13
 30 307 30 307 93.5 370.5 c 128,-1,14
 157 434 157 434 247 434 c 0,0,1
247 83 m 128,-1,16
 302 83 302 83 341.5 122.5 c 128,-1,17
 381 162 381 162 381 217 c 0,18,19
 381 244 381 244 370.5 269 c 128,-1,20
 360 294 360 294 342 312 c 128,-1,21
 324 330 324 330 299 340.5 c 128,-1,22
 274 351 274 351 247 351 c 0,23,24
 192 351 192 351 152.5 311.5 c 128,-1,25
 113 272 113 272 113 217 c 128,-1,26
 113 162 113 162 152.5 122.5 c 128,-1,15
 192 83 192 83 247 83 c 128,-1,16
EndSplineSet
Validated: 1
EndChar

StartChar: q
Encoding: 113 113 85
Width: 494
GlyphClass: 2
Flags: W
LayerCount: 2
Fore
SplineSet
247 434 m 128,-1,1
 337 434 337 434 400.5 370.5 c 128,-1,2
 464 307 464 307 464 217 c 2,3,-1
 464 -289 l 1,4,-1
 381 -289 l 1,5,-1
 381 47 l 1,6,7
 322 0 322 0 247 0 c 0,8,9
 157 0 157 0 93.5 63.5 c 128,-1,10
 30 127 30 127 30 217 c 128,-1,11
 30 307 30 307 93.5 370.5 c 128,-1,0
 157 434 157 434 247 434 c 128,-1,1
247 83 m 0,12,13
 302 83 302 83 341.5 122.5 c 128,-1,14
 381 162 381 162 381 217 c 128,-1,15
 381 272 381 272 341.5 311.5 c 128,-1,16
 302 351 302 351 247 351 c 128,-1,17
 192 351 192 351 152.5 311.5 c 128,-1,18
 113 272 113 272 113 217 c 0,19,20
 113 181 113 181 131 150 c 128,-1,21
 149 119 149 119 180 101 c 128,-1,22
 211 83 211 83 247 83 c 0,12,13
EndSplineSet
Validated: 1
EndChar

StartChar: r
Encoding: 114 114 86
Width: 205
GlyphClass: 2
Flags: W
LayerCount: 2
Fore
SplineSet
30 255 m 2,0,1
 30 298 30 298 49 335.5 c 128,-1,2
 68 373 68 373 101 398.5 c 128,-1,3
 134 424 134 424 175 432 c 1,4,-1
 175 346 l 1,5,6
 148 335 148 335 131 311.5 c 128,-1,7
 114 288 114 288 113 259 c 2,8,-1
 113 258 l 1,9,10
 113 258 113 258 113 257 c 256,11,12
 113 256 113 256 113 255 c 128,-1,13
 113 254 113 254 113 253 c 128,-1,14
 113 252 113 252 113 252 c 1,15,-1
 113 103 l 1,16,-1
 113 0 l 1,17,-1
 30 0 l 1,18,-1
 30 255 l 2,0,1
EndSplineSet
Validated: 1
EndChar

StartChar: s
Encoding: 115 115 87
Width: 319
GlyphClass: 2
Flags: W
LayerCount: 2
Fore
SplineSet
159 259 m 1,0,1
 213 259 213 259 251 221 c 128,-1,2
 289 183 289 183 289 129.5 c 128,-1,3
 289 76 289 76 251 38 c 128,-1,4
 213 0 213 0 159.5 0 c 128,-1,5
 106 0 106 0 68 38 c 128,-1,6
 30 76 30 76 30 129 c 1,7,-1
 113 129 l 1,8,9
 113 110 113 110 126.5 96.5 c 128,-1,10
 140 83 140 83 159 83 c 0,11,12
 172 83 172 83 182.5 89 c 128,-1,13
 193 95 193 95 199.5 106 c 128,-1,14
 206 117 206 117 206 129 c 0,15,16
 206 149 206 149 192.5 162.5 c 128,-1,17
 179 176 179 176 159 176 c 1,18,-1
 159 175 l 1,19,20
 124 175 124 175 94.5 192.5 c 128,-1,21
 65 210 65 210 47.5 239.5 c 128,-1,22
 30 269 30 269 30 305 c 0,23,24
 30 358 30 358 68 396 c 128,-1,25
 106 434 106 434 159 434 c 0,26,27
 186 434 186 434 210 423.5 c 128,-1,28
 234 413 234 413 251 396 c 128,-1,29
 268 379 268 379 278.5 355 c 128,-1,30
 289 331 289 331 289 305 c 1,31,-1
 206 305 l 1,32,33
 206 324 206 324 192.5 337.5 c 128,-1,34
 179 351 179 351 159.5 351 c 128,-1,35
 140 351 140 351 126.5 337.5 c 128,-1,36
 113 324 113 324 113 304.5 c 128,-1,37
 113 285 113 285 126.5 271.5 c 128,-1,38
 140 258 140 258 159 258 c 1,39,-1
 159 259 l 1,0,1
EndSplineSet
Validated: 1
EndChar

StartChar: t
Encoding: 116 116 88
Width: 350
GlyphClass: 2
Flags: W
LayerCount: 2
Fore
SplineSet
132 0 m 1,0,-1
 132 351 l 1,1,-1
 30 351 l 1,2,-1
 30 434 l 1,3,-1
 133 434 l 1,4,-1
 133 579 l 1,5,-1
 216 579 l 1,6,-1
 216 434 l 1,7,-1
 319 434 l 1,8,-1
 319 351 l 1,9,-1
 216 351 l 1,10,-1
 216 0 l 1,11,-1
 132 0 l 1,0,-1
EndSplineSet
Validated: 1
Substitution2: "'aalt' +MFkweTBmMG51cE9TW1cweDBuMKIwrzC7MLkA in +MOkwxjDzZYdbVwAA lookup 1 +MLUw1jDGMPww1jDr" t.alt1
EndChar

StartChar: u
Encoding: 117 117 89
Width: 494
GlyphClass: 2
Flags: W
LayerCount: 2
Fore
SplineSet
381 434 m 1,0,-1
 464 434 l 1,1,-1
 464 217 l 2,2,3
 464 127 464 127 400.5 63.5 c 128,-1,4
 337 0 337 0 247 0 c 128,-1,5
 157 0 157 0 93.5 63.5 c 128,-1,6
 30 127 30 127 30 217 c 2,7,-1
 30 434 l 1,8,-1
 113 434 l 1,9,-1
 113 217 l 2,10,11
 113 181 113 181 131 150 c 128,-1,12
 149 119 149 119 180 101 c 128,-1,13
 211 83 211 83 247 83 c 0,14,15
 302 83 302 83 341.5 122.5 c 128,-1,16
 381 162 381 162 381 217 c 2,17,-1
 381 434 l 1,0,-1
EndSplineSet
Validated: 1
EndChar

StartChar: v
Encoding: 118 118 90
Width: 451
GlyphClass: 2
Flags: W
LayerCount: 2
Fore
SplineSet
328 434 m 1,0,-1
 420 434 l 1,1,-1
 207 0 l 1,2,-1
 -6 434 l 1,3,-1
 86 434 l 1,4,-1
 207 188 l 1,5,-1
 328 434 l 1,0,-1
EndSplineSet
Validated: 1
EndChar

StartChar: w
Encoding: 119 119 91
Width: 728
GlyphClass: 2
Flags: W
LayerCount: 2
Fore
SplineSet
605 434 m 1,0,-1
 698 434 l 1,1,-1
 484 0 l 1,2,-1
 364 246 l 1,3,-1
 243 0 l 1,4,-1
 30 434 l 1,5,-1
 122 434 l 1,6,-1
 243 188 l 1,7,-1
 288 279 l 1,8,-1
 318 340 l 1,9,-1
 364 434 l 1,10,-1
 410 340 l 1,11,-1
 484 188 l 1,12,-1
 605 434 l 1,0,-1
EndSplineSet
Validated: 1
EndChar

StartChar: x
Encoding: 120 120 92
Width: 449
GlyphClass: 2
Flags: W
LayerCount: 2
Fore
SplineSet
274 217 m 1,0,-1
 419 0 l 1,1,-1
 319 0 l 1,2,-1
 224 142 l 1,3,-1
 130 0 l 1,4,-1
 30 0 l 1,5,-1
 175 217 l 1,6,-1
 30 434 l 1,7,-1
 130 434 l 1,8,-1
 224 292 l 1,9,-1
 319 434 l 1,10,-1
 419 434 l 1,11,-1
 274 217 l 1,0,-1
EndSplineSet
Validated: 1
EndChar

StartChar: y
Encoding: 121 121 93
Width: 443
GlyphClass: 2
Flags: W
LayerCount: 2
Fore
SplineSet
319 434 m 1,0,-1
 412 434 l 1,1,-1
 123 -145 l 1,2,-1
 30 -145 l 1,3,-1
 175 145 l 1,4,-1
 30 434 l 1,5,-1
 123 434 l 1,6,-1
 221 237 l 1,7,-1
 319 434 l 1,0,-1
EndSplineSet
Validated: 1
EndChar

StartChar: z
Encoding: 122 122 94
Width: 352
GlyphClass: 2
Flags: W
LayerCount: 2
Fore
SplineSet
321 433 m 1,0,-1
 160 83 l 1,1,-1
 320 83 l 1,2,-1
 320 0 l 1,3,-1
 30 0 l 1,4,-1
 192 350 l 1,5,-1
 30 350 l 1,6,-1
 30 433 l 1,7,-1
 321 433 l 1,0,-1
EndSplineSet
Validated: 1
EndChar

StartChar: braceleft
Encoding: 123 123 95
Width: 274
GlyphClass: 2
Flags: W
LayerCount: 2
Fore
SplineSet
202 496 m 2,0,-1
 202 344 l 1,1,-1
 147 289 l 1,2,-1
 202 234 l 1,3,-1
 202 83 l 2,4,5
 202 66 202 66 214.5 53.5 c 128,-1,6
 227 41 227 41 244 41 c 1,7,-1
 244 -41 l 1,8,9
 192 -41 192 -41 156 -5 c 128,-1,10
 120 31 120 31 120 83 c 2,11,-1
 120 200 l 1,12,-1
 30 289 l 1,13,-1
 120 379 l 1,14,-1
 120 496 l 2,15,16
 120 547 120 547 156 583.5 c 128,-1,17
 192 620 192 620 244 620 c 1,18,-1
 244 537 l 1,19,20
 227 537 227 537 214.5 525 c 128,-1,21
 202 513 202 513 202 496 c 2,0,-1
EndSplineSet
Validated: 1
EndChar

StartChar: verticalbar
Encoding: 124 124 96
Width: 143
GlyphClass: 2
Flags: W
LayerCount: 2
Fore
SplineSet
113 -96 m 1,0,-1
 30 -96 l 1,1,-1
 30 772 l 1,2,-1
 113 772 l 1,3,-1
 113 -96 l 1,0,-1
EndSplineSet
Validated: 1
EndChar

StartChar: braceright
Encoding: 125 125 97
Width: 274
GlyphClass: 2
Flags: W
LayerCount: 2
Fore
SplineSet
154 379 m 1,0,-1
 244 289 l 1,1,-1
 154 200 l 1,2,-1
 154 83 l 2,3,4
 154 31 154 31 117.5 -5 c 128,-1,5
 81 -41 81 -41 30 -41 c 1,6,-1
 30 41 l 1,7,8
 47 41 47 41 59 53.5 c 128,-1,9
 71 66 71 66 71 83 c 2,10,-1
 71 234 l 1,11,-1
 126 289 l 1,12,-1
 71 344 l 1,13,-1
 71 496 l 2,14,15
 71 513 71 513 59 525 c 128,-1,16
 47 537 47 537 30 537 c 1,17,-1
 30 620 l 1,18,19
 81 620 81 620 117.5 583.5 c 128,-1,20
 154 547 154 547 154 496 c 2,21,-1
 154 379 l 1,0,-1
EndSplineSet
Validated: 1
EndChar

StartChar: asciitilde
Encoding: 126 126 98
Width: 640
GlyphClass: 2
Flags: W
LayerCount: 2
Fore
SplineSet
607 362 m 1,0,1
 610 347 610 347 610 332 c 0,2,3
 610 298 610 298 594 261 c 0,4,5
 564 197 564 197 498 174 c 0,6,7
 468 163 468 163 440 163 c 0,8,9
 405 163 405 163 368 179 c 0,10,11
 304 210 304 210 281 275 c 0,12,13
 269 308 269 308 236 324 c 0,14,15
 220 332 220 332 199 332 c 0,16,17
 181 332 181 332 170 327 c 0,18,19
 137 315 137 315 121 282 c 0,20,21
 113 267 113 267 113 246 c 0,22,23
 113 228 113 228 118 216 c 1,24,-1
 33 216 l 1,25,26
 30 231 30 231 30 247 c 0,27,28
 30 285 30 285 46 317 c 0,29,30
 76 382 76 382 141 405 c 0,31,32
 168 415 168 415 199 415 c 0,33,34
 238 415 238 415 271 399 c 0,35,36
 334 370 334 370 359 304 c 0,37,38
 372 269 372 269 404 255 c 0,39,40
 421 246 421 246 440 246 c 0,41,42
 455 246 455 246 470 252 c 0,43,44
 504 264 504 264 519 296 c 0,45,46
 527 315 527 315 527 333 c 0,47,48
 527 345 527 345 522 362 c 1,49,-1
 607 362 l 1,0,1
EndSplineSet
Validated: 1
EndChar

StartChar: exclamdown
Encoding: 161 161 100
Width: 195
GlyphClass: 2
Flags: W
LayerCount: 2
Fore
SplineSet
97 342 m 128,-1,1
 80 342 80 342 68 354 c 128,-1,2
 56 366 56 366 56 383.5 c 128,-1,3
 56 401 56 401 68 413 c 128,-1,4
 80 425 80 425 97 425 c 128,-1,5
 114 425 114 425 126.5 413 c 128,-1,6
 139 401 139 401 139 383.5 c 128,-1,7
 139 366 139 366 126.5 354 c 128,-1,0
 114 342 114 342 97 342 c 128,-1,1
139 280 m 1,8,-1
 164 -154 l 1,9,-1
 30 -154 l 1,10,-1
 56 280 l 1,11,-1
 139 280 l 1,8,-1
EndSplineSet
Validated: 1
EndChar

StartChar: cent
Encoding: 162 162 101
Width: 554
GlyphClass: 2
Flags: W
LayerCount: 2
Fore
SplineSet
319.5 90 m 128,-1,1
 405 90 405 90 465 150 c 1,2,-1
 524 92 l 1,3,4
 456 24 456 24 361 10 c 1,5,-1
 361 -65 l 1,6,-1
 278 -65 l 1,7,-1
 278 10 l 1,8,9
 208 20 208 20 151.5 60 c 128,-1,10
 95 100 95 100 62.5 162.5 c 128,-1,11
 30 225 30 225 30 296 c 0,12,13
 30 405 30 405 101 486 c 128,-1,14
 172 567 172 567 278 582 c 1,15,-1
 278 658 l 1,16,-1
 361 658 l 1,17,-1
 361 582 l 1,18,19
 456 569 456 569 524 501 c 1,20,-1
 465 442 l 1,21,22
 405 503 405 503 319.5 503 c 128,-1,23
 234 503 234 503 173.5 442.5 c 128,-1,24
 113 382 113 382 113 296.5 c 128,-1,25
 113 211 113 211 173.5 150.5 c 128,-1,0
 234 90 234 90 319.5 90 c 128,-1,1
EndSplineSet
Validated: 1
EndChar

StartChar: sterling
Encoding: 163 163 102
Width: 422
GlyphClass: 2
Flags: W
LayerCount: 2
Fore
SplineSet
217 90 m 1,0,-1
 392 90 l 1,1,-1
 392 7 l 1,2,-1
 30 7 l 1,3,-1
 30 90 l 1,4,-1
 132 90 l 1,5,6
 141 117 141 117 141 143 c 0,7,8
 141 180 141 180 127 213 c 1,9,-1
 30 213 l 1,10,-1
 30 296 l 1,11,-1
 67 296 l 1,12,13
 30 345 30 345 30 405 c 0,14,15
 30 480 30 480 83 533 c 128,-1,16
 136 586 136 586 211 586 c 0,17,18
 282 586 282 586 335 536 c 1,19,-1
 276 477 l 1,20,21
 248 503 248 503 211 503 c 0,22,23
 170 503 170 503 141.5 474 c 128,-1,24
 113 445 113 445 113 405 c 0,25,26
 113 363 113 363 141 335 c 1,27,-1
 141 334 l 2,28,29
 142 333 142 333 144 331.5 c 128,-1,30
 146 330 146 330 147 329 c 0,31,32
 161 315 161 315 175 296 c 1,33,-1
 319 296 l 1,34,-1
 319 213 l 1,35,-1
 214 213 l 1,36,37
 224 178 224 178 224 143 c 0,38,39
 224 121 224 121 217 90 c 1,0,-1
EndSplineSet
Validated: 1
EndChar

StartChar: currency
Encoding: 164 164 103
Width: 527
GlyphClass: 2
Flags: W
LayerCount: 2
Fore
SplineSet
445 16 m 1,0,-1
 497 -35 l 1,1,-1
 439 -94 l 1,2,-1
 386 -43 l 1,3,4
 331 -81 331 -81 263.5 -81 c 128,-1,5
 196 -81 196 -81 140 -43 c 1,6,-1
 88 -94 l 1,7,-1
 30 -35 l 1,8,-1
 82 16 l 1,9,10
 46 70 46 70 46 135.5 c 128,-1,11
 46 201 46 201 82 255 c 1,12,-1
 30 306 l 1,13,-1
 88 365 l 1,14,-1
 140 314 l 1,15,16
 196 352 196 352 263.5 352 c 128,-1,17
 331 352 331 352 386 314 c 1,18,-1
 439 365 l 1,19,-1
 497 306 l 1,20,-1
 445 255 l 1,21,22
 480 201 480 201 480 136 c 128,-1,23
 480 71 480 71 445 16 c 1,0,-1
395 113 m 0,24,25
 397 125 397 125 397.5 135.5 c 128,-1,26
 398 146 398 146 395 158 c 0,27,28
 394 164 394 164 394 166 c 0,29,30
 392 174 392 174 389 182 c 0,31,32
 378 210 378 210 356 231.5 c 128,-1,33
 334 253 334 253 304 263 c 0,34,35
 298 265 298 265 294 266 c 0,36,37
 291 267 291 267 286 267 c 0,38,39
 273 270 273 270 263.5 270 c 128,-1,40
 254 270 254 270 241 267 c 0,41,42
 236 266 236 266 232.5 265.5 c 128,-1,43
 229 265 229 265 223 263 c 0,44,45
 212 259 212 259 202 254 c 0,46,47
 163 234 163 234 144 195 c 0,48,49
 140 188 140 188 138 182 c 0,50,51
 135 174 135 174 133 166 c 0,52,53
 133 164 133 164 132 158 c 0,54,55
 129 146 129 146 129 135.5 c 128,-1,56
 129 125 129 125 132 113 c 0,57,58
 133 107 133 107 133 105 c 0,59,60
 135 98 135 98 138 90 c 0,61,62
 140 83 140 83 144 76 c 0,63,64
 163 38 163 38 202 17 c 0,65,66
 212 12 212 12 223 9 c 0,67,68
 229 6 229 6 232 5 c 0,69,70
 236 5 236 5 241 4 c 0,71,72
 254 2 254 2 263.5 2 c 128,-1,73
 273 2 273 2 286 4 c 0,74,75
 291 5 291 5 294 5 c 0,76,77
 297 6 297 6 304 9 c 0,78,79
 315 12 315 12 325 17 c 0,80,81
 364 37 364 37 383 76 c 0,82,83
 387 83 387 83 389 90 c 0,84,85
 392 97 392 97 394 105 c 0,86,87
 394 107 394 107 395 113 c 0,24,25
EndSplineSet
Validated: 1
EndChar

StartChar: yen
Encoding: 165 165 104
Width: 598
GlyphClass: 2
Flags: W
LayerCount: 2
Fore
SplineSet
568 586 m 1,0,-1
 382 338 l 1,1,-1
 444 338 l 1,2,-1
 444 255 l 1,3,-1
 340 255 l 1,4,-1
 340 221 l 1,5,-1
 444 221 l 1,6,-1
 444 138 l 1,7,-1
 340 138 l 1,8,-1
 340 7 l 1,9,-1
 257 7 l 1,10,-1
 257 138 l 1,11,-1
 154 138 l 1,12,-1
 154 221 l 1,13,-1
 257 221 l 1,14,-1
 257 255 l 1,15,-1
 154 255 l 1,16,-1
 154 338 l 1,17,-1
 216 338 l 1,18,-1
 30 586 l 1,19,-1
 134 586 l 1,20,-1
 299 365 l 1,21,-1
 464 586 l 1,22,-1
 568 586 l 1,0,-1
EndSplineSet
Validated: 1
EndChar

StartChar: section
Encoding: 167 167 105
Width: 400
GlyphClass: 2
Flags: W
LayerCount: 2
Fore
SplineSet
286 288 m 2,0,-1
 286 289 l 2,1,2
 286 325 286 325 260.5 350.5 c 128,-1,3
 235 376 235 376 200 376 c 0,4,5
 172 376 172 376 150 360.5 c 128,-1,6
 128 345 128 345 119 320 c 0,7,8
 113 305 113 305 113 291 c 2,9,-1
 113 290 l 1,10,-1
 113 289 l 2,11,12
 113 253 113 253 138.5 228 c 128,-1,13
 164 203 164 203 200 203 c 0,14,15
 227 203 227 203 249 218.5 c 128,-1,16
 271 234 271 234 280 259 c 0,17,18
 286 274 286 274 286 288 c 2,0,-1
313 166 m 1,19,20
 318 161 318 161 319 160 c 0,21,22
 369 111 369 111 369 43 c 128,-1,23
 369 -25 369 -25 319.5 -73.5 c 128,-1,24
 270 -122 270 -122 199.5 -122 c 128,-1,25
 129 -122 129 -122 80 -74 c 0,26,27
 39 -34 39 -34 31 22 c 1,28,-1
 116 22 l 1,29,30
 122 0 122 0 138 -15 c 0,31,32
 164 -39 164 -39 199.5 -39 c 128,-1,33
 235 -39 235 -39 260.5 -15 c 128,-1,34
 286 9 286 9 286 43 c 128,-1,35
 286 77 286 77 261 101 c 0,36,37
 242 119 242 119 215 124 c 0,38,39
 214 124 214 124 211.5 123.5 c 128,-1,40
 209 123 209 123 207.5 123 c 128,-1,41
 206 123 206 123 203.5 122.5 c 128,-1,42
 201 122 201 122 200 122 c 0,43,44
 129 122 129 122 80 171 c 0,45,46
 44 206 44 206 34 257 c 1,47,-1
 33 258 l 2,48,49
 33 259 33 259 32.5 262 c 128,-1,50
 32 265 32 265 31 267 c 2,51,-1
 32 267 l 1,52,53
 30 284 30 284 30 291 c 0,54,55
 30 359 30 359 80 408 c 0,56,57
 81 409 81 409 83 410.5 c 128,-1,58
 85 412 85 412 86 413 c 1,59,60
 82 417 82 417 80 419 c 0,61,62
 30 467 30 467 30 535.5 c 128,-1,63
 30 604 30 604 79.5 652.5 c 128,-1,64
 129 701 129 701 199.5 701 c 128,-1,65
 270 701 270 701 319 652 c 0,66,67
 360 613 360 613 368 556 c 1,68,-1
 283 556 l 1,69,70
 277 578 277 578 261 594 c 0,71,72
 235 618 235 618 199.5 618 c 128,-1,73
 164 618 164 618 138.5 594 c 128,-1,74
 113 570 113 570 113 535.5 c 128,-1,75
 113 501 113 501 138 477 c 0,76,77
 157 459 157 459 184 455 c 0,78,79
 186 455 186 455 189 455.5 c 128,-1,80
 192 456 192 456 194.5 456 c 128,-1,81
 197 456 197 456 200 456 c 0,82,83
 270 456 270 456 319 408 c 0,84,85
 355 373 355 373 365 322 c 1,86,-1
 366 320 l 2,87,88
 366 319 366 319 366.5 316 c 128,-1,89
 367 313 367 313 368 312 c 2,90,-1
 367 312 l 1,91,92
 369 295 369 295 369 288 c 0,93,94
 369 219 369 219 319 171 c 0,95,96
 318 170 318 170 316 168 c 128,-1,97
 314 166 314 166 313 166 c 1,19,20
EndSplineSet
Validated: 1
EndChar

StartChar: dieresis
Encoding: 168 168 106
Width: 297
GlyphClass: 2
Flags: W
LayerCount: 2
Fore
SplineSet
221 562 m 128,-1,1
 202 562 202 562 188.5 575.5 c 128,-1,2
 175 589 175 589 175 608.5 c 128,-1,3
 175 628 175 628 188.5 641.5 c 128,-1,4
 202 655 202 655 221 655 c 0,5,6
 227 655 227 655 233 653.5 c 128,-1,7
 239 652 239 652 244.5 649 c 128,-1,8
 250 646 250 646 254 641.5 c 128,-1,9
 258 637 258 637 261 632 c 128,-1,10
 264 627 264 627 265.5 621 c 128,-1,11
 267 615 267 615 267 609 c 0,12,13
 267 589 267 589 253.5 575.5 c 128,-1,0
 240 562 240 562 221 562 c 128,-1,1
76 562 m 0,14,15
 67 562 67 562 58.5 566 c 128,-1,16
 50 570 50 570 43.5 576 c 128,-1,17
 37 582 37 582 33.5 590.5 c 128,-1,18
 30 599 30 599 30 609 c 0,19,20
 30 628 30 628 43.5 641.5 c 128,-1,21
 57 655 57 655 76.5 655 c 128,-1,22
 96 655 96 655 109.5 641.5 c 128,-1,23
 123 628 123 628 123 608.5 c 128,-1,24
 123 589 123 589 109.5 575.5 c 128,-1,25
 96 562 96 562 76 562 c 0,14,15
EndSplineSet
Validated: 1
EndChar

StartChar: copyright
Encoding: 169 169 107
Width: 639
GlyphClass: 2
Flags: W
LayerCount: 2
Fore
SplineSet
524 501 m 128,-1,1
 609 416 609 416 609 296 c 128,-1,2
 609 176 609 176 524 91.5 c 128,-1,3
 439 7 439 7 319 7 c 128,-1,4
 199 7 199 7 114.5 91.5 c 128,-1,5
 30 176 30 176 30 296 c 128,-1,6
 30 416 30 416 115 501 c 128,-1,7
 200 586 200 586 319.5 586 c 128,-1,0
 439 586 439 586 524 501 c 128,-1,1
465.5 150.5 m 128,-1,9
 526 211 526 211 526 296.5 c 128,-1,10
 526 382 526 382 465.5 442.5 c 128,-1,11
 405 503 405 503 319.5 503 c 128,-1,12
 234 503 234 503 173.5 442.5 c 128,-1,13
 113 382 113 382 113 296.5 c 128,-1,14
 113 211 113 211 173.5 150.5 c 128,-1,15
 234 90 234 90 319.5 90 c 128,-1,8
 405 90 405 90 465.5 150.5 c 128,-1,9
319.5 358 m 128,-1,17
 294 358 294 358 276 340 c 128,-1,18
 258 322 258 322 258 296.5 c 128,-1,19
 258 271 258 271 276 253 c 128,-1,20
 294 235 294 235 319.5 235 c 128,-1,21
 345 235 345 235 363 253 c 1,22,-1
 422 194 l 1,23,24
 379 152 379 152 319 152 c 128,-1,25
 259 152 259 152 217 194 c 128,-1,26
 175 236 175 236 175 296 c 128,-1,27
 175 356 175 356 217 398.5 c 128,-1,28
 259 441 259 441 319 441 c 128,-1,29
 379 441 379 441 422 399 c 1,30,-1
 363 340 l 1,31,16
 345 358 345 358 319.5 358 c 128,-1,17
EndSplineSet
Validated: 1
EndChar

StartChar: guillemotleft
Encoding: 171 171 108
Width: 612
GlyphClass: 2
Flags: W
LayerCount: 2
Fore
SplineSet
345 478 m 1,0,-1
 147 280 l 1,1,-1
 345 82 l 1,2,-1
 287 24 l 1,3,-1
 30 280 l 1,4,-1
 287 537 l 1,5,-1
 345 478 l 1,0,-1
581 478 m 1,6,-1
 383 280 l 1,7,-1
 581 82 l 1,8,-1
 523 24 l 1,9,-1
 266 280 l 1,10,-1
 523 537 l 1,11,-1
 581 478 l 1,6,-1
EndSplineSet
Validated: 1
EndChar

StartChar: registered
Encoding: 174 174 110
Width: 639
GlyphClass: 2
Flags: W
LayerCount: 2
Fore
SplineSet
524 501 m 0,0,1
 609 414 609 414 609 296 c 0,2,3
 609 177 609 177 524 92 c 0,4,5
 441 7 441 7 319 7 c 0,6,7
 198 7 198 7 115 92 c 0,8,9
 30 175 30 175 30 296 c 0,10,11
 30 416 30 416 115 501 c 128,-1,12
 200 586 200 586 319 586 c 0,13,14
 439 586 439 586 524 501 c 0,0,1
465 150 m 0,15,16
 526 211 526 211 526 296 c 128,-1,17
 526 381 526 381 465 442 c 128,-1,18
 404 503 404 503 319 503 c 128,-1,19
 234 503 234 503 173 442 c 0,20,21
 113 382 113 382 113 296 c 128,-1,22
 113 210 113 210 173 150 c 128,-1,23
 233 90 233 90 319 90 c 128,-1,24
 405 90 405 90 465 150 c 0,15,16
402 409 m 1,25,26
 432 378 432 378 432 334 c 128,-1,27
 432 290 432 290 400 256 c 1,28,-1
 436 159 l 1,29,-1
 348 159 l 1,30,-1
 320 234 l 1,31,-1
 285 234 l 1,32,-1
 285 159 l 1,33,-1
 203 159 l 1,34,-1
 203 434 l 1,35,-1
 348 434 l 2,36,37
 378 434 378 434 400 412 c 1,38,-1
 402 409 l 1,25,26
344 317 m 1,39,40
 349 325 349 325 349 333 c 0,41,42
 349 344 349 344 343 351 c 1,43,-1
 285 351 l 1,44,-1
 285 317 l 1,45,-1
 344 317 l 1,39,40
EndSplineSet
Validated: 1
EndChar

StartChar: degree
Encoding: 176 176 111
Width: 267
GlyphClass: 2
Flags: W
LayerCount: 2
Fore
SplineSet
206 738 m 128,-1,1
 236 708 236 708 236 665 c 128,-1,2
 236 622 236 622 206 592 c 128,-1,3
 176 562 176 562 133 562 c 128,-1,4
 90 562 90 562 60 592.5 c 128,-1,5
 30 623 30 623 30 665.5 c 128,-1,6
 30 708 30 708 60 738 c 128,-1,7
 90 768 90 768 133 768 c 128,-1,0
 176 768 176 768 206 738 c 128,-1,1
147.5 651 m 128,-1,9
 153 657 153 657 153 665.5 c 128,-1,10
 153 674 153 674 147.5 680 c 128,-1,11
 142 686 142 686 133.5 686 c 128,-1,12
 125 686 125 686 119 680 c 128,-1,13
 113 674 113 674 113 665.5 c 128,-1,14
 113 657 113 657 119 651 c 128,-1,15
 125 645 125 645 133.5 645 c 128,-1,8
 142 645 142 645 147.5 651 c 128,-1,9
EndSplineSet
Validated: 1
EndChar

StartChar: plusminus
Encoding: 177 177 112
Width: 494
GlyphClass: 2
Flags: W
LayerCount: 2
Fore
SplineSet
206 -34 m 1,0,-1
 206 140 l 1,1,-1
 31 140 l 1,2,-1
 31 223 l 1,3,-1
 206 223 l 1,4,-1
 206 397 l 1,5,-1
 288 397 l 1,6,-1
 288 223 l 1,7,-1
 463 223 l 1,8,-1
 463 140 l 1,9,-1
 288 140 l 1,10,-1
 288 -34 l 1,11,-1
 206 -34 l 1,0,-1
464 -154 m 1,12,-1
 30 -154 l 1,13,-1
 30 -71 l 1,14,-1
 464 -71 l 1,15,-1
 464 -154 l 1,12,-1
EndSplineSet
Validated: 1
EndChar

StartChar: acute
Encoding: 180 180 113
Width: 226
GlyphClass: 2
Flags: W
LayerCount: 2
Fore
SplineSet
123 655 m 1,0,-1
 196 655 l 1,1,-1
 103 562 l 1,2,-1
 30 562 l 1,3,-1
 123 655 l 1,0,-1
EndSplineSet
Validated: 1
EndChar

StartChar: paragraph
Encoding: 182 182 114
Width: 474
GlyphClass: 2
Flags: W
LayerCount: 2
Fore
SplineSet
444 0 m 1,0,-1
 361 0 l 1,1,-1
 361 579 l 1,2,-1
 444 579 l 1,3,-1
 444 0 l 1,0,-1
195 579 m 2,4,-1
 319 579 l 1,5,-1
 319 0 l 1,6,-1
 236 0 l 1,7,-1
 236 248 l 1,8,-1
 195 248 l 2,9,10
 127 248 127 248 78.5 296.5 c 128,-1,11
 30 345 30 345 30 413.5 c 128,-1,12
 30 482 30 482 78.5 530.5 c 128,-1,13
 127 579 127 579 195 579 c 2,4,-1
EndSplineSet
Validated: 1
EndChar

StartChar: guillemotright
Encoding: 187 187 115
Width: 612
GlyphClass: 2
Flags: W
LayerCount: 2
Fore
SplineSet
325 537 m 1,0,-1
 581 280 l 1,1,-1
 325 24 l 1,2,-1
 266 82 l 1,3,-1
 464 280 l 1,4,-1
 266 478 l 1,5,-1
 325 537 l 1,0,-1
89 537 m 1,6,-1
 345 280 l 1,7,-1
 89 24 l 1,8,-1
 30 82 l 1,9,-1
 228 280 l 1,10,-1
 30 478 l 1,11,-1
 89 537 l 1,6,-1
EndSplineSet
Validated: 1
EndChar

StartChar: questiondown
Encoding: 191 191 116
Width: 439
GlyphClass: 2
Flags: W
LayerCount: 2
Fore
SplineSet
219 342 m 128,-1,1
 202 342 202 342 190 354 c 128,-1,2
 178 366 178 366 178 383.5 c 128,-1,3
 178 401 178 401 190 413 c 128,-1,4
 202 425 202 425 219 425 c 128,-1,5
 236 425 236 425 248.5 413 c 128,-1,6
 261 401 261 401 261 383.5 c 128,-1,7
 261 366 261 366 248.5 354 c 128,-1,0
 236 342 236 342 219 342 c 128,-1,1
353 169 m 0,8,9
 408 114 408 114 408 35.5 c 128,-1,10
 408 -43 408 -43 353 -98.5 c 128,-1,11
 298 -154 298 -154 219.5 -154 c 128,-1,12
 141 -154 141 -154 85.5 -98.5 c 128,-1,13
 30 -43 30 -43 30 35 c 0,14,15
 30 103 30 103 73 155 c 1,16,-1
 134 98 l 1,17,18
 113 70 113 70 113 35 c 0,19,20
 113 -9 113 -9 144 -40 c 128,-1,21
 175 -71 175 -71 219 -71 c 128,-1,22
 263 -71 263 -71 294 -40 c 128,-1,23
 325 -9 325 -9 325 35 c 128,-1,24
 325 79 325 79 294 110.5 c 128,-1,25
 263 142 263 142 219 142 c 2,26,-1
 178 142 l 1,27,-1
 178 280 l 1,28,-1
 261 280 l 1,29,-1
 261 220 l 1,30,31
 314 208 314 208 353 169 c 0,8,9
EndSplineSet
Validated: 1
EndChar

StartChar: Agrave
Encoding: 192 192 117
Width: 639
GlyphClass: 2
Flags: W
LayerCount: 2
Fore
SplineSet
402 631 m 1,0,-1
 329 631 l 1,1,-1
 236 723 l 1,2,-1
 309 723 l 1,3,-1
 402 631 l 1,0,-1
237 228 m 1,4,-1
 402 228 l 1,5,-1
 319 393 l 1,6,-1
 237 228 l 1,4,-1
319 579 m 1,7,-1
 609 0 l 1,8,-1
 516 0 l 1,9,-1
 444 145 l 1,10,-1
 195 145 l 1,11,-1
 123 0 l 1,12,-1
 30 0 l 1,13,-1
 273 486 l 1,14,-1
 319 579 l 1,7,-1
EndSplineSet
Validated: 1
EndChar

StartChar: Aacute
Encoding: 193 193 118
Width: 639
GlyphClass: 2
Flags: W
LayerCount: 2
Fore
SplineSet
402 723 m 1,0,-1
 309 631 l 1,1,-1
 236 631 l 1,2,-1
 329 723 l 1,3,-1
 402 723 l 1,0,-1
236 228 m 1,4,-1
 402 228 l 1,5,-1
 319 393 l 1,6,-1
 236 228 l 1,4,-1
319 579 m 1,7,-1
 609 0 l 1,8,-1
 516 0 l 1,9,-1
 444 145 l 1,10,-1
 195 145 l 1,11,-1
 123 0 l 1,12,-1
 30 0 l 1,13,-1
 319 579 l 1,7,-1
EndSplineSet
Validated: 1
EndChar

StartChar: Acircumflex
Encoding: 194 194 119
Width: 639
GlyphClass: 2
Flags: W
LayerCount: 2
Fore
SplineSet
319 622 m 1,0,-1
 186 555 l 1,1,-1
 163 602 l 1,2,-1
 319 680 l 1,3,-1
 476 602 l 1,4,-1
 452 555 l 1,5,-1
 319 622 l 1,0,-1
237 228 m 1,6,-1
 402 228 l 1,7,-1
 319 393 l 1,8,-1
 237 228 l 1,6,-1
319 579 m 1,9,-1
 609 0 l 1,10,-1
 516 0 l 1,11,-1
 444 145 l 1,12,-1
 195 145 l 1,13,-1
 123 0 l 1,14,-1
 30 0 l 1,15,-1
 319 579 l 1,9,-1
EndSplineSet
Validated: 1
EndChar

StartChar: Atilde
Encoding: 195 195 120
Width: 639
GlyphClass: 2
Flags: W
LayerCount: 2
Fore
SplineSet
233 635 m 0,0,1
 215 623 215 623 212 606 c 1,2,-1
 161 618 l 1,3,4
 170 657 170 657 205 679 c 0,5,6
 229 694 229 694 257 694 c 0,7,8
 264 694 264 694 280 692 c 0,9,10
 319 683 319 683 341 648 c 0,11,12
 353 630 353 630 371 627 c 0,13,14
 377 625 377 625 381 625 c 0,15,16
 395 625 395 625 406 633 c 0,17,18
 422 642 422 642 427 662 c 1,19,-1
 477 650 l 1,20,21
 469 609 469 609 433 589 c 0,22,23
 410 574 410 574 381 574 c 0,24,25
 366 574 366 574 359 576 c 0,26,27
 319 585 319 585 297 620 c 0,28,29
 288 636 288 636 268 641 c 0,30,31
 265 642 265 642 257 642 c 0,32,33
 243 642 243 642 233 635 c 0,0,1
237 228 m 1,34,-1
 402 228 l 1,35,-1
 319 393 l 1,36,-1
 237 228 l 1,34,-1
319 579 m 1,37,-1
 609 0 l 1,38,-1
 516 0 l 1,39,-1
 444 145 l 1,40,-1
 195 145 l 1,41,-1
 123 0 l 1,42,-1
 30 0 l 1,43,-1
 319 579 l 1,37,-1
EndSplineSet
Validated: 1
EndChar

StartChar: Adieresis
Encoding: 196 196 121
Width: 639
GlyphClass: 2
Flags: W
LayerCount: 2
Fore
SplineSet
247 605 m 128,-1,1
 228 605 228 605 214.5 618.5 c 128,-1,2
 201 632 201 632 201 651 c 128,-1,3
 201 670 201 670 214.5 683.5 c 128,-1,4
 228 697 228 697 247 697 c 128,-1,5
 266 697 266 697 279.5 683.5 c 128,-1,6
 293 670 293 670 293 651 c 128,-1,7
 293 632 293 632 279.5 618.5 c 128,-1,0
 266 605 266 605 247 605 c 128,-1,1
392 605 m 0,8,9
 379 605 379 605 368.5 611 c 128,-1,10
 358 617 358 617 351.5 627.5 c 128,-1,11
 345 638 345 638 345 651 c 128,-1,12
 345 664 345 664 351.5 674.5 c 128,-1,13
 358 685 358 685 368.5 691 c 128,-1,14
 379 697 379 697 392 697 c 0,15,16
 411 697 411 697 424.5 683.5 c 128,-1,17
 438 670 438 670 438 651 c 128,-1,18
 438 632 438 632 424.5 618.5 c 128,-1,19
 411 605 411 605 392 605 c 0,8,9
237 228 m 1,20,-1
 402 228 l 1,21,-1
 319 393 l 1,22,-1
 237 228 l 1,20,-1
319 579 m 1,23,-1
 609 0 l 1,24,-1
 516 0 l 1,25,-1
 444 145 l 1,26,-1
 195 145 l 1,27,-1
 123 0 l 1,28,-1
 30 0 l 1,29,-1
 319 579 l 1,23,-1
EndSplineSet
Validated: 1
EndChar

StartChar: Aring
Encoding: 197 197 122
Width: 639
GlyphClass: 2
Flags: W
LayerCount: 2
Fore
SplineSet
332 554 m 1,0,-1
 609 0 l 1,1,-1
 516 0 l 1,2,-1
 444 145 l 1,3,-1
 195 145 l 1,4,-1
 123 0 l 1,5,-1
 30 0 l 1,6,-1
 307 554 l 1,7,8
 283 557 283 557 263.5 570.5 c 128,-1,9
 244 584 244 584 232.5 605 c 128,-1,10
 221 626 221 626 221 651 c 0,11,12
 221 692 221 692 250 720.5 c 128,-1,13
 279 749 279 749 319.5 749 c 128,-1,14
 360 749 360 749 389 720.5 c 128,-1,15
 418 692 418 692 418 651 c 0,16,17
 418 614 418 614 393 586.5 c 128,-1,18
 368 559 368 559 332 554 c 1,0,-1
273 651 m 0,19,20
 273 638 273 638 279 627.5 c 128,-1,21
 285 617 285 617 296 611 c 128,-1,22
 307 605 307 605 319 605 c 0,23,24
 339 605 339 605 352.5 618.5 c 128,-1,25
 366 632 366 632 366 651 c 128,-1,26
 366 670 366 670 352.5 683.5 c 128,-1,27
 339 697 339 697 319.5 697 c 128,-1,28
 300 697 300 697 286.5 683.5 c 128,-1,29
 273 670 273 670 273 651 c 0,19,20
236 228 m 1,30,-1
 402 228 l 1,31,-1
 319 393 l 1,32,-1
 236 228 l 1,30,-1
EndSplineSet
Validated: 1
EndChar

StartChar: AE
Encoding: 198 198 123
Width: 823
GlyphClass: 2
Flags: W
LayerCount: 2
Fore
SplineSet
792 496 m 1,0,-1
 514 496 l 1,1,-1
 514 331 l 1,2,-1
 792 331 l 1,3,-1
 792 248 l 1,4,-1
 514 248 l 1,5,-1
 514 83 l 1,6,-1
 792 83 l 1,7,-1
 792 0 l 1,8,-1
 431 0 l 1,9,-1
 431 147 l 1,10,-1
 211 147 l 1,11,-1
 100 0 l 1,12,-1
 -3 0 l 1,13,-1
 431 579 l 1,14,-1
 792 579 l 1,15,-1
 792 496 l 1,0,-1
431 229 m 1,16,-1
 431 440 l 1,17,-1
 272 229 l 1,18,-1
 431 229 l 1,16,-1
EndSplineSet
Validated: 1
EndChar

StartChar: Ccedilla
Encoding: 199 199 124
Width: 554
GlyphClass: 2
Flags: W
LayerCount: 2
Fore
SplineSet
524 72 m 1,0,1
 448 -2 448 -2 346 -11 c 1,2,-1
 345 -11 l 1,3,4
 356 -15 356 -15 369 -24 c 0,5,6
 401 -45 401 -45 401 -81 c 0,7,8
 401 -115 401 -115 369 -138 c 0,9,10
 340 -157 340 -157 303 -157 c 128,-1,11
 266 -157 266 -157 237 -138 c 1,12,-1
 267 -95 l 1,13,14
 280 -105 280 -105 303 -105 c 128,-1,15
 326 -105 326 -105 339 -95 c 0,16,17
 350 -88 350 -88 350 -81 c 0,18,19
 350 -73 350 -73 339 -66 c 0,20,21
 324 -56 324 -56 303 -56 c 2,22,-1
 256 -56 l 1,23,-1
 285 -10 l 1,24,25
 176 3 176 3 103 85 c 128,-1,26
 30 167 30 167 30 277 c 0,27,28
 30 397 30 397 115 481.5 c 128,-1,29
 200 566 200 566 319 566 c 0,30,31
 440 566 440 566 524 482 c 1,32,-1
 465 423 l 1,33,34
 405 483 405 483 319 483 c 0,35,36
 234 483 234 483 173.5 422.5 c 128,-1,37
 113 362 113 362 113 277 c 128,-1,38
 113 192 113 192 173.5 131.5 c 128,-1,39
 234 71 234 71 319 71 c 0,40,41
 405 71 405 71 465 131 c 1,42,-1
 524 72 l 1,0,1
EndSplineSet
Validated: 1
EndChar

StartChar: Egrave
Encoding: 200 200 125
Width: 422
GlyphClass: 2
Flags: W
LayerCount: 2
Fore
SplineSet
392 496 m 1,0,-1
 113 496 l 1,1,-1
 113 331 l 1,2,-1
 392 331 l 1,3,-1
 392 248 l 1,4,-1
 113 248 l 1,5,-1
 113 83 l 1,6,-1
 392 83 l 1,7,-1
 392 0 l 1,8,-1
 30 0 l 1,9,-1
 30 579 l 1,10,-1
 392 579 l 1,11,-1
 392 496 l 1,0,-1
294 630 m 1,12,-1
 221 630 l 1,13,-1
 128 723 l 1,14,-1
 201 723 l 1,15,-1
 294 630 l 1,12,-1
EndSplineSet
Validated: 1
EndChar

StartChar: Eacute
Encoding: 201 201 126
Width: 422
GlyphClass: 2
Flags: W
LayerCount: 2
Fore
SplineSet
392 496 m 1,0,-1
 113 496 l 1,1,-1
 113 331 l 1,2,-1
 392 331 l 1,3,-1
 392 248 l 1,4,-1
 113 248 l 1,5,-1
 113 83 l 1,6,-1
 392 83 l 1,7,-1
 392 0 l 1,8,-1
 30 0 l 1,9,-1
 30 579 l 1,10,-1
 392 579 l 1,11,-1
 392 496 l 1,0,-1
294 723 m 1,12,-1
 201 630 l 1,13,-1
 128 630 l 1,14,-1
 221 723 l 1,15,-1
 294 723 l 1,12,-1
EndSplineSet
Validated: 1
EndChar

StartChar: Ecircumflex
Encoding: 202 202 127
Width: 422
GlyphClass: 2
Flags: W
LayerCount: 2
Fore
SplineSet
392 496 m 1,0,-1
 113 496 l 1,1,-1
 113 331 l 1,2,-1
 392 331 l 1,3,-1
 392 248 l 1,4,-1
 113 248 l 1,5,-1
 113 83 l 1,6,-1
 392 83 l 1,7,-1
 392 0 l 1,8,-1
 30 0 l 1,9,-1
 30 579 l 1,10,-1
 392 579 l 1,11,-1
 392 496 l 1,0,-1
211 665 m 1,12,-1
 78 599 l 1,13,-1
 55 645 l 1,14,-1
 211 723 l 1,15,-1
 367 645 l 1,16,-1
 344 599 l 1,17,-1
 211 665 l 1,12,-1
EndSplineSet
Validated: 1
EndChar

StartChar: Edieresis
Encoding: 203 203 128
Width: 422
GlyphClass: 2
Flags: W
LayerCount: 2
Fore
SplineSet
392 496 m 1,0,-1
 113 496 l 1,1,-1
 113 331 l 1,2,-1
 392 331 l 1,3,-1
 392 248 l 1,4,-1
 113 248 l 1,5,-1
 113 83 l 1,6,-1
 392 83 l 1,7,-1
 392 0 l 1,8,-1
 30 0 l 1,9,-1
 30 579 l 1,10,-1
 392 579 l 1,11,-1
 392 496 l 1,0,-1
283 605 m 0,12,13
 271 605 271 605 260 611 c 128,-1,14
 249 617 249 617 243 627.5 c 128,-1,15
 237 638 237 638 237 651 c 0,16,17
 237 670 237 670 250.5 683.5 c 128,-1,18
 264 697 264 697 283 697 c 128,-1,19
 302 697 302 697 316 683.5 c 128,-1,20
 330 670 330 670 330 651 c 128,-1,21
 330 632 330 632 316 618.5 c 128,-1,22
 302 605 302 605 283 605 c 0,12,13
138 605 m 0,23,24
 126 605 126 605 115 611 c 128,-1,25
 104 617 104 617 98 627.5 c 128,-1,26
 92 638 92 638 92 651 c 0,27,28
 92 670 92 670 105.5 683.5 c 128,-1,29
 119 697 119 697 138.5 697 c 128,-1,30
 158 697 158 697 171.5 683.5 c 128,-1,31
 185 670 185 670 185 651 c 128,-1,32
 185 632 185 632 171.5 618.5 c 128,-1,33
 158 605 158 605 138 605 c 0,23,24
EndSplineSet
Validated: 1
EndChar

StartChar: Igrave
Encoding: 204 204 129
Width: 227
GlyphClass: 2
Flags: W
LayerCount: 2
Fore
SplineSet
154 0 m 1,0,-1
 72 0 l 1,1,-1
 72 579 l 1,2,-1
 154 579 l 1,3,-1
 154 0 l 1,0,-1
196 630 m 1,4,-1
 123 630 l 1,5,-1
 30 723 l 1,6,-1
 103 723 l 1,7,-1
 196 630 l 1,4,-1
EndSplineSet
Validated: 1
EndChar

StartChar: Iacute
Encoding: 205 205 130
Width: 227
GlyphClass: 2
Flags: W
LayerCount: 2
Fore
SplineSet
154 0 m 1,0,-1
 71 0 l 1,1,-1
 71 579 l 1,2,-1
 154 579 l 1,3,-1
 154 0 l 1,0,-1
196 723 m 1,4,-1
 103 630 l 1,5,-1
 30 630 l 1,6,-1
 123 723 l 1,7,-1
 196 723 l 1,4,-1
EndSplineSet
Validated: 1
EndChar

StartChar: Icircumflex
Encoding: 206 206 131
Width: 373
GlyphClass: 2
Flags: W
LayerCount: 2
Fore
SplineSet
186 723 m 1,0,-1
 342 645 l 1,1,-1
 319 599 l 1,2,-1
 186 665 l 1,3,-1
 53 599 l 1,4,-1
 30 645 l 1,5,-1
 186 723 l 1,0,-1
227 0 m 1,6,-1
 144 0 l 1,7,-1
 144 579 l 1,8,-1
 227 579 l 1,9,-1
 227 0 l 1,6,-1
EndSplineSet
Validated: 1
EndChar

StartChar: Idieresis
Encoding: 207 207 132
Width: 298
GlyphClass: 2
Flags: W
LayerCount: 2
Fore
SplineSet
221 605 m 128,-1,1
 202 605 202 605 188.5 618.5 c 128,-1,2
 175 632 175 632 175 651 c 128,-1,3
 175 670 175 670 188.5 683.5 c 128,-1,4
 202 697 202 697 221 697 c 0,5,6
 234 697 234 697 244.5 691 c 128,-1,7
 255 685 255 685 261 674.5 c 128,-1,8
 267 664 267 664 267 651 c 0,9,10
 267 632 267 632 253.5 618.5 c 128,-1,0
 240 605 240 605 221 605 c 128,-1,1
76.5 605 m 128,-1,12
 57 605 57 605 43.5 618.5 c 128,-1,13
 30 632 30 632 30 651 c 128,-1,14
 30 670 30 670 43.5 683.5 c 128,-1,15
 57 697 57 697 76.5 697 c 128,-1,16
 96 697 96 697 109.5 683.5 c 128,-1,17
 123 670 123 670 123 651 c 128,-1,18
 123 632 123 632 109.5 618.5 c 128,-1,11
 96 605 96 605 76.5 605 c 128,-1,12
190 0 m 1,19,-1
 107 0 l 1,20,-1
 107 579 l 1,21,-1
 190 579 l 1,22,-1
 190 0 l 1,19,-1
EndSplineSet
Validated: 1
EndChar

StartChar: Eth
Encoding: 208 208 133
Width: 648
GlyphClass: 2
Flags: W
LayerCount: 2
Fore
SplineSet
328 579 m 0,0,1
 448 579 448 579 532.5 494 c 128,-1,2
 617 409 617 409 617 289 c 128,-1,3
 617 169 617 169 532.5 84.5 c 128,-1,4
 448 0 448 0 328 0 c 2,5,6
 328 0 328 0 327 0 c 128,-1,7
 326 0 326 0 326 0 c 1,8,-1
 110 0 l 1,9,-1
 110 248 l 1,10,-1
 30 248 l 1,11,-1
 30 331 l 1,12,-1
 110 331 l 1,13,-1
 110 579 l 1,14,-1
 326 579 l 2,15,16
 327 579 327 579 328 579 c 0,0,1
328 83 m 2,17,18
 413 83 413 83 474 143.5 c 128,-1,19
 535 204 535 204 535 289.5 c 128,-1,20
 535 375 535 375 474.5 435.5 c 128,-1,21
 414 496 414 496 328 496 c 2,22,23
 328 496 328 496 327 496 c 128,-1,24
 326 496 326 496 326 496 c 1,25,-1
 192 496 l 1,26,-1
 192 331 l 1,27,-1
 319 331 l 1,28,-1
 319 248 l 1,29,-1
 192 248 l 1,30,-1
 192 83 l 1,31,-1
 326 83 l 1,32,33
 326 83 326 83 327 83 c 128,-1,34
 328 83 328 83 328 83 c 2,17,18
EndSplineSet
Validated: 1
EndChar

StartChar: Ntilde
Encoding: 209 209 134
Width: 521
GlyphClass: 2
Flags: W
LayerCount: 2
Fore
SplineSet
409 579 m 1,0,-1
 491 579 l 1,1,-1
 491 0 l 1,2,-1
 113 378 l 1,3,-1
 113 1 l 1,4,-1
 30 1 l 1,5,-1
 30 581 l 1,6,-1
 31 579 l 1,7,-1
 113 498 l 1,8,-1
 154 457 l 1,9,-1
 409 202 l 1,10,-1
 409 579 l 1,0,-1
174 652 m 0,11,12
 158 643 158 643 153 623 c 1,13,-1
 102 635 l 1,14,15
 111 674 111 674 146 696 c 0,16,17
 170 711 170 711 198 711 c 0,18,19
 205 711 205 711 221 709 c 0,20,21
 260 700 260 700 282 665 c 0,22,23
 292 648 292 648 312 644 c 0,24,25
 315 643 315 643 322 643 c 0,26,27
 337 643 337 643 347 650 c 0,28,29
 363 659 363 659 368 679 c 1,30,-1
 419 667 l 1,31,32
 410 628 410 628 375 606 c 0,33,34
 351 591 351 591 322 591 c 0,35,36
 314 591 314 591 300 593 c 0,37,38
 260 602 260 602 238 637 c 0,39,40
 229 653 229 653 209 658 c 0,41,42
 206 659 206 659 199 659 c 0,43,44
 184 659 184 659 174 652 c 0,11,12
EndSplineSet
Validated: 1
EndChar

StartChar: Ograve
Encoding: 210 210 135
Width: 639
GlyphClass: 2
Flags: W
LayerCount: 2
Fore
SplineSet
319 579 m 128,-1,1
 439 579 439 579 524 494 c 128,-1,2
 609 409 609 409 609 289 c 128,-1,3
 609 169 609 169 524 84.5 c 128,-1,4
 439 0 439 0 319 0 c 128,-1,5
 199 0 199 0 114.5 84.5 c 128,-1,6
 30 169 30 169 30 289 c 128,-1,7
 30 409 30 409 114.5 494 c 128,-1,0
 199 579 199 579 319 579 c 128,-1,1
319.5 83 m 128,-1,9
 405 83 405 83 465.5 143.5 c 128,-1,10
 526 204 526 204 526 289.5 c 128,-1,11
 526 375 526 375 465.5 435.5 c 128,-1,12
 405 496 405 496 319.5 496 c 128,-1,13
 234 496 234 496 173.5 435.5 c 128,-1,14
 113 375 113 375 113 289.5 c 128,-1,15
 113 204 113 204 173.5 143.5 c 128,-1,8
 234 83 234 83 319.5 83 c 128,-1,9
402 630 m 1,16,-1
 329 630 l 1,17,-1
 236 723 l 1,18,-1
 309 723 l 1,19,-1
 402 630 l 1,16,-1
EndSplineSet
Validated: 1
EndChar

StartChar: Oacute
Encoding: 211 211 136
Width: 639
GlyphClass: 2
Flags: W
LayerCount: 2
Fore
SplineSet
402 723 m 1,0,-1
 309 630 l 1,1,-1
 236 630 l 1,2,-1
 329 723 l 1,3,-1
 402 723 l 1,0,-1
319 83 m 0,4,5
 405 83 405 83 465.5 143.5 c 128,-1,6
 526 204 526 204 526 289 c 128,-1,7
 526 374 526 374 465 435 c 128,-1,8
 404 496 404 496 319 496 c 128,-1,9
 234 496 234 496 173.5 435 c 128,-1,10
 113 374 113 374 113 289 c 128,-1,11
 113 204 113 204 173.5 143.5 c 128,-1,12
 234 83 234 83 319 83 c 0,4,5
319 579 m 0,13,14
 439 579 439 579 524 494 c 128,-1,15
 609 409 609 409 609 289 c 0,16,17
 609 170 609 170 524 85 c 128,-1,18
 439 0 439 0 319 0 c 0,19,20
 200 0 200 0 115 85 c 128,-1,21
 30 170 30 170 30 289 c 0,22,23
 30 409 30 409 115 494 c 128,-1,24
 200 579 200 579 319 579 c 0,13,14
EndSplineSet
Validated: 1
EndChar

StartChar: Ocircumflex
Encoding: 212 212 137
Width: 639
GlyphClass: 2
Flags: W
LayerCount: 2
Fore
SplineSet
319 579 m 128,-1,1
 439 579 439 579 524 494 c 128,-1,2
 609 409 609 409 609 289 c 128,-1,3
 609 169 609 169 524 84.5 c 128,-1,4
 439 0 439 0 319 0 c 128,-1,5
 199 0 199 0 114.5 84.5 c 128,-1,6
 30 169 30 169 30 289 c 128,-1,7
 30 409 30 409 114.5 494 c 128,-1,0
 199 579 199 579 319 579 c 128,-1,1
319.5 83 m 128,-1,9
 405 83 405 83 465.5 143.5 c 128,-1,10
 526 204 526 204 526 289.5 c 128,-1,11
 526 375 526 375 465.5 435.5 c 128,-1,12
 405 496 405 496 319.5 496 c 128,-1,13
 234 496 234 496 173.5 435.5 c 128,-1,14
 113 375 113 375 113 289.5 c 128,-1,15
 113 204 113 204 173.5 143.5 c 128,-1,8
 234 83 234 83 319.5 83 c 128,-1,9
319 665 m 1,16,-1
 186 599 l 1,17,-1
 163 645 l 1,18,-1
 319 723 l 1,19,-1
 476 645 l 1,20,-1
 452 599 l 1,21,-1
 319 665 l 1,16,-1
EndSplineSet
Validated: 1
EndChar

StartChar: Otilde
Encoding: 213 213 138
Width: 639
GlyphClass: 2
Flags: W
LayerCount: 2
Fore
SplineSet
319 579 m 0,0,1
 439 579 439 579 524 494 c 128,-1,2
 609 409 609 409 609 289 c 0,3,4
 609 170 609 170 524 85 c 128,-1,5
 439 0 439 0 319 0 c 0,6,7
 200 0 200 0 115 85 c 128,-1,8
 30 170 30 170 30 289 c 0,9,10
 30 409 30 409 115 494 c 128,-1,11
 200 579 200 579 319 579 c 0,0,1
319 83 m 128,-1,13
 404 83 404 83 465 143.5 c 128,-1,14
 526 204 526 204 526 289 c 128,-1,15
 526 374 526 374 465 435 c 128,-1,16
 404 496 404 496 319 496 c 128,-1,17
 234 496 234 496 173.5 435 c 128,-1,18
 113 374 113 374 113 289 c 128,-1,19
 113 204 113 204 173.5 143.5 c 128,-1,12
 234 83 234 83 319 83 c 128,-1,13
233 652 m 0,20,21
 215 642 215 642 212 623 c 1,22,-1
 161 635 l 1,23,24
 170 674 170 674 205 696 c 0,25,26
 229 711 229 711 257 711 c 0,27,28
 264 711 264 711 280 709 c 0,29,30
 319 700 319 700 341 665 c 0,31,32
 352 648 352 648 371 644 c 0,33,34
 374 643 374 643 381 643 c 0,35,36
 396 643 396 643 406 650 c 0,37,38
 422 659 422 659 427 679 c 1,39,-1
 477 667 l 1,40,41
 469 628 469 628 433 606 c 0,42,43
 410 591 410 591 381 591 c 0,44,45
 373 591 373 591 359 593 c 0,46,47
 319 602 319 602 297 637 c 0,48,49
 288 653 288 653 268 658 c 0,50,51
 265 659 265 659 257 659 c 0,52,53
 243 659 243 659 233 652 c 0,20,21
EndSplineSet
Validated: 1
EndChar

StartChar: Odieresis
Encoding: 214 214 139
Width: 639
GlyphClass: 2
Flags: W
LayerCount: 2
Fore
SplineSet
319 579 m 128,-1,1
 439 579 439 579 524 494 c 128,-1,2
 609 409 609 409 609 289 c 128,-1,3
 609 169 609 169 524 84.5 c 128,-1,4
 439 0 439 0 319 0 c 128,-1,5
 199 0 199 0 114.5 84.5 c 128,-1,6
 30 169 30 169 30 289 c 128,-1,7
 30 409 30 409 114.5 494 c 128,-1,0
 199 579 199 579 319 579 c 128,-1,1
319.5 83 m 128,-1,9
 405 83 405 83 465.5 143.5 c 128,-1,10
 526 204 526 204 526 289.5 c 128,-1,11
 526 375 526 375 465.5 435.5 c 128,-1,12
 405 496 405 496 319.5 496 c 128,-1,13
 234 496 234 496 173.5 435.5 c 128,-1,14
 113 375 113 375 113 289.5 c 128,-1,15
 113 204 113 204 173.5 143.5 c 128,-1,8
 234 83 234 83 319.5 83 c 128,-1,9
392 605 m 0,16,17
 372 605 372 605 358.5 618.5 c 128,-1,18
 345 632 345 632 345 651 c 0,19,20
 345 660 345 660 349 669 c 128,-1,21
 353 678 353 678 359 684 c 128,-1,22
 365 690 365 690 373.5 693.5 c 128,-1,23
 382 697 382 697 392 697 c 0,24,25
 411 697 411 697 424.5 683.5 c 128,-1,26
 438 670 438 670 438 651 c 0,27,28
 438 643 438 643 435.5 636 c 128,-1,29
 433 629 433 629 429 623.5 c 128,-1,30
 425 618 425 618 419 613.5 c 128,-1,31
 413 609 413 609 406 607 c 128,-1,32
 399 605 399 605 392 605 c 0,16,17
247 605 m 128,-1,34
 228 605 228 605 214.5 618.5 c 128,-1,35
 201 632 201 632 201 651 c 128,-1,36
 201 670 201 670 214.5 683.5 c 128,-1,37
 228 697 228 697 247 697 c 128,-1,38
 266 697 266 697 279.5 683.5 c 128,-1,39
 293 670 293 670 293 651 c 128,-1,40
 293 632 293 632 279.5 618.5 c 128,-1,33
 266 605 266 605 247 605 c 128,-1,34
EndSplineSet
Validated: 1
EndChar

StartChar: multiply
Encoding: 215 215 140
Width: 424
GlyphClass: 2
Flags: W
LayerCount: 2
Fore
SplineSet
394 379 m 1,0,-1
 270 255 l 1,1,-1
 394 132 l 1,2,-1
 335 74 l 1,3,-1
 212 197 l 1,4,-1
 89 74 l 1,5,-1
 30 132 l 1,6,-1
 153 255 l 1,7,-1
 30 379 l 1,8,-1
 89 437 l 1,9,-1
 212 314 l 1,10,-1
 335 437 l 1,11,-1
 394 379 l 1,0,-1
EndSplineSet
Validated: 1
EndChar

StartChar: Oslash
Encoding: 216 216 141
Width: 676
GlyphClass: 2
Flags: W
LayerCount: 2
Fore
SplineSet
645 579 m 1,0,-1
 560 493 l 1,1,2
 627 413 627 413 627 308 c 0,3,4
 627 188 627 188 542 103 c 128,-1,5
 457 18 457 18 338 18 c 0,6,7
 233 18 233 18 152 86 c 1,8,-1
 67 0 l 1,9,-1
 30 37 l 1,10,-1
 116 122 l 1,11,12
 48 203 48 203 48 308 c 0,13,14
 48 427 48 427 133 512 c 128,-1,15
 218 597 218 597 338 597 c 0,16,17
 443 597 443 597 523 530 c 1,18,-1
 609 615 l 1,19,-1
 645 579 l 1,0,-1
131 308 m 0,20,21
 131 237 131 237 175 181 c 1,22,-1
 464 471 l 1,23,24
 408 514 408 514 338 514 c 0,25,26
 252 514 252 514 191.5 453.5 c 128,-1,27
 131 393 131 393 131 308 c 0,20,21
338 101 m 0,28,29
 423 101 423 101 483.5 161.5 c 128,-1,30
 544 222 544 222 544 308 c 0,31,32
 544 378 544 378 501 434 c 1,33,-1
 211 145 l 1,34,35
 267 101 267 101 338 101 c 0,28,29
EndSplineSet
Validated: 1
EndChar

StartChar: Ugrave
Encoding: 217 217 142
Width: 577
GlyphClass: 2
Flags: W
LayerCount: 2
Fore
SplineSet
464 577 m 1,0,-1
 547 577 l 1,1,-1
 547 260 l 1,2,-1
 547 259 l 1,3,-1
 547 258 l 2,4,5
 547 152 547 152 471 76 c 128,-1,6
 395 0 395 0 288 0 c 0,7,8
 218 0 218 0 158.5 34.5 c 128,-1,9
 99 69 99 69 64.5 128.5 c 128,-1,10
 30 188 30 188 30 258 c 2,11,-1
 30 259 l 1,12,-1
 30 260 l 1,13,-1
 30 577 l 1,14,-1
 113 577 l 1,15,-1
 113 260 l 1,16,17
 113 260 113 260 113 259.5 c 128,-1,18
 113 259 113 259 113 258 c 0,19,20
 113 186 113 186 164.5 134.5 c 128,-1,21
 216 83 216 83 288.5 83 c 128,-1,22
 361 83 361 83 412.5 134.5 c 128,-1,23
 464 186 464 186 464 258 c 0,24,25
 464 259 464 259 464 259.5 c 128,-1,26
 464 260 464 260 464 260 c 1,27,-1
 464 577 l 1,0,-1
371 630 m 1,28,-1
 298 630 l 1,29,-1
 205 722 l 1,30,-1
 279 722 l 1,31,-1
 371 630 l 1,28,-1
EndSplineSet
Validated: 1
EndChar

StartChar: Uacute
Encoding: 218 218 143
Width: 577
GlyphClass: 2
Flags: W
LayerCount: 2
Fore
SplineSet
464 577 m 1,0,-1
 547 577 l 1,1,-1
 547 260 l 1,2,-1
 547 259 l 1,3,-1
 547 258 l 2,4,5
 547 152 547 152 471 76 c 128,-1,6
 395 0 395 0 288.5 0 c 128,-1,7
 182 0 182 0 106 76 c 128,-1,8
 30 152 30 152 30 258 c 2,9,10
 30 258 30 258 30 259 c 2,11,-1
 30 260 l 1,12,-1
 30 577 l 1,13,-1
 113 577 l 1,14,-1
 113 260 l 1,15,16
 113 260 113 260 113 259.5 c 128,-1,17
 113 259 113 259 113 258 c 0,18,19
 113 186 113 186 164.5 134.5 c 128,-1,20
 216 83 216 83 288.5 83 c 128,-1,21
 361 83 361 83 412.5 134.5 c 128,-1,22
 464 186 464 186 464 258 c 0,23,24
 464 259 464 259 464 259.5 c 128,-1,25
 464 260 464 260 464 260 c 1,26,-1
 464 577 l 1,0,-1
371 722 m 1,27,-1
 279 630 l 1,28,-1
 205 630 l 1,29,-1
 298 722 l 1,30,-1
 371 722 l 1,27,-1
EndSplineSet
Validated: 1
EndChar

StartChar: Ucircumflex
Encoding: 219 219 144
Width: 577
GlyphClass: 2
Flags: W
LayerCount: 2
Fore
SplineSet
464 577 m 1,0,-1
 547 577 l 1,1,-1
 547 260 l 1,2,-1
 547 259 l 1,3,-1
 547 258 l 2,4,5
 547 152 547 152 471 76 c 128,-1,6
 395 0 395 0 288 0 c 0,7,8
 218 0 218 0 158.5 34.5 c 128,-1,9
 99 69 99 69 64.5 128.5 c 128,-1,10
 30 188 30 188 30 258 c 2,11,-1
 30 259 l 1,12,-1
 30 260 l 1,13,-1
 30 577 l 1,14,-1
 113 577 l 1,15,-1
 113 260 l 1,16,17
 113 260 113 260 113 259.5 c 128,-1,18
 113 259 113 259 113 258 c 0,19,20
 113 186 113 186 164.5 134.5 c 128,-1,21
 216 83 216 83 288.5 83 c 128,-1,22
 361 83 361 83 412.5 134.5 c 128,-1,23
 464 186 464 186 464 258 c 0,24,25
 464 259 464 259 464 259.5 c 128,-1,26
 464 260 464 260 464 260 c 1,27,-1
 464 577 l 1,0,-1
289 665 m 1,28,-1
 155 598 l 1,29,-1
 132 644 l 1,30,-1
 289 722 l 1,31,-1
 445 644 l 1,32,-1
 422 598 l 1,33,-1
 289 665 l 1,28,-1
EndSplineSet
Validated: 1
EndChar

StartChar: Udieresis
Encoding: 220 220 145
Width: 577
GlyphClass: 2
Flags: W
LayerCount: 2
Fore
SplineSet
464 577 m 1,0,-1
 547 577 l 1,1,-1
 547 260 l 1,2,-1
 547 259 l 1,3,-1
 547 258 l 2,4,5
 547 152 547 152 471 76 c 128,-1,6
 395 0 395 0 288 0 c 0,7,8
 218 0 218 0 158.5 34.5 c 128,-1,9
 99 69 99 69 64.5 128.5 c 128,-1,10
 30 188 30 188 30 258 c 2,11,-1
 30 259 l 1,12,-1
 30 260 l 1,13,-1
 30 577 l 1,14,-1
 113 577 l 1,15,-1
 113 260 l 1,16,17
 113 260 113 260 113 259.5 c 128,-1,18
 113 259 113 259 113 258 c 0,19,20
 113 186 113 186 164.5 134.5 c 128,-1,21
 216 83 216 83 288.5 83 c 128,-1,22
 361 83 361 83 412.5 134.5 c 128,-1,23
 464 186 464 186 464 258 c 0,24,25
 464 259 464 259 464 259.5 c 128,-1,26
 464 260 464 260 464 260 c 1,27,-1
 464 577 l 1,0,-1
361 604 m 0,28,29
 342 604 342 604 328 617.5 c 128,-1,30
 314 631 314 631 314 650 c 128,-1,31
 314 669 314 669 328 683 c 128,-1,32
 342 697 342 697 361 697 c 128,-1,33
 380 697 380 697 393.5 683 c 128,-1,34
 407 669 407 669 407 650 c 0,35,36
 407 643 407 643 405 635.5 c 128,-1,37
 403 628 403 628 398.5 622.5 c 128,-1,38
 394 617 394 617 388.5 612.5 c 128,-1,39
 383 608 383 608 375.5 606 c 128,-1,40
 368 604 368 604 361 604 c 0,28,29
216 604 m 0,41,42
 207 604 207 604 198.5 607.5 c 128,-1,43
 190 611 190 611 183.5 617.5 c 128,-1,44
 177 624 177 624 173.5 632.5 c 128,-1,45
 170 641 170 641 170 650 c 0,46,47
 170 669 170 669 183.5 683 c 128,-1,48
 197 697 197 697 216 697 c 128,-1,49
 235 697 235 697 249 683 c 128,-1,50
 263 669 263 669 263 650 c 128,-1,51
 263 631 263 631 249 617.5 c 128,-1,52
 235 604 235 604 216 604 c 0,41,42
EndSplineSet
Validated: 1
EndChar

StartChar: Yacute
Encoding: 221 221 146
Width: 598
GlyphClass: 2
Flags: W
LayerCount: 2
Fore
SplineSet
464 579 m 1,0,-1
 568 579 l 1,1,-1
 340 275 l 1,2,-1
 340 0 l 1,3,-1
 257 0 l 1,4,-1
 257 275 l 1,5,-1
 30 579 l 1,6,-1
 134 579 l 1,7,-1
 299 358 l 1,8,-1
 464 579 l 1,0,-1
382 723 m 1,9,-1
 289 630 l 1,10,-1
 216 630 l 1,11,-1
 309 723 l 1,12,-1
 382 723 l 1,9,-1
EndSplineSet
Validated: 1
EndChar

StartChar: Thorn
Encoding: 222 222 147
Width: 494
GlyphClass: 2
Flags: W
LayerCount: 2
Fore
SplineSet
299 455 m 2,0,1
 367 455 367 455 415.5 406.5 c 128,-1,2
 464 358 464 358 464 289 c 0,3,4
 464 244 464 244 442 206 c 128,-1,5
 420 168 420 168 382 146 c 128,-1,6
 344 124 344 124 299 124 c 2,7,-1
 113 124 l 1,8,-1
 113 0 l 1,9,-1
 30 0 l 1,10,-1
 30 579 l 1,11,-1
 113 579 l 1,12,-1
 113 455 l 1,13,-1
 299 455 l 2,0,1
299 207 m 2,14,15
 333 207 333 207 357 231 c 128,-1,16
 381 255 381 255 381 289 c 128,-1,17
 381 323 381 323 357 347.5 c 128,-1,18
 333 372 333 372 299 372 c 2,19,-1
 113 372 l 1,20,-1
 113 207 l 1,21,-1
 299 207 l 2,14,15
EndSplineSet
Validated: 1
EndChar

StartChar: germandbls
Encoding: 223 223 148
Width: 472
GlyphClass: 2
Flags: W
LayerCount: 2
Fore
SplineSet
376 404 m 0,0,1
 441 339 441 339 441 247 c 128,-1,2
 441 155 441 155 376 90 c 128,-1,3
 311 25 311 25 219 25 c 1,4,-1
 219 108 l 1,5,6
 277 108 277 108 317.5 149 c 128,-1,7
 358 190 358 190 358 247.5 c 128,-1,8
 358 305 358 305 317.5 345.5 c 128,-1,9
 277 386 277 386 219 386 c 1,10,-1
 219 471 l 1,11,12
 256 473 256 473 282 499 c 0,13,14
 311 527 311 527 311 567.5 c 128,-1,15
 311 608 311 608 282 637 c 0,16,17
 256 662 256 662 219 664 c 2,18,-1
 212 664 l 2,19,20
 162 664 162 664 135 632 c 0,21,22
 113 605 113 605 113 569 c 2,23,-1
 113 24 l 1,24,-1
 30 24 l 1,25,-1
 30 569 l 2,26,27
 30 635 30 635 71 685 c 0,28,29
 96 715 96 715 133.5 731 c 128,-1,30
 171 747 171 747 212 747 c 2,31,-1
 219 747 l 2,32,33
 291 745 291 745 341 695 c 0,34,35
 394 642 394 642 394 567.5 c 128,-1,36
 394 493 394 493 341 440 c 0,37,38
 340 439 340 439 338.5 438 c 128,-1,39
 337 437 337 437 336 436 c 1,40,41
 359 422 359 422 376 404 c 0,0,1
EndSplineSet
Validated: 1
EndChar

StartChar: agrave
Encoding: 224 224 149
Width: 494
GlyphClass: 2
Flags: W
LayerCount: 2
Fore
SplineSet
381 434 m 1,0,-1
 464 434 l 1,1,-1
 464 0 l 1,2,-1
 381 0 l 1,3,-1
 381 47 l 1,4,5
 322 0 322 0 247 0 c 0,6,7
 157 0 157 0 93.5 63.5 c 128,-1,8
 30 127 30 127 30 217 c 128,-1,9
 30 307 30 307 93.5 370.5 c 128,-1,10
 157 434 157 434 247 434 c 0,11,12
 322 434 322 434 381 387 c 1,13,-1
 381 434 l 1,0,-1
247 83 m 128,-1,15
 302 83 302 83 341.5 122.5 c 128,-1,16
 381 162 381 162 381 217 c 128,-1,17
 381 272 381 272 341.5 311.5 c 128,-1,18
 302 351 302 351 247 351 c 0,19,20
 211 351 211 351 180 333 c 128,-1,21
 149 315 149 315 131 284 c 128,-1,22
 113 253 113 253 113 217 c 0,23,24
 113 162 113 162 152.5 122.5 c 128,-1,14
 192 83 192 83 247 83 c 128,-1,15
402 460 m 1,25,-1
 329 460 l 1,26,-1
 236 553 l 1,27,-1
 309 553 l 1,28,-1
 402 460 l 1,25,-1
EndSplineSet
Validated: 1
EndChar

StartChar: aacute
Encoding: 225 225 150
Width: 494
GlyphClass: 2
Flags: W
LayerCount: 2
Fore
SplineSet
381 434 m 1,0,-1
 464 434 l 1,1,-1
 464 0 l 1,2,-1
 381 0 l 1,3,-1
 381 47 l 1,4,5
 322 0 322 0 247 0 c 0,6,7
 157 0 157 0 93.5 63.5 c 128,-1,8
 30 127 30 127 30 217 c 128,-1,9
 30 307 30 307 93.5 370.5 c 128,-1,10
 157 434 157 434 247 434 c 0,11,12
 322 434 322 434 381 387 c 1,13,-1
 381 434 l 1,0,-1
247 83 m 128,-1,15
 302 83 302 83 341.5 122.5 c 128,-1,16
 381 162 381 162 381 217 c 128,-1,17
 381 272 381 272 341.5 311.5 c 128,-1,18
 302 351 302 351 247 351 c 0,19,20
 211 351 211 351 180 333 c 128,-1,21
 149 315 149 315 131 284 c 128,-1,22
 113 253 113 253 113 217 c 0,23,24
 113 162 113 162 152.5 122.5 c 128,-1,14
 192 83 192 83 247 83 c 128,-1,15
412 553 m 1,25,-1
 319 460 l 1,26,-1
 246 460 l 1,27,-1
 339 553 l 1,28,-1
 412 553 l 1,25,-1
EndSplineSet
Validated: 1
EndChar

StartChar: acircumflex
Encoding: 226 226 151
Width: 494
GlyphClass: 2
Flags: W
LayerCount: 2
Fore
SplineSet
381 434 m 1,0,-1
 464 434 l 1,1,-1
 464 0 l 1,2,-1
 381 0 l 1,3,-1
 381 47 l 1,4,5
 322 0 322 0 247 0 c 0,6,7
 157 0 157 0 93.5 63.5 c 128,-1,8
 30 127 30 127 30 217 c 128,-1,9
 30 307 30 307 93.5 370.5 c 128,-1,10
 157 434 157 434 247 434 c 0,11,12
 322 434 322 434 381 387 c 1,13,-1
 381 434 l 1,0,-1
247 83 m 128,-1,15
 302 83 302 83 341.5 122.5 c 128,-1,16
 381 162 381 162 381 217 c 128,-1,17
 381 272 381 272 341.5 311.5 c 128,-1,18
 302 351 302 351 247 351 c 0,19,20
 211 351 211 351 180 333 c 128,-1,21
 149 315 149 315 131 284 c 128,-1,22
 113 253 113 253 113 217 c 0,23,24
 113 162 113 162 152.5 122.5 c 128,-1,14
 192 83 192 83 247 83 c 128,-1,15
247 511 m 1,25,-1
 114 444 l 1,26,-1
 91 490 l 1,27,-1
 247 569 l 1,28,-1
 403 490 l 1,29,-1
 380 444 l 1,30,-1
 247 511 l 1,25,-1
EndSplineSet
Validated: 1
EndChar

StartChar: atilde
Encoding: 227 227 152
Width: 494
GlyphClass: 2
Flags: W
LayerCount: 2
Fore
SplineSet
464 434 m 1,0,-1
 464 217 l 1,1,2
 464 217 464 217 464 0 c 1,3,-1
 381 0 l 1,4,-1
 381 47 l 1,5,6
 323 0 323 0 247 0 c 0,7,8
 157 0 157 0 93.5 63.5 c 128,-1,9
 30 127 30 127 30 217 c 128,-1,10
 30 307 30 307 93.5 370.5 c 128,-1,11
 157 434 157 434 247 434 c 0,12,13
 321 434 321 434 381 387 c 1,14,-1
 381 434 l 1,15,-1
 464 434 l 1,0,-1
247 83 m 128,-1,17
 302 83 302 83 341.5 122.5 c 128,-1,18
 381 162 381 162 381 217 c 128,-1,19
 381 272 381 272 341.5 311.5 c 128,-1,20
 302 351 302 351 247 351 c 128,-1,21
 192 351 192 351 152.5 311.5 c 128,-1,22
 113 272 113 272 113 217 c 128,-1,23
 113 162 113 162 152.5 122.5 c 128,-1,16
 192 83 192 83 247 83 c 128,-1,17
160 508 m 0,24,25
 143 496 143 496 139 478 c 1,26,-1
 89 490 l 1,27,28
 98 531 98 531 133 552 c 0,29,30
 157 567 157 567 185 567 c 0,31,32
 196 567 196 567 208 564 c 0,33,34
 247 555 247 555 269 520 c 0,35,36
 279 504 279 504 298 499 c 0,37,38
 302 498 302 498 309 498 c 0,39,40
 323 498 323 498 334 505 c 0,41,42
 351 517 351 517 355 534 c 1,43,-1
 405 523 l 1,44,45
 396 482 396 482 361 461 c 0,46,47
 337 446 337 446 309 446 c 0,48,49
 298 446 298 446 287 449 c 0,50,51
 246 458 246 458 225 493 c 0,52,53
 213 510 213 510 196 514 c 0,54,55
 194 514 194 514 190.5 514.5 c 128,-1,56
 187 515 187 515 185 515 c 0,57,58
 174 515 174 515 160 508 c 0,24,25
EndSplineSet
Validated: 1
EndChar

StartChar: adieresis
Encoding: 228 228 153
Width: 494
GlyphClass: 2
Flags: W
LayerCount: 2
Fore
SplineSet
381 434 m 1,0,-1
 464 434 l 1,1,-1
 464 0 l 1,2,-1
 381 0 l 1,3,-1
 381 47 l 1,4,5
 322 0 322 0 247 0 c 0,6,7
 157 0 157 0 93.5 63.5 c 128,-1,8
 30 127 30 127 30 217 c 128,-1,9
 30 307 30 307 93.5 370.5 c 128,-1,10
 157 434 157 434 247 434 c 0,11,12
 322 434 322 434 381 387 c 1,13,-1
 381 434 l 1,0,-1
247 83 m 128,-1,15
 302 83 302 83 341.5 122.5 c 128,-1,16
 381 162 381 162 381 217 c 0,17,18
 381 253 381 253 363 284 c 128,-1,19
 345 315 345 315 314 333 c 128,-1,20
 283 351 283 351 247 351 c 128,-1,21
 211 351 211 351 180 333 c 128,-1,22
 149 315 149 315 131 284 c 128,-1,23
 113 253 113 253 113 217 c 0,24,25
 113 162 113 162 152.5 122.5 c 128,-1,14
 192 83 192 83 247 83 c 128,-1,15
348 460 m 0,26,27
 329 460 329 460 315 473.5 c 128,-1,28
 301 487 301 487 301 506 c 128,-1,29
 301 525 301 525 315 539 c 128,-1,30
 329 553 329 553 348 553 c 128,-1,31
 367 553 367 553 380.5 539 c 128,-1,32
 394 525 394 525 394 506 c 0,33,34
 394 494 394 494 388 483 c 128,-1,35
 382 472 382 472 371.5 466 c 128,-1,36
 361 460 361 460 348 460 c 0,26,27
203 460 m 0,37,38
 184 460 184 460 170.5 473.5 c 128,-1,39
 157 487 157 487 157 506.5 c 128,-1,40
 157 526 157 526 170.5 539.5 c 128,-1,41
 184 553 184 553 203 553 c 128,-1,42
 222 553 222 553 236 539.5 c 128,-1,43
 250 526 250 526 250 506 c 0,44,45
 250 497 250 497 246 488.5 c 128,-1,46
 242 480 242 480 236 473.5 c 128,-1,47
 230 467 230 467 221.5 463.5 c 128,-1,48
 213 460 213 460 203 460 c 0,37,38
EndSplineSet
Validated: 1
EndChar

StartChar: aring
Encoding: 229 229 154
Width: 494
GlyphClass: 2
Flags: W
LayerCount: 2
Fore
SplineSet
464 432 m 1,0,-1
 464 -2 l 1,1,-1
 381 -2 l 1,2,-1
 381 44 l 1,3,4
 322 -2 322 -2 247 -2 c 0,5,6
 157 -2 157 -2 93.5 61.5 c 128,-1,7
 30 125 30 125 30 215 c 0,8,9
 30 303 30 303 91 366 c 128,-1,10
 152 429 152 429 240 432 c 1,11,12
 202 435 202 435 175.5 463 c 128,-1,13
 149 491 149 491 149 530 c 0,14,15
 149 570 149 570 177.5 599 c 128,-1,16
 206 628 206 628 247 628 c 128,-1,17
 288 628 288 628 316.5 599 c 128,-1,18
 345 570 345 570 345 530 c 0,19,20
 345 492 345 492 319 463.5 c 128,-1,21
 293 435 293 435 255 432 c 1,22,23
 324 429 324 429 381 385 c 1,24,-1
 381 432 l 1,25,-1
 464 432 l 1,0,-1
247 81 m 128,-1,27
 302 81 302 81 341.5 120.5 c 128,-1,28
 381 160 381 160 381 215 c 128,-1,29
 381 270 381 270 341.5 309.5 c 128,-1,30
 302 349 302 349 247 349 c 128,-1,31
 192 349 192 349 152.5 309.5 c 128,-1,32
 113 270 113 270 113 215 c 128,-1,33
 113 160 113 160 152.5 120.5 c 128,-1,26
 192 81 192 81 247 81 c 128,-1,27
201 530 m 128,-1,35
 201 510 201 510 214.5 497 c 128,-1,36
 228 484 228 484 247 484 c 128,-1,37
 266 484 266 484 279.5 497 c 128,-1,38
 293 510 293 510 293 530 c 128,-1,39
 293 550 293 550 279.5 563 c 128,-1,40
 266 576 266 576 247 576 c 128,-1,41
 228 576 228 576 214.5 563 c 128,-1,34
 201 550 201 550 201 530 c 128,-1,35
EndSplineSet
Validated: 1
EndChar

StartChar: ae
Encoding: 230 230 155
Width: 846
GlyphClass: 2
Flags: W
LayerCount: 2
Fore
SplineSet
724 170 m 1,0,-1
 472 170 l 1,1,2
 486 131 486 131 520.5 106 c 128,-1,3
 555 81 555 81 598 81 c 0,4,5
 636 81 636 81 668 100 c 1,6,-1
 727 41 l 1,7,8
 670 -2 670 -2 598 -2 c 0,9,10
 523 -2 523 -2 464 44 c 1,11,-1
 464 -2 l 1,12,-1
 381 -2 l 1,13,-1
 381 44 l 1,14,15
 322 -2 322 -2 247 -2 c 0,16,17
 157 -2 157 -2 93.5 61.5 c 128,-1,18
 30 125 30 125 30 215 c 128,-1,19
 30 305 30 305 93.5 368.5 c 128,-1,20
 157 432 157 432 247 432 c 0,21,22
 322 432 322 432 381 385 c 1,23,-1
 381 432 l 1,24,-1
 464 432 l 1,25,-1
 464 385 l 1,26,27
 523 432 523 432 598 432 c 0,28,29
 688 432 688 432 751.5 368.5 c 128,-1,30
 815 305 815 305 815 215 c 0,31,32
 815 192 815 192 810 170 c 1,33,-1
 724 170 l 1,0,-1
247 81 m 128,-1,35
 302 81 302 81 341.5 120 c 128,-1,36
 381 159 381 159 381 214.5 c 128,-1,37
 381 270 381 270 341.5 309.5 c 128,-1,38
 302 349 302 349 247 349 c 0,39,40
 211 349 211 349 180 331 c 128,-1,41
 149 313 149 313 131 282 c 128,-1,42
 113 251 113 251 113 215 c 0,43,44
 113 159 113 159 152.5 120 c 128,-1,34
 192 81 192 81 247 81 c 128,-1,35
470 253 m 1,45,-1
 726 253 l 1,46,47
 721 270 721 270 712.5 284.5 c 128,-1,48
 704 299 704 299 691.5 310.5 c 128,-1,49
 679 322 679 322 664.5 331 c 128,-1,50
 650 340 650 340 633 344.5 c 128,-1,51
 616 349 616 349 598 349 c 0,52,53
 568 349 568 349 541.5 336.5 c 128,-1,54
 515 324 515 324 496.5 302.5 c 128,-1,55
 478 281 478 281 470 253 c 1,45,-1
EndSplineSet
Validated: 1
EndChar

StartChar: ccedilla
Encoding: 231 231 156
Width: 431
GlyphClass: 2
Flags: W
LayerCount: 2
Fore
SplineSet
400 61 m 1,0,1
 337 -2 337 -2 247 -2 c 2,2,-1
 243 -2 l 1,3,4
 256 -7 256 -7 265 -13 c 0,5,6
 297 -36 297 -36 297 -70 c 0,7,8
 297 -106 297 -106 265 -127 c 0,9,10
 237 -147 237 -147 199 -147 c 128,-1,11
 161 -147 161 -147 133 -127 c 1,12,-1
 163 -85 l 1,13,14
 178 -95 178 -95 199 -95 c 128,-1,15
 220 -95 220 -95 235 -85 c 0,16,17
 245 -78 245 -78 245 -70 c 0,18,19
 245 -63 245 -63 235 -56 c 0,20,21
 222 -46 222 -46 199 -46 c 2,22,-1
 152 -46 l 1,23,-1
 185 7 l 1,24,25
 117 27 117 27 73.5 84 c 128,-1,26
 30 141 30 141 30 215 c 0,27,28
 30 305 30 305 93.5 368.5 c 128,-1,29
 157 432 157 432 247 432 c 0,30,31
 336 432 336 432 400 368 c 1,32,-1
 342 310 l 1,33,34
 301 349 301 349 247 349 c 0,35,36
 192 349 192 349 152.5 309.5 c 128,-1,37
 113 270 113 270 113 215 c 128,-1,38
 113 160 113 160 152.5 120.5 c 128,-1,39
 192 81 192 81 247 81 c 0,40,41
 301 81 301 81 342 120 c 1,42,-1
 400 61 l 1,0,1
EndSplineSet
Validated: 1
EndChar

StartChar: egrave
Encoding: 232 232 157
Width: 494
GlyphClass: 2
Flags: W
LayerCount: 2
Fore
SplineSet
373 170 m 1,0,-1
 121 170 l 1,1,2
 130 144 130 144 148.5 124 c 128,-1,3
 167 104 167 104 192.5 92.5 c 128,-1,4
 218 81 218 81 247 81 c 0,5,6
 285 81 285 81 317 100 c 1,7,-1
 376 41 l 1,8,9
 319 -2 319 -2 247 -2 c 0,10,11
 157 -2 157 -2 93.5 61.5 c 128,-1,12
 30 125 30 125 30 215 c 128,-1,13
 30 305 30 305 93.5 368.5 c 128,-1,14
 157 432 157 432 247 432 c 128,-1,15
 337 432 337 432 400.5 368.5 c 128,-1,16
 464 305 464 305 464 215 c 0,17,18
 464 192 464 192 459 170 c 1,19,-1
 373 170 l 1,0,-1
119 253 m 1,20,-1
 375 253 l 1,21,22
 367 281 367 281 348.5 302.5 c 128,-1,23
 330 324 330 324 303.5 336.5 c 128,-1,24
 277 349 277 349 247 349 c 0,25,26
 202 349 202 349 166.5 322 c 128,-1,27
 131 295 131 295 119 253 c 1,20,-1
330 457 m 1,28,-1
 257 457 l 1,29,-1
 164 550 l 1,30,-1
 237 550 l 1,31,-1
 330 457 l 1,28,-1
EndSplineSet
Validated: 1
EndChar

StartChar: eacute
Encoding: 233 233 158
Width: 494
GlyphClass: 2
Flags: W
LayerCount: 2
Fore
SplineSet
373 170 m 1,0,-1
 121 170 l 1,1,2
 135 131 135 131 169.5 106 c 128,-1,3
 204 81 204 81 247 81 c 0,4,5
 285 81 285 81 317 100 c 1,6,-1
 376 41 l 1,7,8
 319 -2 319 -2 247 -2 c 0,9,10
 157 -2 157 -2 93.5 61.5 c 128,-1,11
 30 125 30 125 30 215 c 128,-1,12
 30 305 30 305 93.5 368.5 c 128,-1,13
 157 432 157 432 247 432 c 128,-1,14
 337 432 337 432 400.5 368.5 c 128,-1,15
 464 305 464 305 464 215 c 0,16,17
 464 192 464 192 459 170 c 1,18,-1
 373 170 l 1,0,-1
119 253 m 1,19,-1
 375 253 l 1,20,21
 369 274 369 274 356.5 291.5 c 128,-1,22
 344 309 344 309 327.5 321.5 c 128,-1,23
 311 334 311 334 290 341.5 c 128,-1,24
 269 349 269 349 247 349 c 0,25,26
 202 349 202 349 166.5 322 c 128,-1,27
 131 295 131 295 119 253 c 1,19,-1
330 550 m 1,28,-1
 237 457 l 1,29,-1
 164 457 l 1,30,-1
 257 550 l 1,31,-1
 330 550 l 1,28,-1
EndSplineSet
Validated: 1
EndChar

StartChar: ecircumflex
Encoding: 234 234 159
Width: 494
GlyphClass: 2
Flags: W
LayerCount: 2
Fore
SplineSet
373 170 m 1,0,-1
 121 170 l 1,1,2
 130 144 130 144 148.5 124 c 128,-1,3
 167 104 167 104 192.5 92.5 c 128,-1,4
 218 81 218 81 247 81 c 0,5,6
 285 81 285 81 317 100 c 1,7,-1
 376 41 l 1,8,9
 319 -2 319 -2 247 -2 c 0,10,11
 157 -2 157 -2 93.5 61.5 c 128,-1,12
 30 125 30 125 30 215 c 128,-1,13
 30 305 30 305 93.5 368.5 c 128,-1,14
 157 432 157 432 247 432 c 128,-1,15
 337 432 337 432 400.5 368.5 c 128,-1,16
 464 305 464 305 464 215 c 0,17,18
 464 192 464 192 459 170 c 1,19,-1
 373 170 l 1,0,-1
119 253 m 1,20,-1
 375 253 l 1,21,22
 367 281 367 281 348.5 302.5 c 128,-1,23
 330 324 330 324 303.5 336.5 c 128,-1,24
 277 349 277 349 247 349 c 0,25,26
 202 349 202 349 166.5 322 c 128,-1,27
 131 295 131 295 119 253 c 1,20,-1
247 508 m 1,28,-1
 114 441 l 1,29,-1
 91 488 l 1,30,-1
 247 566 l 1,31,-1
 403 488 l 1,32,-1
 380 441 l 1,33,-1
 247 508 l 1,28,-1
EndSplineSet
Validated: 1
EndChar

StartChar: edieresis
Encoding: 235 235 160
Width: 494
GlyphClass: 2
Flags: W
LayerCount: 2
Fore
SplineSet
373 170 m 1,0,-1
 121 170 l 1,1,2
 135 131 135 131 169.5 106 c 128,-1,3
 204 81 204 81 247 81 c 0,4,5
 285 81 285 81 317 100 c 1,6,-1
 376 41 l 1,7,8
 319 -2 319 -2 247 -2 c 0,9,10
 157 -2 157 -2 93.5 61.5 c 128,-1,11
 30 125 30 125 30 215 c 128,-1,12
 30 305 30 305 93.5 368.5 c 128,-1,13
 157 432 157 432 247 432 c 128,-1,14
 337 432 337 432 400.5 368.5 c 128,-1,15
 464 305 464 305 464 215 c 0,16,17
 464 192 464 192 459 170 c 1,18,-1
 373 170 l 1,0,-1
119 253 m 1,19,-1
 375 253 l 1,20,21
 367 281 367 281 348.5 302.5 c 128,-1,22
 330 324 330 324 303.5 336.5 c 128,-1,23
 277 349 277 349 247 349 c 0,24,25
 202 349 202 349 166.5 322 c 128,-1,26
 131 295 131 295 119 253 c 1,19,-1
319 457 m 0,27,28
 300 457 300 457 286.5 470.5 c 128,-1,29
 273 484 273 484 273 503.5 c 128,-1,30
 273 523 273 523 286.5 536.5 c 128,-1,31
 300 550 300 550 319.5 550 c 128,-1,32
 339 550 339 550 352.5 536.5 c 128,-1,33
 366 523 366 523 366 504 c 0,34,35
 366 491 366 491 359.5 480.5 c 128,-1,36
 353 470 353 470 342.5 463.5 c 128,-1,37
 332 457 332 457 319 457 c 0,27,28
175 457 m 0,38,39
 155 457 155 457 141.5 470.5 c 128,-1,40
 128 484 128 484 128 503.5 c 128,-1,41
 128 523 128 523 141.5 536.5 c 128,-1,42
 155 550 155 550 174.5 550 c 128,-1,43
 194 550 194 550 207.5 536.5 c 128,-1,44
 221 523 221 523 221 504 c 0,45,46
 221 494 221 494 217.5 485.5 c 128,-1,47
 214 477 214 477 207.5 471 c 128,-1,48
 201 465 201 465 192.5 461 c 128,-1,49
 184 457 184 457 175 457 c 0,38,39
EndSplineSet
Validated: 1
EndChar

StartChar: igrave
Encoding: 236 236 161
Width: 227
GlyphClass: 2
Flags: W
LayerCount: 2
Fore
SplineSet
154 -2 m 1,0,-1
 72 -2 l 1,1,-1
 72 432 l 1,2,-1
 154 432 l 1,3,-1
 154 -2 l 1,0,-1
196 457 m 1,4,-1
 123 457 l 1,5,-1
 30 550 l 1,6,-1
 103 550 l 1,7,-1
 196 457 l 1,4,-1
EndSplineSet
Validated: 1
EndChar

StartChar: iacute
Encoding: 237 237 162
Width: 227
GlyphClass: 2
Flags: W
LayerCount: 2
Fore
SplineSet
154 -2 m 1,0,-1
 72 -2 l 1,1,-1
 72 432 l 1,2,-1
 154 432 l 1,3,-1
 154 -2 l 1,0,-1
196 550 m 1,4,-1
 103 457 l 1,5,-1
 30 457 l 1,6,-1
 123 550 l 1,7,-1
 196 550 l 1,4,-1
EndSplineSet
Validated: 1
EndChar

StartChar: icircumflex
Encoding: 238 238 163
Width: 373
GlyphClass: 2
Flags: W
LayerCount: 2
Fore
SplineSet
228 -2 m 1,0,-1
 145 -2 l 1,1,-1
 145 432 l 1,2,-1
 228 432 l 1,3,-1
 228 -2 l 1,0,-1
186 566 m 1,4,-1
 343 488 l 1,5,-1
 319 441 l 1,6,-1
 186 508 l 1,7,-1
 53 441 l 1,8,-1
 30 488 l 1,9,-1
 186 566 l 1,4,-1
EndSplineSet
Validated: 1
EndChar

StartChar: idieresis
Encoding: 239 239 164
Width: 298
GlyphClass: 2
Flags: W
LayerCount: 2
Fore
SplineSet
190 -2 m 1,0,-1
 107 -2 l 1,1,-1
 107 432 l 1,2,-1
 190 432 l 1,3,-1
 190 -2 l 1,0,-1
221 550 m 128,-1,5
 240 550 240 550 253.5 536.5 c 128,-1,6
 267 523 267 523 267 503.5 c 128,-1,7
 267 484 267 484 253.5 470.5 c 128,-1,8
 240 457 240 457 221 457 c 128,-1,9
 202 457 202 457 188.5 470.5 c 128,-1,10
 175 484 175 484 175 503.5 c 128,-1,11
 175 523 175 523 188.5 536.5 c 128,-1,4
 202 550 202 550 221 550 c 128,-1,5
76.5 457 m 128,-1,13
 57 457 57 457 43.5 470.5 c 128,-1,14
 30 484 30 484 30 503.5 c 128,-1,15
 30 523 30 523 43.5 536.5 c 128,-1,16
 57 550 57 550 76.5 550 c 128,-1,17
 96 550 96 550 109.5 536.5 c 128,-1,18
 123 523 123 523 123 503.5 c 128,-1,19
 123 484 123 484 109.5 470.5 c 128,-1,12
 96 457 96 457 76.5 457 c 128,-1,13
EndSplineSet
Validated: 1
EndChar

StartChar: eth
Encoding: 240 240 165
Width: 511
GlyphClass: 2
Flags: W
LayerCount: 2
Fore
SplineSet
247 107 m 128,-1,1
 302 107 302 107 341.5 146.5 c 128,-1,2
 381 186 381 186 381 241 c 128,-1,3
 381 296 381 296 341.5 335.5 c 128,-1,4
 302 375 302 375 247 375 c 128,-1,5
 192 375 192 375 152.5 335.5 c 128,-1,6
 113 296 113 296 113 241 c 128,-1,7
 113 186 113 186 152.5 146.5 c 128,-1,0
 192 107 192 107 247 107 c 128,-1,1
480 578 m 1,8,-1
 410 555 l 1,9,10
 464 418 464 418 464 241 c 0,11,12
 464 151 464 151 400.5 87.5 c 128,-1,13
 337 24 337 24 247 24 c 128,-1,14
 157 24 157 24 93.5 87.5 c 128,-1,15
 30 151 30 151 30 241 c 128,-1,16
 30 331 30 331 93.5 394.5 c 128,-1,17
 157 458 157 458 247 458 c 0,18,19
 310 458 310 458 362 425 c 1,20,21
 350 482 350 482 332 529 c 1,22,-1
 263 506 l 1,23,-1
 247 555 l 1,24,-1
 309 576 l 1,25,26
 282 626 282 626 255 647 c 1,27,-1
 255 740 l 1,28,29
 332 715 332 715 389 603 c 1,30,-1
 464 627 l 1,31,-1
 480 578 l 1,8,-1
EndSplineSet
Validated: 1
EndChar

StartChar: ntilde
Encoding: 241 241 166
Width: 495
GlyphClass: 2
Flags: W
LayerCount: 2
Fore
SplineSet
160 510 m 0,0,1
 144 500 144 500 139 481 c 1,2,-1
 89 493 l 1,3,4
 98 533 98 533 133 554 c 0,5,6
 157 569 157 569 185 569 c 0,7,8
 200 569 200 569 207 567 c 0,9,10
 247 558 247 558 269 523 c 0,11,12
 279 507 279 507 298 502 c 0,13,14
 302 501 302 501 309 501 c 0,15,16
 323 501 323 501 334 508 c 0,17,18
 351 520 351 520 355 537 c 1,19,-1
 405 525 l 1,20,21
 395 485 395 485 361 464 c 0,22,23
 337 449 337 449 309 449 c 0,24,25
 301 449 301 449 287 451 c 0,26,27
 247 460 247 460 225 495 c 0,28,29
 215 511 215 511 196 516 c 0,30,31
 188 518 188 518 185 518 c 0,32,33
 173 518 173 518 160 510 c 0,0,1
464 220 m 2,34,-1
 464 3 l 1,35,-1
 381 3 l 1,36,-1
 381 220 l 2,37,38
 381 276 381 276 341.5 315 c 128,-1,39
 302 354 302 354 247 354 c 128,-1,40
 192 354 192 354 152.5 315 c 128,-1,41
 113 276 113 276 113 220 c 2,42,-1
 113 3 l 1,43,-1
 30 3 l 1,44,-1
 30 220 l 2,45,46
 30 310 30 310 93.5 373.5 c 128,-1,47
 157 437 157 437 247 437 c 128,-1,48
 337 437 337 437 400.5 373.5 c 128,-1,49
 464 310 464 310 464 220 c 2,34,-1
EndSplineSet
Validated: 1
EndChar

StartChar: ograve
Encoding: 242 242 167
Width: 494
GlyphClass: 2
Flags: W
LayerCount: 2
Fore
SplineSet
247 437 m 0,0,1
 306 437 306 437 356 408 c 128,-1,2
 406 379 406 379 435 329 c 128,-1,3
 464 279 464 279 464 220 c 0,4,5
 464 130 464 130 400.5 66.5 c 128,-1,6
 337 3 337 3 247 3 c 128,-1,7
 157 3 157 3 93.5 66.5 c 128,-1,8
 30 130 30 130 30 220 c 128,-1,9
 30 310 30 310 93.5 373.5 c 128,-1,10
 157 437 157 437 247 437 c 0,0,1
247 86 m 128,-1,12
 302 86 302 86 341.5 125 c 128,-1,13
 381 164 381 164 381 220 c 0,14,15
 381 256 381 256 363 287 c 128,-1,16
 345 318 345 318 314 336 c 128,-1,17
 283 354 283 354 247 354 c 0,18,19
 192 354 192 354 152.5 314.5 c 128,-1,20
 113 275 113 275 113 219.5 c 128,-1,21
 113 164 113 164 152.5 125 c 128,-1,11
 192 86 192 86 247 86 c 128,-1,12
330 463 m 1,22,-1
 257 463 l 1,23,-1
 164 556 l 1,24,-1
 237 556 l 1,25,-1
 330 463 l 1,22,-1
EndSplineSet
Validated: 1
EndChar

StartChar: oacute
Encoding: 243 243 168
Width: 494
GlyphClass: 2
Flags: W
LayerCount: 2
Fore
SplineSet
247 437 m 128,-1,1
 337 437 337 437 400.5 373.5 c 128,-1,2
 464 310 464 310 464 220 c 128,-1,3
 464 130 464 130 400.5 66.5 c 128,-1,4
 337 3 337 3 247 3 c 128,-1,5
 157 3 157 3 93.5 66.5 c 128,-1,6
 30 130 30 130 30 220 c 128,-1,7
 30 310 30 310 93.5 373.5 c 128,-1,0
 157 437 157 437 247 437 c 128,-1,1
247 86 m 128,-1,9
 302 86 302 86 341.5 125 c 128,-1,10
 381 164 381 164 381 219.5 c 128,-1,11
 381 275 381 275 341.5 314.5 c 128,-1,12
 302 354 302 354 247 354 c 0,13,14
 211 354 211 354 180 336 c 128,-1,15
 149 318 149 318 131 287 c 128,-1,16
 113 256 113 256 113 220 c 0,17,18
 113 164 113 164 152.5 125 c 128,-1,8
 192 86 192 86 247 86 c 128,-1,9
330 556 m 1,19,-1
 237 463 l 1,20,-1
 164 463 l 1,21,-1
 257 556 l 1,22,-1
 330 556 l 1,19,-1
EndSplineSet
Validated: 1
EndChar

StartChar: ocircumflex
Encoding: 244 244 169
Width: 494
GlyphClass: 2
Flags: W
LayerCount: 2
Fore
SplineSet
247 437 m 128,-1,1
 337 437 337 437 400.5 373.5 c 128,-1,2
 464 310 464 310 464 220 c 128,-1,3
 464 130 464 130 400.5 66.5 c 128,-1,4
 337 3 337 3 247 3 c 128,-1,5
 157 3 157 3 93.5 66.5 c 128,-1,6
 30 130 30 130 30 220 c 128,-1,7
 30 310 30 310 93.5 373.5 c 128,-1,0
 157 437 157 437 247 437 c 128,-1,1
247 86 m 128,-1,9
 302 86 302 86 341.5 125 c 128,-1,10
 381 164 381 164 381 219.5 c 128,-1,11
 381 275 381 275 341.5 314.5 c 128,-1,12
 302 354 302 354 247 354 c 0,13,14
 211 354 211 354 180 336 c 128,-1,15
 149 318 149 318 131 287 c 128,-1,16
 113 256 113 256 113 220 c 0,17,18
 113 164 113 164 152.5 125 c 128,-1,8
 192 86 192 86 247 86 c 128,-1,9
247 513 m 1,19,-1
 114 447 l 1,20,-1
 91 493 l 1,21,-1
 247 571 l 1,22,-1
 403 493 l 1,23,-1
 380 447 l 1,24,-1
 247 513 l 1,19,-1
EndSplineSet
Validated: 1
EndChar

StartChar: otilde
Encoding: 245 245 170
Width: 494
GlyphClass: 2
Flags: W
LayerCount: 2
Fore
SplineSet
160 510 m 0,0,1
 144 500 144 500 139 481 c 1,2,-1
 89 493 l 1,3,4
 98 533 98 533 133 554 c 0,5,6
 157 569 157 569 185 569 c 0,7,8
 200 569 200 569 208 567 c 0,9,10
 247 558 247 558 269 523 c 0,11,12
 279 507 279 507 298 502 c 0,13,14
 302 501 302 501 309 501 c 0,15,16
 323 501 323 501 334 508 c 0,17,18
 351 520 351 520 355 537 c 1,19,-1
 405 525 l 1,20,21
 395 485 395 485 361 464 c 0,22,23
 337 449 337 449 309 449 c 0,24,25
 301 449 301 449 287 451 c 0,26,27
 247 460 247 460 225 495 c 0,28,29
 213 513 213 513 196 516 c 0,30,31
 188 518 188 518 185 518 c 0,32,33
 173 518 173 518 160 510 c 0,0,1
247 86 m 128,-1,35
 302 86 302 86 341.5 125 c 128,-1,36
 381 164 381 164 381 220 c 128,-1,37
 381 276 381 276 341.5 315 c 128,-1,38
 302 354 302 354 247 354 c 128,-1,39
 192 354 192 354 152.5 315 c 128,-1,40
 113 276 113 276 113 220 c 128,-1,41
 113 164 113 164 152.5 125 c 128,-1,34
 192 86 192 86 247 86 c 128,-1,35
247 437 m 128,-1,43
 337 437 337 437 400.5 373.5 c 128,-1,44
 464 310 464 310 464 220 c 128,-1,45
 464 130 464 130 400.5 66.5 c 128,-1,46
 337 3 337 3 247 3 c 128,-1,47
 157 3 157 3 93.5 66.5 c 128,-1,48
 30 130 30 130 30 220 c 128,-1,49
 30 310 30 310 93.5 373.5 c 128,-1,42
 157 437 157 437 247 437 c 128,-1,43
EndSplineSet
Validated: 1
EndChar

StartChar: odieresis
Encoding: 246 246 171
Width: 494
GlyphClass: 2
Flags: W
LayerCount: 2
Fore
SplineSet
175 463 m 0,0,1
 155 463 155 463 141.5 476.5 c 128,-1,2
 128 490 128 490 128 509 c 128,-1,3
 128 528 128 528 142 542 c 128,-1,4
 156 556 156 556 175 556 c 128,-1,5
 194 556 194 556 207.5 542 c 128,-1,6
 221 528 221 528 221 509 c 128,-1,7
 221 490 221 490 207.5 476.5 c 128,-1,8
 194 463 194 463 175 463 c 0,0,1
319 463 m 0,9,10
 300 463 300 463 286.5 476.5 c 128,-1,11
 273 490 273 490 273 509 c 128,-1,12
 273 528 273 528 286.5 542 c 128,-1,13
 300 556 300 556 319 556 c 128,-1,14
 338 556 338 556 352 542 c 128,-1,15
 366 528 366 528 366 509 c 128,-1,16
 366 490 366 490 352.5 476.5 c 128,-1,17
 339 463 339 463 319 463 c 0,9,10
247 86 m 128,-1,19
 302 86 302 86 341.5 125 c 128,-1,20
 381 164 381 164 381 220 c 128,-1,21
 381 276 381 276 341.5 315 c 128,-1,22
 302 354 302 354 247 354 c 128,-1,23
 192 354 192 354 152.5 315 c 128,-1,24
 113 276 113 276 113 220 c 128,-1,25
 113 164 113 164 152.5 125 c 128,-1,18
 192 86 192 86 247 86 c 128,-1,19
247 437 m 128,-1,27
 337 437 337 437 400.5 373.5 c 128,-1,28
 464 310 464 310 464 220 c 128,-1,29
 464 130 464 130 400.5 66.5 c 128,-1,30
 337 3 337 3 247 3 c 128,-1,31
 157 3 157 3 93.5 66.5 c 128,-1,32
 30 130 30 130 30 220 c 128,-1,33
 30 310 30 310 93.5 373.5 c 128,-1,26
 157 437 157 437 247 437 c 128,-1,27
EndSplineSet
Validated: 1
EndChar

StartChar: divide
Encoding: 247 247 172
Width: 494
GlyphClass: 2
Flags: W
LayerCount: 2
Fore
SplineSet
247 400 m 128,-1,1
 230 400 230 400 218 412 c 128,-1,2
 206 424 206 424 206 442 c 0,3,4
 206 453 206 453 211.5 462.5 c 128,-1,5
 217 472 217 472 226.5 477.5 c 128,-1,6
 236 483 236 483 247 483 c 0,7,8
 264 483 264 483 276 471 c 128,-1,9
 288 459 288 459 288 441.5 c 128,-1,10
 288 424 288 424 276 412 c 128,-1,0
 264 400 264 400 247 400 c 128,-1,1
247 111 m 128,-1,12
 264 111 264 111 276 98.5 c 128,-1,13
 288 86 288 86 288 69 c 128,-1,14
 288 52 288 52 276 40 c 128,-1,15
 264 28 264 28 247 28 c 128,-1,16
 230 28 230 28 218 40 c 128,-1,17
 206 52 206 52 206 69 c 128,-1,18
 206 86 206 86 218 98.5 c 128,-1,11
 230 111 230 111 247 111 c 128,-1,12
464 214 m 1,19,-1
 30 214 l 1,20,-1
 30 297 l 1,21,-1
 464 297 l 1,22,-1
 464 214 l 1,19,-1
EndSplineSet
Validated: 1
EndChar

StartChar: oslash
Encoding: 248 248 173
Width: 494
GlyphClass: 2
Flags: W
LayerCount: 2
Fore
SplineSet
464 400 m 1,0,-1
 418 354 l 1,1,2
 464 295 464 295 464 220 c 0,3,4
 464 130 464 130 400.5 66.5 c 128,-1,5
 337 3 337 3 247 3 c 0,6,7
 172 3 172 3 113 49 c 1,8,-1
 67 3 l 1,9,-1
 30 39 l 1,10,-1
 76 86 l 1,11,12
 30 145 30 145 30 220 c 0,13,14
 30 310 30 310 93.5 373.5 c 128,-1,15
 157 437 157 437 247 437 c 0,16,17
 322 437 322 437 381 390 c 1,18,-1
 427 437 l 1,19,-1
 464 400 l 1,0,-1
113 220 m 0,20,21
 113 179 113 179 136 145 c 1,22,-1
 322 331 l 1,23,24
 288 354 288 354 247 354 c 0,25,26
 191 354 191 354 152 314.5 c 128,-1,27
 113 275 113 275 113 220 c 0,20,21
247 86 m 0,28,29
 302 86 302 86 341.5 125 c 128,-1,30
 381 164 381 164 381 220 c 0,31,32
 381 261 381 261 358 294 c 1,33,-1
 172 108 l 1,34,35
 206 86 206 86 247 86 c 0,28,29
EndSplineSet
Validated: 1
EndChar

StartChar: ugrave
Encoding: 249 249 174
Width: 495
GlyphClass: 2
Flags: W
LayerCount: 2
Fore
SplineSet
381 437 m 1,0,-1
 464 437 l 1,1,-1
 464 220 l 2,2,3
 464 130 464 130 400.5 66.5 c 128,-1,4
 337 3 337 3 247 3 c 128,-1,5
 157 3 157 3 93.5 66.5 c 128,-1,6
 30 130 30 130 30 220 c 2,7,-1
 30 437 l 1,8,-1
 113 437 l 1,9,-1
 113 220 l 2,10,11
 113 183 113 183 131 152.5 c 128,-1,12
 149 122 149 122 180 104 c 128,-1,13
 211 86 211 86 247 86 c 0,14,15
 302 86 302 86 341.5 125 c 128,-1,16
 381 164 381 164 381 220 c 2,17,-1
 381 437 l 1,0,-1
330 463 m 1,18,-1
 257 463 l 1,19,-1
 164 556 l 1,20,-1
 237 556 l 1,21,-1
 330 463 l 1,18,-1
EndSplineSet
Validated: 1
EndChar

StartChar: uacute
Encoding: 250 250 175
Width: 495
GlyphClass: 2
Flags: W
LayerCount: 2
Fore
SplineSet
381 437 m 1,0,-1
 464 437 l 1,1,-1
 464 220 l 2,2,3
 464 130 464 130 400.5 66.5 c 128,-1,4
 337 3 337 3 247 3 c 128,-1,5
 157 3 157 3 93.5 66.5 c 128,-1,6
 30 130 30 130 30 220 c 2,7,-1
 30 437 l 1,8,-1
 113 437 l 1,9,-1
 113 220 l 2,10,11
 113 183 113 183 131 152.5 c 128,-1,12
 149 122 149 122 180 104 c 128,-1,13
 211 86 211 86 247 86 c 0,14,15
 302 86 302 86 341.5 125 c 128,-1,16
 381 164 381 164 381 220 c 2,17,-1
 381 437 l 1,0,-1
330 556 m 1,18,-1
 237 463 l 1,19,-1
 164 463 l 1,20,-1
 257 556 l 1,21,-1
 330 556 l 1,18,-1
EndSplineSet
Validated: 1
EndChar

StartChar: ucircumflex
Encoding: 251 251 176
Width: 495
GlyphClass: 2
Flags: W
LayerCount: 2
Fore
SplineSet
381 437 m 1,0,-1
 464 437 l 1,1,-1
 464 220 l 2,2,3
 464 130 464 130 400.5 66.5 c 128,-1,4
 337 3 337 3 247 3 c 128,-1,5
 157 3 157 3 93.5 66.5 c 128,-1,6
 30 130 30 130 30 220 c 2,7,-1
 30 437 l 1,8,-1
 113 437 l 1,9,-1
 113 220 l 2,10,11
 113 183 113 183 131 152.5 c 128,-1,12
 149 122 149 122 180 104 c 128,-1,13
 211 86 211 86 247 86 c 0,14,15
 302 86 302 86 341.5 125 c 128,-1,16
 381 164 381 164 381 220 c 2,17,-1
 381 437 l 1,0,-1
247 513 m 1,18,-1
 114 447 l 1,19,-1
 91 493 l 1,20,-1
 247 571 l 1,21,-1
 403 493 l 1,22,-1
 380 447 l 1,23,-1
 247 513 l 1,18,-1
EndSplineSet
Validated: 1
EndChar

StartChar: udieresis
Encoding: 252 252 177
Width: 494
GlyphClass: 2
Flags: W
LayerCount: 2
Fore
SplineSet
381 434 m 1,0,-1
 464 434 l 1,1,-1
 464 217 l 2,2,3
 464 127 464 127 400.5 63.5 c 128,-1,4
 337 0 337 0 247 0 c 128,-1,5
 157 0 157 0 93.5 63.5 c 128,-1,6
 30 127 30 127 30 217 c 2,7,-1
 30 434 l 1,8,-1
 113 434 l 1,9,-1
 113 217 l 2,10,11
 113 162 113 162 152.5 122.5 c 128,-1,12
 192 83 192 83 247 83 c 128,-1,13
 302 83 302 83 341.5 122.5 c 128,-1,14
 381 162 381 162 381 217 c 2,15,-1
 381 434 l 1,0,-1
319.5 450 m 128,-1,17
 300 450 300 450 286.5 463.5 c 128,-1,18
 273 477 273 477 273 496.5 c 128,-1,19
 273 516 273 516 286.5 529.5 c 128,-1,20
 300 543 300 543 319.5 543 c 128,-1,21
 339 543 339 543 352.5 529.5 c 128,-1,22
 366 516 366 516 366 496.5 c 128,-1,23
 366 477 366 477 352.5 463.5 c 128,-1,16
 339 450 339 450 319.5 450 c 128,-1,17
174.5 450 m 128,-1,25
 155 450 155 450 141.5 463.5 c 128,-1,26
 128 477 128 477 128 496.5 c 128,-1,27
 128 516 128 516 141.5 529.5 c 128,-1,28
 155 543 155 543 174.5 543 c 128,-1,29
 194 543 194 543 207.5 529.5 c 128,-1,30
 221 516 221 516 221 496.5 c 128,-1,31
 221 477 221 477 207.5 463.5 c 128,-1,24
 194 450 194 450 174.5 450 c 128,-1,25
EndSplineSet
Validated: 1
EndChar

StartChar: yacute
Encoding: 253 253 178
Width: 443
GlyphClass: 2
Flags: W
LayerCount: 2
Fore
SplineSet
319 458 m 1,0,-1
 412 458 l 1,1,-1
 123 -120 l 1,2,-1
 30 -120 l 1,3,-1
 175 169 l 1,4,-1
 30 458 l 1,5,-1
 123 458 l 1,6,-1
 221 262 l 1,7,-1
 319 458 l 1,0,-1
304 567 m 1,8,-1
 211 474 l 1,9,-1
 138 474 l 1,10,-1
 231 567 l 1,11,-1
 304 567 l 1,8,-1
EndSplineSet
Validated: 1
EndChar

StartChar: thorn
Encoding: 254 254 179
Width: 495
GlyphClass: 2
Flags: W
LayerCount: 2
Fore
SplineSet
247 458 m 0,0,1
 337 458 337 458 400.5 394.5 c 128,-1,2
 464 331 464 331 464 241 c 0,3,4
 464 219 464 219 460 197 c 0,5,6
 444 123 444 123 384.5 73.5 c 128,-1,7
 325 24 325 24 247 24 c 0,8,9
 232 24 232 24 213 27 c 0,10,11
 209 28 209 28 208 28 c 0,12,13
 192 31 192 31 176 36 c 0,14,15
 175 37 175 37 173 37 c 0,16,17
 140 49 140 49 113 71 c 1,18,-1
 113 -120 l 1,19,-1
 30 -120 l 1,20,-1
 30 603 l 1,21,-1
 113 603 l 1,22,-1
 113 412 l 1,23,24
 140 433 140 433 173 445 c 2,25,26
 173 445 173 445 174.5 445.5 c 128,-1,27
 176 446 176 446 176 446 c 2,28,29
 192 452 192 452 208 454 c 0,30,31
 209 455 209 455 211 455 c 128,-1,32
 213 455 213 455 213 455 c 2,33,34
 232 458 232 458 247 458 c 0,0,1
247 107 m 0,35,36
 283 107 283 107 314 125 c 128,-1,37
 345 143 345 143 363 174 c 128,-1,38
 381 205 381 205 381 241 c 0,39,40
 381 297 381 297 341.5 336 c 128,-1,41
 302 375 302 375 247 375 c 0,42,43
 211 375 211 375 180 357 c 128,-1,44
 149 339 149 339 131 308.5 c 128,-1,45
 113 278 113 278 113 241 c 0,46,47
 113 186 113 186 152.5 146.5 c 128,-1,48
 192 107 192 107 247 107 c 0,35,36
EndSplineSet
Validated: 1
EndChar

StartChar: ydieresis
Encoding: 255 255 180
Width: 443
GlyphClass: 2
Flags: W
LayerCount: 2
Fore
SplineSet
319 458 m 1,0,-1
 412 458 l 1,1,-1
 123 -120 l 1,2,-1
 30 -120 l 1,3,-1
 175 169 l 1,4,-1
 30 458 l 1,5,-1
 123 458 l 1,6,-1
 221 262 l 1,7,-1
 319 458 l 1,0,-1
293 474 m 0,8,9
 274 474 274 474 260.5 487.5 c 128,-1,10
 247 501 247 501 247 520.5 c 128,-1,11
 247 540 247 540 260.5 553.5 c 128,-1,12
 274 567 274 567 293.5 567 c 128,-1,13
 313 567 313 567 326.5 553.5 c 128,-1,14
 340 540 340 540 340 521 c 0,15,16
 340 508 340 508 333.5 497.5 c 128,-1,17
 327 487 327 487 316.5 480.5 c 128,-1,18
 306 474 306 474 293 474 c 0,8,9
148.5 474 m 128,-1,20
 129 474 129 474 115.5 487.5 c 128,-1,21
 102 501 102 501 102 520.5 c 128,-1,22
 102 540 102 540 115.5 553.5 c 128,-1,23
 129 567 129 567 148.5 567 c 128,-1,24
 168 567 168 567 181.5 553.5 c 128,-1,25
 195 540 195 540 195 520.5 c 128,-1,26
 195 501 195 501 181.5 487.5 c 128,-1,19
 168 474 168 474 148.5 474 c 128,-1,20
EndSplineSet
Validated: 1
EndChar

StartChar: dotlessi
Encoding: 305 305 181
Width: 143
GlyphClass: 2
Flags: W
LayerCount: 2
Fore
SplineSet
113 0 m 1,0,-1
 30 0 l 1,1,-1
 30 434 l 1,2,-1
 113 434 l 1,3,-1
 113 0 l 1,0,-1
EndSplineSet
Validated: 1
EndChar

StartChar: Lslash
Encoding: 321 321 182
Width: 503
GlyphClass: 2
Flags: W
LayerCount: 2
Fore
SplineSet
193 83 m 1,0,-1
 472 83 l 1,1,-1
 472 0 l 1,2,-1
 111 0 l 1,3,-1
 111 286 l 1,4,-1
 46 265 l 1,5,-1
 30 314 l 1,6,-1
 111 341 l 1,7,-1
 111 579 l 1,8,-1
 193 579 l 1,9,-1
 193 368 l 1,10,-1
 283 398 l 1,11,-1
 300 349 l 1,12,-1
 193 314 l 1,13,-1
 193 83 l 1,0,-1
EndSplineSet
Validated: 1
EndChar

StartChar: lslash
Encoding: 322 322 183
Width: 330
GlyphClass: 2
Flags: W
LayerCount: 2
Fore
SplineSet
283 398 m 1,0,-1
 300 349 l 1,1,-1
 193 314 l 1,2,-1
 193 0 l 1,3,-1
 111 0 l 1,4,-1
 111 286 l 1,5,-1
 46 265 l 1,6,-1
 30 314 l 1,7,-1
 111 341 l 1,8,-1
 111 579 l 1,9,-1
 193 579 l 1,10,-1
 193 369 l 1,11,-1
 283 398 l 1,0,-1
EndSplineSet
Validated: 1
EndChar

StartChar: OE
Encoding: 338 338 184
Width: 714
GlyphClass: 2
Flags: W
LayerCount: 2
Fore
SplineSet
683 496 m 1,0,-1
 404 496 l 1,1,-1
 404 331 l 1,2,-1
 683 331 l 1,3,-1
 683 248 l 1,4,-1
 404 248 l 1,5,-1
 404 83 l 1,6,-1
 683 83 l 1,7,-1
 683 0 l 1,8,-1
 321 0 l 2,9,10
 320 0 320 0 319 0 c 0,11,12
 199 0 199 0 114.5 84.5 c 128,-1,13
 30 169 30 169 30 289 c 128,-1,14
 30 409 30 409 114.5 494 c 128,-1,15
 199 579 199 579 319 579 c 0,16,17
 321 579 321 579 321 579 c 1,18,-1
 683 579 l 1,19,-1
 683 496 l 1,0,-1
321 83 m 1,20,-1
 321 496 l 1,21,22
 321 496 321 496 320.5 496 c 128,-1,23
 320 496 320 496 319 496 c 0,24,25
 234 496 234 496 173.5 435.5 c 128,-1,26
 113 375 113 375 113 289.5 c 128,-1,27
 113 204 113 204 173.5 143.5 c 128,-1,28
 234 83 234 83 319 83 c 0,29,30
 320 83 320 83 320.5 83 c 128,-1,31
 321 83 321 83 321 83 c 1,20,-1
EndSplineSet
Validated: 1
EndChar

StartChar: oe
Encoding: 339 339 185
Width: 846
GlyphClass: 2
Flags: W
LayerCount: 2
Fore
SplineSet
724 175 m 1,0,-1
 472 175 l 1,1,2
 486 136 486 136 520.5 111 c 128,-1,3
 555 86 555 86 598 86 c 0,4,5
 636 86 636 86 668 105 c 1,6,-1
 727 46 l 1,7,8
 670 3 670 3 598 3 c 0,9,10
 545 3 545 3 499 27 c 128,-1,11
 453 51 453 51 423 93 c 1,12,13
 392 51 392 51 346 27 c 128,-1,14
 300 3 300 3 247 3 c 0,15,16
 157 3 157 3 93.5 66.5 c 128,-1,17
 30 130 30 130 30 220 c 128,-1,18
 30 310 30 310 93.5 373.5 c 128,-1,19
 157 437 157 437 247 437 c 0,20,21
 300 437 300 437 346 413 c 128,-1,22
 392 389 392 389 423 347 c 1,23,24
 437 367 437 367 456.5 383.5 c 128,-1,25
 476 400 476 400 498 412 c 128,-1,26
 520 424 520 424 545.5 430.5 c 128,-1,27
 571 437 571 437 598 437 c 0,28,29
 688 437 688 437 751.5 373.5 c 128,-1,30
 815 310 815 310 815 220 c 0,31,32
 815 197 815 197 810 175 c 1,33,-1
 724 175 l 1,0,-1
247 86 m 128,-1,35
 302 86 302 86 341.5 125 c 128,-1,36
 381 164 381 164 381 220 c 0,37,38
 381 256 381 256 363 287 c 128,-1,39
 345 318 345 318 314 336 c 128,-1,40
 283 354 283 354 247 354 c 0,41,42
 192 354 192 354 152.5 314.5 c 128,-1,43
 113 275 113 275 113 219.5 c 128,-1,44
 113 164 113 164 152.5 125 c 128,-1,34
 192 86 192 86 247 86 c 128,-1,35
470 258 m 1,45,-1
 726 258 l 1,46,47
 718 286 718 286 699.5 307.5 c 128,-1,48
 681 329 681 329 654.5 341.5 c 128,-1,49
 628 354 628 354 598 354 c 0,50,51
 553 354 553 354 517.5 327 c 128,-1,52
 482 300 482 300 470 258 c 1,45,-1
EndSplineSet
Validated: 1
EndChar

StartChar: Scaron
Encoding: 352 352 186
Width: 400
GlyphClass: 2
Flags: W
LayerCount: 2
Fore
SplineSet
319 282 m 0,0,1
 369 234 369 234 369 165.5 c 128,-1,2
 369 97 369 97 319.5 48.5 c 128,-1,3
 270 0 270 0 199.5 0 c 128,-1,4
 129 0 129 0 80 49 c 0,5,6
 39 89 39 89 31 145 c 1,7,-1
 116 145 l 1,8,9
 122 123 122 123 138 107 c 0,10,11
 164 83 164 83 199.5 83 c 128,-1,12
 235 83 235 83 260.5 107 c 128,-1,13
 286 131 286 131 286 165.5 c 128,-1,14
 286 200 286 200 260.5 224 c 128,-1,15
 235 248 235 248 200 248 c 2,16,-1
 199 248 l 2,17,18
 187 248 187 248 173 250 c 0,19,20
 168 251 168 251 167 251 c 0,21,22
 164 252 164 252 157 253 c 0,23,24
 153 254 153 254 152 255 c 0,25,26
 148 256 148 256 141 258 c 0,27,28
 139 259 139 259 137 260 c 0,29,30
 132 261 132 261 126 264 c 2,31,32
 126 264 126 264 125 264.5 c 128,-1,33
 124 265 124 265 124 266 c 0,34,35
 118 268 118 268 113 272 c 0,36,37
 111 272 111 272 111 273 c 0,38,39
 105 276 105 276 100 280 c 0,40,41
 99 280 99 280 99 280.5 c 128,-1,42
 99 281 99 281 99 281 c 1,43,44
 93 285 93 285 88 289 c 0,45,46
 82 294 82 294 80 296 c 0,47,48
 30 345 30 345 30 413.5 c 128,-1,49
 30 482 30 482 79.5 530.5 c 128,-1,50
 129 579 129 579 199.5 579 c 128,-1,51
 270 579 270 579 319 530 c 0,52,53
 360 490 360 490 368 434 c 1,54,-1
 283 434 l 1,55,56
 277 456 277 456 261 472 c 0,57,58
 235 496 235 496 199.5 496 c 128,-1,59
 164 496 164 496 138.5 471.5 c 128,-1,60
 113 447 113 447 113 413 c 128,-1,61
 113 379 113 379 138.5 355 c 128,-1,62
 164 331 164 331 200 331 c 0,63,64
 208 331 208 331 217 330 c 2,65,66
 217 330 217 330 218 330 c 128,-1,67
 219 330 219 330 219 330 c 2,68,69
 226 329 226 329 233 328 c 0,70,71
 234 327 234 327 235 327 c 128,-1,72
 236 327 236 327 237 327 c 0,73,74
 244 325 244 325 249 324 c 0,75,76
 250 323 250 323 251 323 c 0,77,78
 253 322 253 322 253 322 c 2,79,80
 259 320 259 320 264 318 c 0,81,82
 265 318 265 318 269 316 c 0,83,84
 274 314 274 314 278 312 c 256,85,86
 282 310 282 310 283 309 c 0,87,88
 288 306 288 306 292 304 c 0,89,90
 295 302 295 302 296 301 c 0,91,92
 300 298 300 298 305 295 c 2,93,94
 305 295 305 295 306.5 293.5 c 128,-1,95
 308 292 308 292 309 292 c 1,96,97
 309 291 309 291 310 290.5 c 128,-1,98
 311 290 311 290 312 289 c 2,99,-1
 311 289 l 1,100,101
 318 284 318 284 319 282 c 0,0,1
356 667 m 1,102,-1
 199 589 l 1,103,-1
 43 667 l 1,104,-1
 66 713 l 1,105,-1
 199 647 l 1,106,-1
 333 713 l 1,107,-1
 356 667 l 1,102,-1
EndSplineSet
Validated: 1
EndChar

StartChar: scaron
Encoding: 353 353 187
Width: 373
GlyphClass: 2
Flags: W
LayerCount: 2
Fore
SplineSet
186 375 m 128,-1,1
 167 375 167 375 153.5 361.5 c 128,-1,2
 140 348 140 348 140 329 c 128,-1,3
 140 310 140 310 153.5 296 c 128,-1,4
 167 282 167 282 186 282 c 1,5,-1
 186 283 l 1,6,7
 240 283 240 283 278 245 c 128,-1,8
 316 207 316 207 316 154 c 0,9,10
 316 118 316 118 298.5 88.5 c 128,-1,11
 281 59 281 59 251 41.5 c 128,-1,12
 221 24 221 24 186 24 c 0,13,14
 133 24 133 24 95 62 c 128,-1,15
 57 100 57 100 57 154 c 1,16,-1
 140 154 l 1,17,18
 140 141 140 141 146 130.5 c 128,-1,19
 152 120 152 120 163 113.5 c 128,-1,20
 174 107 174 107 186 107 c 0,21,22
 205 107 205 107 219 120.5 c 128,-1,23
 233 134 233 134 233 153.5 c 128,-1,24
 233 173 233 173 219 186.5 c 128,-1,25
 205 200 205 200 186 200 c 1,26,-1
 186 199 l 1,27,28
 151 199 151 199 121.5 216.5 c 128,-1,29
 92 234 92 234 74.5 264 c 128,-1,30
 57 294 57 294 57 329 c 0,31,32
 57 382 57 382 95 420 c 128,-1,33
 133 458 133 458 186.5 458 c 128,-1,34
 240 458 240 458 278 420 c 128,-1,35
 316 382 316 382 316 329 c 1,36,-1
 233 329 l 1,37,38
 233 348 233 348 219 361.5 c 128,-1,0
 205 375 205 375 186 375 c 128,-1,1
343 556 m 1,39,-1
 186 478 l 1,40,-1
 30 556 l 1,41,-1
 53 603 l 1,42,-1
 186 536 l 1,43,-1
 319 603 l 1,44,-1
 343 556 l 1,39,-1
EndSplineSet
Validated: 1
EndChar

StartChar: Ydieresis
Encoding: 376 376 188
Width: 598
GlyphClass: 2
Flags: W
LayerCount: 2
Fore
SplineSet
464 579 m 1,0,-1
 568 579 l 1,1,-1
 340 275 l 1,2,-1
 340 0 l 1,3,-1
 257 0 l 1,4,-1
 257 275 l 1,5,-1
 30 579 l 1,6,-1
 134 579 l 1,7,-1
 299 358 l 1,8,-1
 464 579 l 1,0,-1
371 605 m 0,9,10
 359 605 359 605 348 611 c 128,-1,11
 337 617 337 617 331 627.5 c 128,-1,12
 325 638 325 638 325 651 c 128,-1,13
 325 664 325 664 331 674.5 c 128,-1,14
 337 685 337 685 348 691 c 128,-1,15
 359 697 359 697 371 697 c 0,16,17
 390 697 390 697 404 683.5 c 128,-1,18
 418 670 418 670 418 651 c 128,-1,19
 418 632 418 632 404 618.5 c 128,-1,20
 390 605 390 605 371 605 c 0,9,10
226.5 605 m 128,-1,22
 207 605 207 605 193.5 618.5 c 128,-1,23
 180 632 180 632 180 651 c 128,-1,24
 180 670 180 670 193.5 683.5 c 128,-1,25
 207 697 207 697 226.5 697 c 128,-1,26
 246 697 246 697 259.5 683.5 c 128,-1,27
 273 670 273 670 273 651 c 128,-1,28
 273 632 273 632 259.5 618.5 c 128,-1,21
 246 605 246 605 226.5 605 c 128,-1,22
EndSplineSet
Validated: 1
EndChar

StartChar: Zcaron
Encoding: 381 381 189
Width: 598
GlyphClass: 2
Flags: W
LayerCount: 2
Fore
SplineSet
568 579 m 1,0,-1
 196 83 l 1,1,-1
 568 83 l 1,2,-1
 568 0 l 1,3,-1
 30 0 l 1,4,-1
 402 496 l 1,5,-1
 30 496 l 1,6,-1
 30 579 l 1,7,-1
 568 579 l 1,0,-1
455 667 m 1,8,-1
 299 589 l 1,9,-1
 143 667 l 1,10,-1
 166 713 l 1,11,-1
 299 647 l 1,12,-1
 432 713 l 1,13,-1
 455 667 l 1,8,-1
EndSplineSet
Validated: 1
EndChar

StartChar: zcaron
Encoding: 382 382 190
Width: 373
GlyphClass: 2
Flags: W
LayerCount: 2
Fore
SplineSet
41 457 m 1,0,-1
 332 457 l 1,1,-1
 170 107 l 1,2,-1
 330 107 l 1,3,-1
 330 24 l 1,4,-1
 41 24 l 1,5,-1
 202 374 l 1,6,-1
 41 374 l 1,7,-1
 41 457 l 1,0,-1
343 556 m 1,8,-1
 186 478 l 1,9,-1
 30 556 l 1,10,-1
 53 603 l 1,11,-1
 186 536 l 1,12,-1
 319 603 l 1,13,-1
 343 556 l 1,8,-1
EndSplineSet
Validated: 1
EndChar

StartChar: uni017f
Encoding: 383 383 191
Width: 205
GlyphClass: 2
Flags: W
LayerCount: 2
Fore
SplineSet
113 0 m 1,0,-1
 30 0 l 1,1,-1
 30 545 l 2,2,3
 30 610 30 610 71 660 c 128,-1,4
 112 710 112 710 175 722 c 1,5,-1
 175 636 l 1,6,7
 148 625 148 625 131 601.5 c 128,-1,8
 114 578 114 578 113 549 c 2,9,-1
 113 548 l 1,10,-1
 113 547 l 1,11,-1
 113 545 l 1,12,13
 113 545 113 545 113 543.5 c 128,-1,14
 113 542 113 542 113 542 c 1,15,-1
 113 393 l 1,16,-1
 113 0 l 1,0,-1
EndSplineSet
Validated: 1
EndChar

StartChar: circumflex
Encoding: 710 710 192
Width: 373
GlyphClass: 2
Flags: W
LayerCount: 2
Fore
SplineSet
186 687 m 1,0,-1
 343 609 l 1,1,-1
 319 562 l 1,2,-1
 186 629 l 1,3,-1
 53 562 l 1,4,-1
 30 609 l 1,5,-1
 186 687 l 1,0,-1
EndSplineSet
Validated: 1
EndChar

StartChar: caron
Encoding: 711 711 193
Width: 373
GlyphClass: 2
Flags: W
LayerCount: 2
Fore
SplineSet
319 697 m 1,0,-1
 343 651 l 1,1,-1
 186 572 l 1,2,-1
 30 651 l 1,3,-1
 53 697 l 1,4,-1
 186 630 l 1,5,-1
 319 697 l 1,0,-1
EndSplineSet
Validated: 1
EndChar

StartChar: ilde
Encoding: 732 732 194
Width: 376
GlyphClass: 2
Flags: W
LayerCount: 2
Fore
SplineSet
296 651 m 1,0,-1
 346 639 l 1,1,2
 337 598 337 598 302 577 c 0,3,4
 280 562 280 562 250 562 c 0,5,6
 238 562 238 562 228 565 c 0,7,8
 187 574 187 574 166 609 c 0,9,10
 156 625 156 625 137 630 c 0,11,12
 133 631 133 631 126 631 c 0,13,14
 112 631 112 631 101 624 c 0,15,16
 84 612 84 612 81 595 c 1,17,-1
 30 606 l 1,18,19
 39 646 39 646 74 668 c 0,20,21
 98 683 98 683 126 683 c 0,22,23
 137 683 137 683 149 680 c 0,24,25
 189 670 189 670 210 636 c 0,26,27
 222 619 222 619 240 615 c 0,28,29
 243 614 243 614 250 614 c 0,30,31
 261 614 261 614 275 621 c 0,32,33
 292 632 292 632 296 651 c 1,0,-1
EndSplineSet
Validated: 1
EndChar

StartChar: endash
Encoding: 8211 8211 195
Width: 494
GlyphClass: 2
Flags: W
LayerCount: 2
Fore
SplineSet
464 562 m 1,0,-1
 30 562 l 1,1,-1
 30 645 l 1,2,-1
 464 645 l 1,3,-1
 464 562 l 1,0,-1
EndSplineSet
Validated: 1
EndChar

StartChar: quoteleft
Encoding: 8216 8216 196
Width: 143
GlyphClass: 2
Flags: W
LayerCount: 2
Fore
SplineSet
113 728 m 1,0,1
 113 728 113 728 113 685 c 2,2,-1
 113 562 l 1,3,-1
 30 562 l 1,4,-1
 61 727 l 1,5,-1
 61 728 l 1,6,-1
 113 728 l 1,0,1
EndSplineSet
Validated: 1
EndChar

StartChar: quoteright
Encoding: 8217 8217 197
Width: 143
GlyphClass: 2
Flags: W
LayerCount: 2
Fore
SplineSet
30 728 m 1,0,-1
 113 728 l 1,1,-1
 82 562 l 1,2,-1
 30 562 l 1,3,-1
 30 605 l 1,4,-1
 30 728 l 1,0,-1
EndSplineSet
Validated: 1
EndChar

StartChar: quotedblleft
Encoding: 8220 8220 198
Width: 257
GlyphClass: 2
Flags: W
LayerCount: 2
Fore
SplineSet
61 728 m 1,0,-1
 113 728 l 1,1,2
 113 728 113 728 113 685 c 2,3,-1
 113 562 l 1,4,-1
 30 562 l 1,5,-1
 61 727 l 1,6,-1
 61 728 l 1,0,-1
227 728 m 1,7,-1
 227 685 l 1,8,-1
 227 562 l 1,9,-1
 144 562 l 1,10,-1
 174 727 l 1,11,-1
 174 728 l 1,12,-1
 227 728 l 1,7,-1
EndSplineSet
Validated: 1
EndChar

StartChar: quotedblright
Encoding: 8221 8221 199
Width: 257
GlyphClass: 2
Flags: W
LayerCount: 2
Fore
SplineSet
144 483 m 1,0,-1
 227 483 l 1,1,-1
 196 318 l 1,2,-1
 196 317 l 1,3,-1
 144 317 l 1,4,5
 144 317 144 317 144 360 c 2,6,-1
 144 483 l 1,0,-1
30 317 m 1,7,-1
 30 360 l 1,8,-1
 30 483 l 1,9,-1
 113 483 l 1,10,-1
 82 318 l 1,11,-1
 82 317 l 1,12,-1
 30 317 l 1,7,-1
EndSplineSet
Validated: 1
EndChar

StartChar: dagger
Encoding: 8224 8224 200
Width: 494
GlyphClass: 2
Flags: W
LayerCount: 2
Fore
SplineSet
288 524 m 1,0,-1
 464 524 l 1,1,-1
 464 441 l 1,2,-1
 288 441 l 1,3,-1
 288 48 l 1,4,-1
 206 48 l 1,5,-1
 206 441 l 1,6,-1
 30 441 l 1,7,-1
 30 524 l 1,8,-1
 206 524 l 1,9,-1
 206 772 l 1,10,-1
 288 772 l 1,11,-1
 288 524 l 1,0,-1
EndSplineSet
Validated: 1
EndChar

StartChar: daggerdbl
Encoding: 8225 8225 201
Width: 494
GlyphClass: 2
Flags: W
LayerCount: 2
Fore
SplineSet
464 441 m 1,0,-1
 288 441 l 1,1,-1
 288 234 l 1,2,-1
 464 234 l 1,3,-1
 464 151 l 1,4,-1
 288 151 l 1,5,-1
 288 48 l 1,6,-1
 206 48 l 1,7,-1
 206 151 l 1,8,-1
 30 151 l 1,9,-1
 30 234 l 1,10,-1
 206 234 l 1,11,-1
 206 441 l 1,12,-1
 30 441 l 1,13,-1
 30 524 l 1,14,-1
 206 524 l 1,15,-1
 206 772 l 1,16,-1
 288 772 l 1,17,-1
 288 524 l 1,18,-1
 464 524 l 1,19,-1
 464 441 l 1,0,-1
EndSplineSet
Validated: 1
EndChar

StartChar: bullet
Encoding: 8226 8226 202
Width: 329
GlyphClass: 2
Flags: W
LayerCount: 2
Fore
SplineSet
164.5 146 m 128,-1,1
 109 146 109 146 69.5 185.5 c 128,-1,2
 30 225 30 225 30 280.5 c 128,-1,3
 30 336 30 336 69.5 375 c 128,-1,4
 109 414 109 414 164.5 414 c 128,-1,5
 220 414 220 414 259 375 c 128,-1,6
 298 336 298 336 298 280.5 c 128,-1,7
 298 225 298 225 259 185.5 c 128,-1,0
 220 146 220 146 164.5 146 c 128,-1,1
EndSplineSet
Validated: 1
EndChar

StartChar: perthousand
Encoding: 8240 8240 203
Width: 977
GlyphClass: 2
Flags: W
LayerCount: 2
Fore
SplineSet
571.5 206 m 128,-1,1
 614 206 614 206 644.5 176 c 128,-1,2
 675 146 675 146 675 103 c 128,-1,3
 675 60 675 60 644.5 30 c 128,-1,4
 614 0 614 0 571.5 0 c 128,-1,5
 529 0 529 0 498.5 30 c 128,-1,6
 468 60 468 60 468 103 c 128,-1,7
 468 146 468 146 498.5 176 c 128,-1,0
 529 206 529 206 571.5 206 c 128,-1,1
586 89 m 128,-1,9
 592 95 592 95 592 103.5 c 128,-1,10
 592 112 592 112 586 117.5 c 128,-1,11
 580 123 580 123 571.5 123 c 128,-1,12
 563 123 563 123 557 117.5 c 128,-1,13
 551 112 551 112 551 103.5 c 128,-1,14
 551 95 551 95 557 89 c 128,-1,15
 563 83 563 83 571.5 83 c 128,-1,8
 580 83 580 83 586 89 c 128,-1,9
199.5 372 m 128,-1,17
 157 372 157 372 126.5 402.5 c 128,-1,18
 96 433 96 433 96 475.5 c 128,-1,19
 96 518 96 518 126.5 548.5 c 128,-1,20
 157 579 157 579 199.5 579 c 128,-1,21
 242 579 242 579 272 548.5 c 128,-1,22
 302 518 302 518 302 475.5 c 128,-1,23
 302 433 302 433 272 402.5 c 128,-1,16
 242 372 242 372 199.5 372 c 128,-1,17
185 490 m 128,-1,25
 179 484 179 484 179 475.5 c 128,-1,26
 179 467 179 467 185 461 c 128,-1,27
 191 455 191 455 199.5 455 c 128,-1,28
 208 455 208 455 214 461 c 128,-1,29
 220 467 220 467 220 475.5 c 128,-1,30
 220 484 220 484 214 490 c 128,-1,31
 208 496 208 496 199.5 496 c 128,-1,24
 191 496 191 496 185 490 c 128,-1,25
30 5 m 1,32,-1
 615 579 l 1,33,-1
 734 579 l 1,34,-1
 148 5 l 1,35,-1
 30 5 l 1,32,-1
916.5 176 m 128,-1,37
 947 146 947 146 947 103 c 128,-1,38
 947 60 947 60 916.5 30 c 128,-1,39
 886 0 886 0 843.5 0 c 128,-1,40
 801 0 801 0 770.5 30 c 128,-1,41
 740 60 740 60 740 103 c 128,-1,42
 740 146 740 146 770.5 176 c 128,-1,43
 801 206 801 206 843.5 206 c 128,-1,36
 886 206 886 206 916.5 176 c 128,-1,37
858 89 m 128,-1,45
 864 95 864 95 864 103.5 c 128,-1,46
 864 112 864 112 858 117.5 c 128,-1,47
 852 123 852 123 843.5 123 c 128,-1,48
 835 123 835 123 829 117.5 c 128,-1,49
 823 112 823 112 823 103.5 c 128,-1,50
 823 95 823 95 829 89 c 128,-1,51
 835 83 835 83 843.5 83 c 128,-1,44
 852 83 852 83 858 89 c 128,-1,45
EndSplineSet
Validated: 1
EndChar

StartChar: guilsinglleft
Encoding: 8249 8249 204
Width: 376
GlyphClass: 2
Flags: W
LayerCount: 2
Fore
SplineSet
345 478 m 1,0,-1
 147 280 l 1,1,-1
 345 82 l 1,2,-1
 287 24 l 1,3,-1
 30 280 l 1,4,-1
 287 537 l 1,5,-1
 345 478 l 1,0,-1
EndSplineSet
Validated: 1
EndChar

StartChar: guilsinglright
Encoding: 8250 8250 205
Width: 376
GlyphClass: 2
Flags: W
LayerCount: 2
Fore
SplineSet
89 537 m 1,0,-1
 345 280 l 1,1,-1
 89 24 l 1,2,-1
 30 82 l 1,3,-1
 228 280 l 1,4,-1
 30 478 l 1,5,-1
 89 537 l 1,0,-1
EndSplineSet
Validated: 1
EndChar

StartChar: fraction
Encoding: 8260 8260 206
Width: 764
GlyphClass: 2
Flags: W
LayerCount: 2
Fore
SplineSet
615 579 m 1,0,-1
 734 579 l 1,1,-1
 148 5 l 1,2,-1
 30 5 l 1,3,-1
 615 579 l 1,0,-1
EndSplineSet
Validated: 1
EndChar

StartChar: Euro
Encoding: 8364 8364 207
Width: 627
GlyphClass: 2
Flags: W
LayerCount: 2
Fore
SplineSet
392 90 m 0,0,1
 477 90 477 90 538 150 c 1,2,-1
 596 92 l 1,3,4
 511 7 511 7 392 7 c 0,5,6
 333 7 333 7 280 29.5 c 128,-1,7
 227 52 227 52 187.5 91.5 c 128,-1,8
 148 131 148 131 126 182 c 1,9,-1
 30 182 l 1,10,-1
 30 265 l 1,11,-1
 104 265 l 1,12,13
 102 282 102 282 102 296.5 c 128,-1,14
 102 311 102 311 104 327 c 1,15,-1
 30 327 l 1,16,-1
 30 410 l 1,17,-1
 126 410 l 1,18,19
 159 489 159 489 231 537.5 c 128,-1,20
 303 586 303 586 392 586 c 0,21,22
 511 586 511 586 596 501 c 1,23,-1
 538 442 l 1,24,25
 477 503 477 503 392 503 c 0,26,27
 339 503 339 503 293.5 478 c 128,-1,28
 248 453 248 453 220 410 c 1,29,-1
 536 410 l 1,30,-1
 536 327 l 1,31,-1
 188 327 l 1,32,33
 185 310 185 310 185 296 c 128,-1,34
 185 282 185 282 188 265 c 1,35,-1
 536 265 l 1,36,-1
 536 182 l 1,37,-1
 220 182 l 1,38,39
 248 140 248 140 293.5 115 c 128,-1,40
 339 90 339 90 392 90 c 0,0,1
EndSplineSet
Validated: 1
EndChar

StartChar: trademark
Encoding: 8482 8482 208
Width: 636
GlyphClass: 2
Flags: W
LayerCount: 2
Fore
SplineSet
30 248 m 1,0,-1
 30 289 l 1,1,-1
 247 289 l 1,2,-1
 247 248 l 1,3,-1
 159 248 l 1,4,-1
 159 0 l 1,5,-1
 118 0 l 1,6,-1
 118 248 l 1,7,-1
 30 248 l 1,0,-1
565 234 m 1,8,-1
 606 289 l 1,9,-1
 606 0 l 1,10,-1
 565 0 l 1,11,-1
 565 165 l 1,12,-1
 521 106 l 1,13,-1
 441 0 l 1,14,-1
 348 125 l 1,15,-1
 318 165 l 1,16,-1
 318 0 l 1,17,-1
 276 0 l 1,18,-1
 276 289 l 1,19,-1
 441 69 l 1,20,-1
 565 234 l 1,8,-1
EndSplineSet
Validated: 1
EndChar

StartChar: minus
Encoding: 8722 8722 209
Width: 638
GlyphClass: 2
Flags: W
LayerCount: 2
Fore
SplineSet
608 94 m 1,0,-1
 30 94 l 1,1,-1
 30 177 l 1,2,-1
 608 177 l 1,3,-1
 608 94 l 1,0,-1
EndSplineSet
Validated: 1
EndChar

StartChar: a.alt1
Encoding: 61441 61441 210
Width: 494
GlyphClass: 2
Flags: W
LayerCount: 2
Fore
SplineSet
464 217 m 1,0,1
 464 217 464 217 464 217 c 1,2,-1
 464 0 l 1,3,-1
 381 0 l 1,4,-1
 381 47 l 1,5,6
 322 0 322 0 247 0 c 0,7,8
 157 0 157 0 93.5 63.5 c 128,-1,9
 30 127 30 127 30 217 c 0,10,11
 30 276 30 276 59 326 c 128,-1,12
 88 376 88 376 138 405 c 128,-1,13
 188 434 188 434 247 434 c 0,14,15
 322 434 322 434 381 387 c 1,16,-1
 381 434 l 2,17,18
 381 489 381 489 341.5 528.5 c 128,-1,19
 302 568 302 568 247 568 c 0,20,21
 211 568 211 568 180 550 c 128,-1,22
 149 532 149 532 131 501 c 128,-1,23
 113 470 113 470 113 434 c 1,24,-1
 30 434 l 1,25,26
 30 524 30 524 93.5 587.5 c 128,-1,27
 157 651 157 651 247 651 c 128,-1,28
 337 651 337 651 400.5 587.5 c 128,-1,29
 464 524 464 524 464 434 c 2,30,-1
 464 217 l 1,0,1
247 83 m 128,-1,32
 302 83 302 83 341.5 122.5 c 128,-1,33
 381 162 381 162 381 217 c 0,34,35
 381 253 381 253 363 284 c 128,-1,36
 345 315 345 315 314 333 c 128,-1,37
 283 351 283 351 247 351 c 0,38,39
 192 351 192 351 152.5 311.5 c 128,-1,40
 113 272 113 272 113 217 c 128,-1,41
 113 162 113 162 152.5 122.5 c 128,-1,31
 192 83 192 83 247 83 c 128,-1,32
EndSplineSet
Validated: 1
EndChar

StartChar: e.alt1
Encoding: 61442 61442 211
Width: 492
GlyphClass: 2
Flags: W
LayerCount: 2
Fore
SplineSet
377 186 m 1,0,-1
 461 186 l 1,1,2
 451 114 451 114 400 64 c 0,3,4
 337 0 337 0 247 0 c 128,-1,5
 157 0 157 0 94 64 c 0,6,7
 30 127 30 127 30 217 c 128,-1,8
 30 307 30 307 94 370 c 0,9,10
 157 434 157 434 247 434 c 128,-1,11
 337 434 337 434 400 370 c 0,12,13
 416 355 416 355 429 336 c 1,14,-1
 189 96 l 1,15,16
 216 83 216 83 247 83 c 0,17,18
 303 83 303 83 342 122 c 0,19,20
 369 149 369 149 377 186 c 1,0,-1
152 312 m 128,-1,22
 113 273 113 273 113 217 c 0,23,24
 113 182 113 182 129 153 c 1,25,-1
 311 335 l 1,26,27
 282 351 282 351 247 351 c 0,28,21
 191 351 191 351 152 312 c 128,-1,22
EndSplineSet
Validated: 1
EndChar

StartChar: j.alt1
Encoding: 61443 61443 212
Width: 143
GlyphClass: 2
Flags: W
LayerCount: 2
Fore
SplineSet
113 -142 m 1,0,-1
 30 -142 l 1,1,-1
 30 437 l 1,2,-1
 113 437 l 1,3,-1
 113 -142 l 1,0,-1
71.5 498 m 128,-1,5
 54 498 54 498 42 510.5 c 128,-1,6
 30 523 30 523 30 540 c 128,-1,7
 30 557 30 557 42 569 c 128,-1,8
 54 581 54 581 71 581 c 0,9,10
 83 581 83 581 92.5 575.5 c 128,-1,11
 102 570 102 570 107.5 560.5 c 128,-1,12
 113 551 113 551 113 540 c 0,13,14
 113 523 113 523 101 510.5 c 128,-1,4
 89 498 89 498 71.5 498 c 128,-1,5
EndSplineSet
Validated: 1
EndChar

StartChar: t.alt1
Encoding: 61444 61444 213
Width: 350
GlyphClass: 2
Flags: W
LayerCount: 2
Fore
SplineSet
215 197 m 1,0,-1
 215 180 l 1,1,-1
 215 179 l 2,2,3
 215 178 215 178 215 177.5 c 128,-1,4
 215 177 215 177 215 176 c 2,5,-1
 215 174 l 2,6,7
 217 144 217 144 233.5 120.5 c 128,-1,8
 250 97 250 97 277 86 c 1,9,-1
 277 0 l 1,10,11
 215 13 215 13 173.5 62.5 c 128,-1,12
 132 112 132 112 132 177 c 2,13,-1
 132 350 l 1,14,-1
 30 350 l 1,15,-1
 30 433 l 1,16,-1
 133 433 l 1,17,-1
 133 578 l 1,18,-1
 216 578 l 1,19,-1
 216 433 l 1,20,-1
 319 433 l 1,21,-1
 319 350 l 1,22,-1
 216 350 l 1,23,-1
 216 197 l 1,24,-1
 215 197 l 1,0,-1
EndSplineSet
Validated: 1
EndChar

StartChar: l.alt1
Encoding: 61445 61445 214
Width: 205
GlyphClass: 2
Flags: W
LayerCount: 2
Fore
SplineSet
175 103 m 1,0,-1
 175 0 l 1,1,2
 109 38 109 38 69.5 104.5 c 128,-1,3
 30 171 30 171 30 250 c 2,4,-1
 30 580 l 1,5,-1
 113 580 l 1,6,-1
 113 250 l 2,7,8
 113 164 113 164 175 103 c 1,0,-1
EndSplineSet
Validated: 1
EndChar

StartChar: V.alt1
Encoding: 61446 61446 215
Width: 590
GlyphClass: 2
Flags: W
LayerCount: 2
Fore
SplineSet
476 579 m 1,0,-1
 559 579 l 1,1,-1
 559 0 l 1,2,-1
 -2 579 l 1,3,-1
 114 579 l 1,4,-1
 215 474 l 1,5,-1
 476 205 l 1,6,-1
 476 579 l 1,0,-1
EndSplineSet
Validated: 1
EndChar

StartChar: V.alt2
Encoding: 61447 61447 216
Width: 571
GlyphClass: 2
Flags: W
LayerCount: 2
Fore
SplineSet
458 579 m 1,0,-1
 573 579 l 1,1,-1
 12 0 l 1,2,-1
 12 579 l 1,3,-1
 95 579 l 1,4,-1
 95 205 l 1,5,-1
 357 474 l 1,6,-1
 458 579 l 1,0,-1
EndSplineSet
Validated: 1
EndChar

StartChar: M.alt1
Encoding: 61448 61448 217
Width: 985
GlyphClass: 2
Flags: W
LayerCount: 2
Fore
SplineSet
393 579 m 1,0,-1
 954 0 l 1,1,-1
 838 0 l 1,2,-1
 476 374 l 1,3,-1
 476 0 l 1,4,-1
 113 374 l 1,5,-1
 113 0 l 1,6,-1
 30 0 l 1,7,-1
 30 579 l 1,8,-1
 393 205 l 1,9,-1
 393 579 l 1,0,-1
EndSplineSet
Validated: 1
EndChar

StartChar: M.alt2
Encoding: 61449 61449 218
Width: 984
GlyphClass: 2
Flags: W
LayerCount: 2
Fore
SplineSet
591 205 m 1,0,-1
 954 579 l 1,1,-1
 954 0 l 1,2,-1
 871 0 l 1,3,-1
 871 374 l 1,4,-1
 508 0 l 1,5,-1
 508 374 l 1,6,-1
 146 0 l 1,7,-1
 30 0 l 1,8,-1
 591 579 l 1,9,-1
 591 205 l 1,0,-1
EndSplineSet
Validated: 1
EndChar

StartChar: Y.alt1
Encoding: 61450 61450 219
Width: 587
GlyphClass: 2
Flags: W
LayerCount: 2
Fore
SplineSet
464 579 m 1,0,-1
 557 579 l 1,1,-1
 195 -145 l 1,2,-1
 102 -145 l 1,3,-1
 247 145 l 1,4,-1
 30 579 l 1,5,-1
 123 579 l 1,6,-1
 293 237 l 1,7,-1
 464 579 l 1,0,-1
EndSplineSet
Validated: 1
EndChar

StartChar: A.alt1
Encoding: 61451 61451 220
Width: 588
GlyphClass: 2
Flags: W
LayerCount: 2
Fore
SplineSet
30 579 m 1,0,-1
 591 0 l 1,1,-1
 476 0 l 1,2,-1
 335 145 l 1,3,-1
 113 145 l 1,4,-1
 113 0 l 1,5,-1
 30 0 l 1,6,-1
 30 579 l 1,0,-1
113 228 m 1,7,-1
 255 228 l 1,8,-1
 113 374 l 1,9,-1
 113 228 l 1,7,-1
EndSplineSet
Validated: 1
EndChar

StartChar: A.alt2
Encoding: 61452 61452 221
Width: 588
GlyphClass: 2
Flags: W
LayerCount: 2
Fore
SplineSet
-3 0 m 1,0,-1
 558 579 l 1,1,-1
 558 0 l 1,2,-1
 475 0 l 1,3,-1
 475 145 l 1,4,-1
 253 145 l 1,5,-1
 112 0 l 1,6,-1
 -3 0 l 1,0,-1
475 228 m 1,7,-1
 475 374 l 1,8,-1
 333 228 l 1,9,-1
 475 228 l 1,7,-1
EndSplineSet
Validated: 1
EndChar

StartChar: ff.dlig
Encoding: 64256 64256 222
Width: 668
GlyphClass: 3
Flags: W
LayerCount: 2
Fore
SplineSet
413 579 m 1,0,-1
 412 579 l 1,1,-1
 412 569 l 1,2,3
 412 569 412 569 412 568 c 2,4,5
 412 568 412 568 412 475 c 1,6,-1
 546 475 l 1,7,-1
 546 393 l 1,8,-1
 412 393 l 1,9,-1
 412 0 l 1,10,-1
 329 0 l 1,11,-1
 329 393 l 1,12,-1
 185 393 l 1,13,-1
 185 0 l 1,14,-1
 102 0 l 1,15,-1
 102 393 l 1,16,-1
 30 393 l 1,17,-1
 30 475 l 1,18,-1
 102 475 l 1,19,-1
 102 579 l 1,20,-1
 103 579 l 1,21,22
 107 639 107 639 151.5 681 c 128,-1,23
 196 723 196 723 257 723 c 0,24,25
 324 723 324 723 371 673 c 1,26,27
 417 723 417 723 484 723 c 0,28,29
 545 723 545 723 589.5 681 c 128,-1,30
 634 639 634 639 638 579 c 1,31,-1
 555 579 l 1,32,33
 551 605 551 605 531 622.5 c 128,-1,34
 511 640 511 640 484 640 c 128,-1,35
 457 640 457 640 436.5 622.5 c 128,-1,36
 416 605 416 605 413 579 c 1,0,-1
329 475 m 1,37,-1
 329 579 l 1,38,39
 325 605 325 605 304.5 622.5 c 128,-1,40
 284 640 284 640 257 640 c 128,-1,41
 230 640 230 640 210 622.5 c 128,-1,42
 190 605 190 605 186 579 c 1,43,-1
 185 579 l 1,44,-1
 185 569 l 1,45,-1
 185 568 l 1,46,-1
 185 475 l 1,47,-1
 329 475 l 1,37,-1
EndSplineSet
Validated: 1
Ligature2: "'dlig' +TvthD09/dSgwblQIW1cA in +MOkwxjDzZYdbVwAA lookup 2 +MLUw1jDGMPww1jDr" f f
EndChar

StartChar: fi.dlig
Encoding: 64257 64257 223
Width: 442
GlyphClass: 3
Flags: W
LayerCount: 2
Fore
SplineSet
185 568 m 1,0,1
 185 568 185 568 185 521.5 c 128,-1,2
 185 475 185 475 185 475 c 1,3,-1
 412 475 l 1,4,-1
 412 0 l 1,5,-1
 329 0 l 1,6,-1
 329 393 l 1,7,-1
 185 393 l 1,8,-1
 185 0 l 1,9,-1
 102 0 l 1,10,-1
 102 393 l 1,11,-1
 30 393 l 1,12,-1
 30 475 l 1,13,-1
 102 475 l 1,14,-1
 102 579 l 1,15,-1
 103 579 l 1,16,17
 107 639 107 639 151.5 681 c 128,-1,18
 196 723 196 723 257.5 723 c 128,-1,19
 319 723 319 723 363.5 681 c 128,-1,20
 408 639 408 639 412 579 c 1,21,-1
 329 579 l 1,22,23
 325 605 325 605 304.5 622.5 c 128,-1,24
 284 640 284 640 257 640 c 128,-1,25
 230 640 230 640 210 622.5 c 128,-1,26
 190 605 190 605 186 579 c 1,27,-1
 185 579 l 1,28,-1
 185 569 l 1,29,-1
 185 568 l 1,0,1
EndSplineSet
Validated: 1
Ligature2: "'dlig' +TvthD09/dSgwblQIW1cA in +MOkwxjDzZYdbVwAA lookup 2 +MLUw1jDGMPww1jDr" f i
EndChar

StartChar: ffi.dlig
Encoding: 64259 64259 224
Width: 668
GlyphClass: 3
Flags: W
LayerCount: 2
Fore
SplineSet
412 475 m 1,0,-1
 638 475 l 1,1,-1
 638 0 l 1,2,-1
 555 0 l 1,3,-1
 555 393 l 1,4,-1
 412 393 l 1,5,-1
 412 0 l 1,6,-1
 329 0 l 1,7,-1
 329 393 l 1,8,-1
 185 393 l 1,9,-1
 185 0 l 1,10,-1
 102 0 l 1,11,-1
 102 393 l 1,12,-1
 30 393 l 1,13,-1
 30 475 l 1,14,-1
 102 475 l 1,15,-1
 102 579 l 1,16,-1
 103 579 l 1,17,18
 107 639 107 639 151.5 681 c 128,-1,19
 196 723 196 723 257 723 c 0,20,21
 324 723 324 723 371 673 c 1,22,23
 381 685 381 685 394 694 c 1,24,25
 394 694 394 694 394 694 c 1,26,27
 406 702 406 702 419 708 c 0,28,29
 419 709 419 709 420 709.5 c 128,-1,30
 421 710 421 710 422 710 c 0,31,32
 433 715 433 715 447 718 c 2,33,34
 447 718 447 718 449 719 c 128,-1,35
 451 720 451 720 452 720 c 0,36,37
 468 723 468 723 484 723 c 0,38,39
 545 723 545 723 590 681 c 0,40,41
 634 639 634 639 638 579 c 1,42,-1
 555 579 l 1,43,44
 553 596 553 596 543 610 c 128,-1,45
 533 624 533 624 517.5 632 c 128,-1,46
 502 640 502 640 484 640 c 0,47,48
 457 640 457 640 436.5 622.5 c 128,-1,49
 416 605 416 605 413 579 c 1,50,-1
 412 579 l 1,51,-1
 412 569 l 1,52,-1
 412 568 l 1,53,-1
 412 475 l 1,0,-1
185 475 m 1,54,-1
 329 475 l 1,55,-1
 329 579 l 2,56,57
 326 596 326 596 316 610 c 128,-1,58
 306 624 306 624 290.5 632 c 128,-1,59
 275 640 275 640 257.5 640 c 128,-1,60
 240 640 240 640 224.5 632 c 128,-1,61
 209 624 209 624 199 610 c 128,-1,62
 189 596 189 596 186 579 c 1,63,-1
 185 579 l 1,64,-1
 185 569 l 1,65,-1
 185 568 l 1,66,-1
 185 475 l 1,54,-1
EndSplineSet
Validated: 1
Ligature2: "'dlig' +TvthD09/dSgwblQIW1cA in +MOkwxjDzZYdbVwAA lookup 2 +MLUw1jDGMPww1jDr" f f i
EndChar
